<?xml version="1.0" encoding="UTF-8" standalone="no"?>
<!-- Created with Inkscape (http://www.inkscape.org/) -->

<svg
   xmlns:dc="http://purl.org/dc/elements/1.1/"
   xmlns:cc="http://creativecommons.org/ns#"
   xmlns:rdf="http://www.w3.org/1999/02/22-rdf-syntax-ns#"
   xmlns:svg="http://www.w3.org/2000/svg"
   xmlns="http://www.w3.org/2000/svg"
   xmlns:sodipodi="http://sodipodi.sourceforge.net/DTD/sodipodi-0.dtd"
   xmlns:inkscape="http://www.inkscape.org/namespaces/inkscape"
   width="177.16534"
   height="53.149605"
   id="svg3358"
   version="1.1"
   inkscape:version="0.48.3.1 r9886"
   sodipodi:docname="New document 12">
  <defs
     id="defs3360" />
  <sodipodi:namedview
     id="base"
     pagecolor="#ffffff"
     bordercolor="#666666"
     borderopacity="1.0"
     inkscape:pageopacity="0.0"
     inkscape:pageshadow="2"
     inkscape:zoom="6.7789782"
     inkscape:cx="88.352957"
     inkscape:cy="26.574802"
     inkscape:document-units="px"
     inkscape:current-layer="layer1"
     showgrid="false"
     units="cm"
     inkscape:window-width="1366"
     inkscape:window-height="744"
     inkscape:window-x="0"
     inkscape:window-y="24"
     inkscape:window-maximized="1" />
  <metadata
     id="metadata3363">
    <rdf:RDF>
      <cc:Work
         rdf:about="">
        <dc:format>image/svg+xml</dc:format>
        <dc:type
           rdf:resource="http://purl.org/dc/dcmitype/StillImage" />
        <dc:title></dc:title>
      </cc:Work>
    </rdf:RDF>
  </metadata>
  <g
     inkscape:label="Layer 1"
     inkscape:groupmode="layer"
     id="layer1"
     transform="translate(0,-999.21127)">
    <path
       style="fill:#000000"
       id="path3480"
       d="m 21.604879,1021.1782 c 0.53901,-0.3523 1.074785,-0.7084 1.58813,-1.0973 1.323721,-0.9111 4.632012,-2.6692 0.387363,-0.2745 -0.03651,0.022 0.06661,-0.05 0.09875,-0.079 0.189634,-0.1597 0.01578,-0.029 0.216394,-0.1732 0.212597,-0.1868 0.399523,-0.4028 0.61361,-0.5885 0.163088,-0.1675 0.298983,-0.3584 0.450546,-0.5359 0.146341,-0.1772 0.321902,-0.3254 0.448952,-0.5167 0.163012,-0.1637 0.299592,-0.3482 0.468132,-0.5061 0.132422,-0.094 0.208408,-0.2453 0.236316,-0.4019 0.01482,-0.2083 0.0032,-0.4005 0.131152,-0.5753 0.08543,-0.1405 0.152577,-0.2824 0.178219,-0.4441 0.0027,-0.1559 0.05076,-0.3346 0.0056,-0.4872 -0.106475,-0.1906 -0.156139,-0.4168 -0.269877,-0.6013 -0.127013,-0.2062 -0.275254,-0.3924 -0.415569,-0.5916 -0.200988,-0.1482 -0.37349,-0.3335 -0.535609,-0.5233 -0.172963,-0.1847 -0.368785,-0.3548 -0.576431,-0.5035 -0.206624,-0.1957 -0.42319,-0.3387 -0.691289,-0.4291 -0.203519,-0.032 -0.409091,-0.032 -0.614442,-0.029 -0.236219,8e-4 -0.472433,0 -0.708655,0 -0.248526,8e-4 -0.497055,3e-4 -0.745583,0 -0.280962,0.049 -0.553932,0.1829 -0.844421,0.2518 -0.340328,0.1617 -0.663833,0.3579 -1.012987,0.4996 -0.388495,0.1289 -0.778732,0.2641 -1.147325,0.4464 -0.902717,0.431 -2.91875,1.5883 0.897516,-0.5819 -0.769534,0.4424 -1.537856,0.887 -2.308602,1.3272 -1.365669,0.7805 2.691217,-1.7315 1.422253,-0.7981 -0.337601,0.2888 -0.675907,0.577 -1.027055,0.8491 -0.421095,0.3614 -0.82449,0.7405 -1.209461,1.1399 -0.342602,0.3687 -0.745701,0.6733 -1.09821,1.0317 -0.316069,0.2996 -0.522014,0.6829 -0.767184,1.0377 -0.341204,0.4535 -0.68265,0.9052 -0.985205,1.3856 -0.277636,0.4653 -0.523491,0.9473 -0.772636,1.4281 -0.194801,0.3947 -0.288776,0.8198 -0.333587,1.2544 -0.02344,0.4376 -0.161875,0.8582 -0.241909,1.2878 -0.07048,0.4338 -0.08062,0.874 -0.08946,1.3124 -0.0029,0.3665 -0.0039,0.733 -0.0012,1.0993 -0.0014,0.3731 0.0014,0.746 8.81e-4,1.1187 0.0273,0.2986 -0.04412,0.6129 0.02322,0.9063 0.115097,0.2042 0.135984,0.4683 0.262875,0.662 0.136889,0.1977 0.20573,0.4295 0.359751,0.6141 0.166245,0.2413 0.413779,0.3373 0.650109,0.4832 0.255127,0.179 0.556677,0.2394 0.860465,0.2687 0.342573,0.025 0.686768,0.022 1.030097,0.022 0.354026,0.04 0.450579,-0.042 0.743277,-0.1886 0.892682,-0.2755 2.210993,-1.1393 -1.364123,0.8855 0.871091,-0.5319 0.872879,-0.535 2.469463,-1.4332 0.05694,-0.032 0.240069,-0.1016 0.183782,-0.067 -0.652853,0.3848 -2.617527,1.5271 -1.975906,1.1239 1.211663,-0.761 1.592344,-0.9574 2.458439,-1.4102 -3.587028,2.3846 -2.059163,1.1618 -1.262981,0.5741 0.231015,-0.156 0.443418,-0.3397 0.652969,-0.5226 0.222034,-0.1597 0.357939,-0.3957 0.589514,-0.5419 0.129343,-0.1154 0.274566,-0.4493 0.256592,0.1214 -0.0011,0.037 -0.07082,0 -0.102856,0.025 -0.04397,0.022 -0.08134,0.054 -0.122009,0.079 -0.815396,0.4941 0.342135,-0.2083 1.836339,-1.049 0.05433,-0.029 -0.101452,0.074 -0.152559,0.108 -0.162972,0.1117 -0.327893,0.2226 -0.487712,0.341 -0.272571,0.1771 -0.51204,0.3948 -0.773365,0.5869 -0.08045,0.04 -0.131633,0.1233 -0.208516,0.1694 -0.743514,0.4449 -1.522929,0.8323 -2.240225,1.3181 -0.632872,0.4289 1.323774,-0.7648 1.986374,-1.1461 0.04885,-0.027 -0.09612,0.059 -0.145128,0.086 -0.76637,0.4349 -1.534007,0.8677 -2.301012,1.3016 3.66089,-2.2854 1.96969,-1.1312 1.162943,-0.5547 -0.945908,0.6475 0.195162,-0.127 -2.4926,1.4584 -0.641519,0.3784 1.289955,-0.7447 1.937215,-1.1132 0.05906,-0.035 -0.113616,0.074 -0.172444,0.108 -0.768473,0.4443 -1.546147,0.8728 -2.309318,1.3262 -0.648232,0.3853 1.309634,-0.7475 1.964453,-1.1214 -0.345372,0.2125 -0.675509,0.4434 -1.002151,0.6829 -1.016996,0.6903 -2.134352,1.2237 -3.178142,1.8636 0.657723,-0.3788 1.314746,-0.7587 1.973166,-1.1363 0.04372,-0.025 -0.08524,0.054 -0.129034,0.079 -0.75781,0.4325 -1.512571,0.8703 -2.275671,1.2933 -0.674317,0.3739 1.337273,-0.7677 2.009304,-1.1456 0.08097,-0.044 -0.149825,0.1098 -0.222336,0.1674 -0.230574,0.1483 -0.401835,0.3697 -0.570544,0.5822 -0.173811,0.2785 -0.343812,0.5579 -0.518619,0.8364 -0.22389,0.3816 -0.489273,0.7354 -0.772654,1.0743 -0.206324,0.1997 -0.359764,0.4193 -0.484787,0.6746 -0.138775,0.2427 -0.268694,0.4845 -0.421211,0.7188 -0.1411998,0.2647 -0.3037566,0.5163 -0.432543,0.7878 -0.1400843,0.2721 -0.2832484,0.5326 -0.3615587,0.8306 -0.035034,0.3263 -0.085182,0.6368 -0.1940347,0.9471 -0.068988,0.2283 -0.1809522,0.4513 -0.1053729,0.6872 0.1278217,0.2576 0.1478613,0.5466 0.2293595,0.8174 0.094905,0.2488 0.1980308,0.4761 0.3838497,0.6688 0.1582756,0.1906 0.332882,0.3024 0.5651951,0.3755 0.256749,0.027 0.515572,0.023 0.773485,0.023 0.329039,-4e-4 0.658036,0 0.987073,0 0.428605,-0.1251 0.854836,-0.2412 1.281116,-0.374 0.551294,-0.227 1.104673,-0.4226 1.625856,-0.7157 0.08939,-0.042 0.177025,-0.089 0.26816,-0.1271 0.836696,-0.3559 2.02543,-0.9913 -1.307718,0.8239 -0.188363,0.1015 0.344746,-0.2554 0.509026,-0.3934 0.608099,-0.4594 1.196635,-0.9351 1.75362,-1.4562 0.539003,-0.5432 1.06062,-1.102 1.608797,-1.637 0.543648,-0.5487 1.15706,-1.0218 1.786792,-1.4663 1.142697,-0.769 2.270654,-1.7243 3.611552,-2.0873 0.289334,-0.2323 0.697948,-0.2453 0.993658,-0.4422 0.305408,-0.1443 0.619569,-0.2202 0.915963,-0.3841 0.314399,-0.1731 0.419157,-0.2267 0.731429,-0.067 0.210898,0.1015 0.34303,0.333 0.4123,0.5503 0.04914,0.1977 0.04943,0.4041 0.04882,0.6072 -0.02063,0.2369 -0.161432,0.4363 -0.246054,0.6552 -0.05958,0.2828 -0.202265,0.534 -0.288793,0.8087 -0.106507,0.2748 -0.23179,0.5594 -0.412061,0.7949 -0.15406,0.2142 -0.280095,0.4456 -0.410848,0.6741 -0.114674,0.312 -0.24896,0.6157 -0.377646,0.9229 -0.11246,0.2498 -0.123875,0.5234 -0.220489,0.7781 -0.109284,0.2435 -0.186862,0.4916 -0.220552,0.7561 -0.0108,0.039 -0.11425,0.4749 -0.12553,0.4492 -0.03021,-0.069 -0.0044,-0.2438 -0.07376,-0.2137 -0.696039,0.3004 -1.325611,0.7361 -1.988418,1.1042 0.406381,-0.4176 0.798039,-0.8479 1.21446,-1.2569 0.462954,-0.5022 0.887456,-1.0379 1.333616,-1.5548 0.375774,-0.4403 0.739476,-0.8902 1.110272,-1.3351 0.271736,-0.3388 0.562674,-0.6608 0.823551,-1.0081 0.207452,-0.2604 0.432583,-0.4969 0.680634,-0.7182 0.232497,-0.2 0.458543,-0.4085 0.679856,-0.6214 0.842662,-0.7839 1.778449,-1.1845 2.836758,-1.7968 0.313593,-0.086 0.450061,-0.05 0.739425,0.071 0.236365,0.1733 0.427131,0.3694 0.528345,0.6456 0.0724,0.2356 0.06374,0.4865 0.06308,0.7304 0.03762,0.3492 -0.09084,0.6672 -0.180741,0.997 -0.0923,0.3417 -0.118697,0.6948 -0.134617,1.0468 -6.43e-4,0.4129 0.004,0.8172 -0.08558,1.2217 -0.09633,0.3495 -0.166342,0.7043 -0.205219,1.0645 -0.01135,0.1998 -0.06563,0.4054 0.03255,0.5865 0.09885,0.2021 0.14967,0.2259 0.365138,0.2021 0.625325,-0.1578 3.302913,-1.7074 -1.713121,1.0071 -0.107857,0.057 0.173369,-0.1753 0.253152,-0.2671 0.23152,-0.308 0.427063,-0.6356 0.602776,-0.9774 0.207176,-0.2703 0.322383,-0.5835 0.448004,-0.8959 0.164166,-0.4111 0.329181,-0.8225 0.498907,-1.2315 0.177679,-0.2793 0.280896,-0.5947 0.433121,-0.8865 0.177545,-0.384 0.358003,-0.7675 0.559028,-1.1402 0.195523,-0.3657 0.408271,-0.718 0.54364,-1.1117 0.08171,-0.2481 0.08241,-0.5084 0.223629,-0.7333 0.648225,-0.8413 1.801169,-1.5525 2.838544,-1.2817 0.677361,0.1464 1.371877,0.2496 2.064857,0.1999 0.536088,-0.049 1.064396,-0.1598 1.599676,-0.2131 0.0918,-0.022 0.185418,-0.022 0.27751,-0.023 0.02105,0 0.04389,-0.057 0.05165,-0.037 0.14944,0.38 0.21925,0.2709 0.01135,0.4268 -0.386013,0.3669 -0.772137,0.7327 -1.143736,1.1148 -0.390683,0.3796 -0.699593,0.8103 -0.954645,1.2879 -0.246271,0.3957 -0.345712,0.8437 -0.402178,1.2997 -0.03395,0.3635 -0.03727,0.729 -0.03346,1.094 0.0014,0.3415 -7.8e-5,0.683 0.0017,1.0243 -0.04185,0.359 0.0712,0.682 0.173945,1.0188 0.06364,0.2201 0.203393,0.4105 0.397403,0.5318 0.19363,0.094 0.449104,0.1155 0.641515,0.022 0.713217,-0.4443 1.86311,-1.0584 -1.527779,0.8713 -0.07551,0.042 0.149978,-0.086 0.223397,-0.1347 0.232059,-0.1464 0.246641,-0.1656 0.472537,-0.3348 0.454503,-0.418 0.84875,-0.9019 1.229774,-1.3866 0.320407,-0.4416 0.561781,-0.9207 0.784625,-1.4157 0.175427,-0.4587 0.464833,-0.8519 0.753124,-1.2436 0.329002,-0.5049 0.628115,-1.018 1.017066,-1.4805 0.347319,-0.4388 0.67822,-0.9007 0.938044,-1.3977 0.103493,-0.2875 0.226339,-0.5618 0.375341,-0.8282 0.03247,0.067 0.05426,-0.2787 0.08666,-0.2104 0.01174,0.025 -0.0064,0.093 0.01829,0.079 1.999435,-0.9294 2.623082,-1.6507 1.979563,-0.9369 -0.30055,0.3923 -0.588549,0.7922 -0.844387,1.2151 -0.318993,0.4678 -0.530302,0.9862 -0.752634,1.5025 -0.147436,0.3826 -0.266104,0.7713 -0.425546,1.1494 -0.132345,0.3295 -0.267749,0.6586 -0.375735,0.9969 -0.07167,0.4555 -0.209665,0.8942 -0.321086,1.3408 -0.06748,0.3257 -0.159778,0.6561 -0.06318,0.982 0.0862,0.2787 0.182666,0.5433 0.329903,0.796 0.08936,0.1905 0.104282,0.3879 0.300651,0.4894 0.201263,0.1925 0.442955,0.2511 0.710833,0.2835 0.471323,0.081 0.919943,-0.025 1.36932,-0.1636 0.647252,-0.181 1.256383,-0.468 1.870023,-0.7361 -0.629588,0.3579 -1.258536,0.7171 -1.888763,1.0736 -0.07723,0.044 0.152943,-0.089 0.229777,-0.1349 0.773941,-0.4475 1.562551,-0.8704 2.322546,-1.3411 0.639675,-0.3963 -1.301974,0.755 -1.96139,1.1173 -0.0847,0.046 0.144242,-0.129 0.211343,-0.1977 0.517647,-0.6864 2.265465,-2.0415 2.409919,-1.034 0.0027,0.052 0.01977,0.098 0.03737,0.1445 0,0 -2.316354,0.9642 -2.316354,0.9642 l 0,0 c 0.03208,0.062 0.02213,0.064 0.05347,0.04 0.06027,-0.9462 2.824707,-2.0598 2.113184,-1.0896 -0.643931,0.8563 -1.172786,0.651 -2.479238,1.6188 -0.595703,0.4409 1.283719,-0.7418 1.925517,-1.1127 0.07711,-0.044 -0.15431,0.089 -0.231459,0.1348 -0.789358,0.452 -1.578718,0.904 -2.368076,1.3562 -0.613294,0.2755 -1.240994,0.5252 -1.889821,0.7044 -0.480423,0.1156 -0.956441,0.1959 -1.447267,0.087 -0.290676,-0.064 -0.546903,-0.1751 -0.778508,-0.3656 -0.198606,-0.1598 -0.275732,-0.354 -0.354369,-0.5902 -0.15148,-0.2698 -0.267561,-0.545 -0.354236,-0.8417 -0.12736,-0.3733 -0.07985,-0.725 0.0066,-1.1079 0.11065,-0.4505 0.270574,-0.8848 0.315967,-1.3479 0.08978,-0.353 0.233577,-0.6853 0.359567,-1.0243 0.165474,-0.3814 0.314124,-0.7556 0.432307,-1.1554 0.233863,-0.5185 0.411329,-1.0596 0.745471,-1.5276 0.236353,-0.4383 0.521104,-0.841 0.820303,-1.2381 0.505499,-0.8056 2.825537,-2.2842 2.471912,-0.9587 -0.09981,0.2907 -0.328141,0.5247 -0.381807,0.838 -0.225712,0.5332 -0.595778,0.9908 -0.920197,1.4649 -0.402494,0.4481 -0.73027,0.9308 -1.017299,1.4606 -0.286949,0.3794 -0.598587,0.7505 -0.771735,1.198 -0.247821,0.4956 -0.443598,1.0113 -0.77203,1.4638 -0.363411,0.5104 -0.793817,0.9728 -1.203435,1.4461 -1.02792,0.848 -2.217448,1.5429 -3.453301,2.0277 -0.270063,0 -0.540602,-0.022 -0.763668,-0.1887 -0.216263,-0.1732 -0.400342,-0.4086 -0.476968,-0.6757 -0.104314,-0.3579 -0.249444,-0.7024 -0.205453,-1.0832 3.08e-4,-0.3407 -0.0037,-0.6817 -0.0062,-1.0222 0.0022,-0.374 -7.9e-5,-0.749 0.03057,-1.1222 0.04156,-0.4807 0.122779,-0.9653 0.358461,-1.3934 0.288943,-0.4699 0.51434,-0.9692 0.935201,-1.3521 0.381713,-0.3658 0.758729,-0.7476 1.118063,-1.1308 0.18611,-0.1656 0.08233,-0.1348 0.321698,0.181 0.02235,0.029 -0.357395,-0.057 -0.345556,0 -0.530534,0.067 -1.05982,0.1539 -1.594219,0.1847 -0.709947,0 -1.413178,-0.094 -2.109129,-0.2314 -0.122721,0 -0.472592,0.067 -0.368893,0 2.798594,-1.7834 2.638007,-1.4887 1.871977,-1.1194 -0.228033,0.1733 -0.218464,0.3739 -0.275779,0.6427 -0.123779,0.4112 -0.306198,0.7863 -0.529594,1.1522 -0.192097,0.3757 -0.399912,0.7437 -0.555829,1.1335 -0.142761,0.2978 -0.260295,0.6039 -0.43748,0.8861 -0.216157,0.376 -0.314364,0.8216 -0.509708,1.2102 -0.112826,0.3217 -0.211747,0.6659 -0.425963,0.936 -0.222815,0.3138 -0.35065,0.7019 -0.589553,1.0091 -0.676913,0.8858 -1.73679,1.6864 -2.862046,1.6913 -0.246745,-0.05 -0.391873,-0.1866 -0.499444,-0.4126 -0.133212,-0.2419 -0.134559,-0.4488 -0.101408,-0.7221 0.0403,-0.3699 0.08978,-0.7397 0.199862,-1.0962 0.09803,-0.3915 0.123548,-0.7704 0.104703,-1.1758 0.0069,-0.3684 0.02888,-0.7364 0.108514,-1.0976 0.08225,-0.3146 0.226373,-0.61 0.205943,-0.9369 -6.04e-4,-0.2185 0.01098,-0.4414 -0.02934,-0.6569 -0.06116,-0.2082 -0.216683,-0.3586 -0.409079,-0.4577 -0.211683,-0.066 -0.423458,0 -0.612757,0.1059 0.67794,-0.3934 1.35588,-0.7868 2.033822,-1.18 -0.03811,0.022 -0.223637,0.1192 -0.253706,0.1424 -0.186575,0.1482 -0.02762,0.084 -0.229749,0.2392 -0.04202,0.032 -0.09311,0.049 -0.13966,0.076 -0.220854,0.2158 -0.441663,0.4323 -0.676502,0.6329 -0.249865,0.2167 -0.50005,0.4214 -0.696975,0.6849 -0.298444,0.3136 -0.528621,0.6984 -0.834913,1.0109 -0.369986,0.4481 -0.743246,0.8887 -1.106908,1.3405 -0.456229,0.5146 -0.894007,1.0446 -1.332212,1.5746 -0.414745,0.4069 -0.829725,0.8112 -1.19641,1.2602 -0.164916,0.1005 -3.104603,2.442 -2.351224,0.71 0.02599,-0.2828 0.06219,-0.5598 0.194801,-0.816 0.102705,-0.2593 0.151269,-0.5079 0.218483,-0.7807 0.123568,-0.3204 0.306597,-0.6071 0.364576,-0.9496 0.128419,-0.2442 0.261413,-0.4631 0.399566,-0.7004 0.02718,-0.04 0.05436,-0.083 0.08154,-0.1251 0.03132,-0.025 0.07019,-0.044 0.09394,-0.079 0.109707,-0.154 0.131633,-0.3747 0.275656,-0.5108 0.05941,-0.2873 0.193077,-0.5379 0.283637,-0.8082 0.03784,-0.2182 0.122643,-0.4329 0.274187,-0.5966 -5.79e-4,-0.1829 0.0073,-0.3673 -0.01999,-0.549 -0.02801,-0.1598 -0.129381,-0.2982 -0.287765,-0.3471 -0.201029,-0.04 -0.417622,0.1617 -0.60525,0.2299 -0.302614,0.1366 -0.628336,0.2155 -0.918315,0.3821 -0.345845,0.1155 -0.668211,0.2777 -1.006778,0.4109 -0.906919,0.3616 -0.281191,0.1252 1.682512,-1.0254 0.07747,-0.044 -0.156177,0.089 -0.233211,0.1347 -0.279429,0.1676 -0.532249,0.3664 -0.801534,0.549 -0.628621,0.439 -1.25734,0.887 -1.801818,1.4298 -0.55014,0.5353 -1.088689,1.0791 -1.609982,1.6412 -0.549366,0.5271 -1.111431,1.0345 -1.743374,1.4614 -1.05866,0.981 -2.395312,1.5793 -3.6934,2.1829 -0.536169,0.2657 -1.094283,0.4749 -1.655475,0.6817 -0.434686,0.1386 -0.880579,0.2714 -1.334504,0.3201 -0.3292705,0 -0.6585529,0 -0.9878288,0 -0.2790018,0 -0.5657612,0 -0.831607,-0.094 -0.2474504,-0.1098 -0.4459727,-0.273 -0.6268849,-0.4744 -0.1969472,-0.227 -0.3253674,-0.4798 -0.4305459,-0.7607 -0.097595,-0.2654 -0.1017755,-0.5552 -0.2310859,-0.8122 -0.1134028,-0.2966 -0.083508,-0.5394 0.034764,-0.836 0.096115,-0.3088 0.2181342,-0.5871 0.205325,-0.9206 0.048841,-0.3085 0.1387944,-0.6204 0.3438892,-0.8633 0.086046,-0.3065 0.2902802,-0.5494 0.4105732,-0.8353 0.1482071,-0.2419 0.3103598,-0.4506 0.4238253,-0.7115 0.1674765,-0.2364 0.2164575,-0.5429 0.4730613,-0.7199 0.2910904,-0.3217 0.5619823,-0.6623 0.7904982,-1.0318 0.1603929,-0.291 0.3369255,-0.566 0.5122169,-0.8391 0.1256854,-0.2604 0.3465254,-0.46 0.5271124,-0.6838 0.166629,-0.084 0.09113,-0.029 0.226148,-0.1618 0.748399,-0.449 1.513191,-0.8708 2.261531,-1.3199 0.660856,-0.3968 -1.331365,0.7773 -1.999056,1.1623 -0.04478,0.025 0.0868,-0.056 0.130209,-0.084 0.761884,-0.4417 1.523772,-0.8831 2.285656,-1.3247 0.761762,-0.3944 1.855713,-1.0249 -1.610557,0.9601 -0.604884,0.3463 1.098482,-0.7637 0.538529,-0.3535 0.343887,-0.2104 0.633345,-0.5016 1.000954,-0.6774 7.634157,-4.4939 -1.379523,0.7852 0.514727,-0.3273 0.770293,-0.4525 1.54686,-0.8942 2.31662,-1.3475 0.583431,-0.3436 -2.858589,1.6426 -1.75479,1.023 0.96645,-0.7519 1.972179,-1.3501 3.097434,-1.9146 -0.657312,0.3821 -1.313989,0.7656 -1.971935,1.1467 -0.04886,0.027 0.09582,-0.059 0.144665,-0.089 0.758848,-0.441 1.493133,-0.9276 2.278328,-1.3199 0.6972,-0.3483 -1.338558,0.7987 -2.013777,1.1879 -0.07912,0.044 0.310721,-0.2412 0.208303,-0.179 0.249235,-0.2129 0.524505,-0.3963 0.772219,-0.6045 1.002122,-0.6427 1.910912,-1.4521 3.065401,-1.8702 0.04838,-0.022 0.09742,-0.037 0.145147,-0.057 0.03068,-0.022 0.06093,-0.062 0.08984,-0.044 0.347652,0.2039 0.234851,0.2615 0.09481,0.4833 -0.150556,0.2174 -0.468378,0.3006 -0.578915,0.5769 -0.242865,0.1464 -0.43446,0.349 -0.646191,0.5452 -0.926284,0.4346 -2.069404,2.315 -3.002234,1.8842 -0.813451,0.451 -0.204475,0.1155 1.803983,-1.0493 -7.342016,4.0185 0.889118,-0.3405 -0.678275,0.3747 -1.050251,0.6036 -1.859621,1.1706 -2.910936,1.5686 -0.263314,0.1136 -0.519807,0.1175 -0.805064,0.1005 -0.350478,0 -0.703097,0 -1.050851,-0.047 -0.326059,-0.059 -0.637672,-0.1598 -0.914753,-0.3476 -0.271725,-0.1443 -0.508764,-0.316 -0.702783,-0.5603 -0.153443,-0.1998 -0.239205,-0.4277 -0.375348,-0.6389 -0.133731,-0.2216 -0.171115,-0.4903 -0.29387,-0.7215 -0.10412,-0.3105 -0.0341,-0.6478 -0.05202,-0.972 -7.97e-4,-0.3726 0.0015,-0.7452 -0.0015,-1.1178 10e-4,-0.3685 -0.0035,-0.7367 0.0015,-1.1048 0.0057,-0.4498 0.02184,-0.9005 0.07465,-1.3477 0.06739,-0.4269 0.20358,-0.8412 0.250526,-1.2678 0.02949,-0.462 0.114847,-0.9131 0.297661,-1.3416 0.234705,-0.4941 0.504205,-0.9714 0.77111,-1.449 0.284716,-0.4956 0.628365,-0.9464 0.962533,-1.4089 0.290176,-0.328 0.433641,-0.7549 0.762748,-1.0493 0.30759,-0.4025 0.742421,-0.6836 1.100782,-1.0391 0.365159,-0.4268 0.794317,-0.7849 1.191931,-1.1795 0.350526,-0.2714 0.697991,-0.5384 1.021578,-0.8408 1.010331,-0.9027 5.320977,-2.9946 0.874735,-0.5641 1.102656,-0.631 2.20877,-1.3222 3.371323,-1.8565 0.381228,-0.1558 0.767292,-0.2956 1.148875,-0.4489 0.340045,-0.1713 0.67863,-0.3569 1.043725,-0.4696 0.293339,-0.084 0.571546,-0.2321 0.885266,-0.2021 0.248174,5e-4 0.496348,-10e-5 0.744521,0 0.237956,0 0.475949,0 0.713911,0 0.225313,0 0.452398,0.022 0.66491,0.1038 0.271295,0.1213 0.497898,0.2978 0.725705,0.4868 0.212344,0.1655 0.426239,0.342 0.601902,0.5456 0.179066,0.1886 0.357303,0.3742 0.551138,0.5478 0.142915,0.2041 0.295754,0.3943 0.425598,0.6054 0.119313,0.1977 0.17718,0.4296 0.290327,0.6342 0.08823,0.1934 0.06074,0.3892 0.05646,0.6002 -0.01829,0.1905 -0.03609,0.3661 -0.139314,0.5337 -0.09631,0.2188 -0.218831,0.1731 -0.171905,0.484 -0.01367,0.2083 -0.05627,0.3899 -0.160143,0.5753 -0.194437,0.1443 -0.315167,0.3051 -0.487092,0.4685 -0.165531,0.1463 -0.250135,0.3839 -0.445192,0.519 -0.159103,0.1771 -0.311603,0.356 -0.450533,0.5486 -0.180144,0.221 -0.418613,0.3892 -0.607374,0.6009 -0.22872,0.2702 0.03752,-0.022 -0.214348,0.1751 -0.03607,0.027 -0.06202,0.066 -0.09304,0.098 -0.748388,0.4463 -1.496778,0.8926 -2.245167,1.339 -0.640342,0.4261 1.322275,-0.7868 1.989861,-1.1689 0.05116,-0.031 -0.09271,0.071 -0.139083,0.1081 -0.512887,0.3943 -1.042712,0.7627 -1.586346,1.1136 0,0 -2.310488,0.9038 -2.310488,0.9038 z"
       inkscape:connector-curvature="0" />
    <path
       style="fill:#000000"
       id="path3482"
       d="m 54.194323,1032.8462 c -0.755583,-0.129 -1.535691,-0.1675 -2.284268,0.022 -0.09936,0.027 -0.201837,0.044 -0.298008,0.081 -0.169305,0.064 -0.327203,0.1559 -0.485279,0.2444 -0.08087,0.044 -0.316455,0.1937 -0.235596,0.1463 1.848406,-1.035 2.455976,-1.4897 1.638291,-0.8951 -0.488396,0.3862 -0.958892,0.7922 -1.398991,1.2328 -0.34484,0.4004 -0.680598,0.8193 -0.936706,1.2832 -0.166881,0.4079 -0.22399,0.8518 -0.336196,1.2784 -0.127168,0.4956 -0.151827,1.0074 -0.171694,1.516 0.02194,0.3452 -0.06135,0.7099 0.01502,1.0501 0.07246,0.2876 0.205986,0.4011 0.489944,0.4443 0.472275,0.029 0.957589,0.091 1.422561,-0.022 0.959858,-0.2064 3.191155,-1.6198 -0.471112,0.4537 0.63787,-0.3992 1.240252,-0.8507 1.83097,-1.3156 0.47992,-0.3694 0.950059,-0.7513 1.447848,-1.0965 0.406496,-0.2679 0.787092,-0.5706 1.152141,-0.8919 0.180029,-0.2174 0.375248,-0.4259 0.547306,-0.6504 0.186111,-0.2647 0.397341,-0.5101 0.599095,-0.7627 0.323816,-0.7329 3.163422,-1.8303 2.281048,-1.0597 -0.395439,0.3093 -0.635952,0.7615 -0.883895,1.1879 -0.380867,0.4747 -0.648446,1.0049 -0.8853,1.5612 -0.176525,0.5236 -0.295511,1.0627 -0.453255,1.5928 -0.105449,0.3369 -0.156755,0.6849 -0.186265,1.0352 -0.03904,0.239 0.03361,0.4087 0.175427,0.5953 0.197843,0.2479 0.538976,0.321 0.837124,0.26 0.559875,-0.1251 1.091933,-0.3817 1.600273,-0.6451 0.903878,-0.4121 0.733416,-0.3454 -1.539134,0.9121 -0.09318,0.052 0.179797,-0.1154 0.265942,-0.177 0.275626,-0.2001 0.537853,-0.4224 0.808531,-0.6295 0.54663,-0.4222 1.026153,-0.9285 1.49097,-1.438 0.399289,-0.3909 0.686561,-0.858 0.972023,-1.3326 0.18769,-0.3533 0.421272,-0.6782 0.570096,-1.0508 0.110111,-0.2718 -0.01541,-0.5244 -0.09279,-0.7862 -0.09606,-0.3188 -0.212523,-0.6387 -0.34177,-0.9473 -0.136869,-0.2978 -0.412378,-0.5227 -0.698072,-0.6745 -0.319015,-0.154 -0.685886,-0.154 -1.033218,-0.1636 -0.401061,0 -0.802217,0 -1.203295,-6e-4 -0.324849,0.035 -0.68991,-0.073 -0.991389,0.066 -0.835992,0.2846 -1.749763,0.9013 1.710559,-1.0223 0.03696,-0.022 -0.07103,0.046 -0.104336,0.073 -0.07026,0.056 -0.107415,0.1037 -0.168056,0.1751 -0.116463,0.1541 -0.323346,0.3458 -0.283151,0.5539 0.100296,0.2196 0.429993,0.3351 0.652333,0.4165 0.528342,0.1444 1.081056,0.1502 1.624837,0.1637 0.756689,0.05 1.50077,-0.1037 2.249007,-0.1935 1.094936,-0.2127 2.187408,-0.4362 3.272506,-0.6955 2.01221,-0.4889 3.975139,-1.1498 5.909482,-1.8838 2.182074,-0.8801 4.292729,-1.9276 6.414589,-2.942 0,0 -1.881443,1.4989 -1.881443,1.4989 l 0,0 c -2.11849,1.0059 -4.225066,2.0461 -6.406562,2.9104 -1.955307,0.7337 -3.937543,1.3994 -5.969235,1.891 -1.099613,0.2605 -2.204096,0.5073 -3.318474,0.6962 -0.755958,0.094 -1.510145,0.2261 -2.275285,0.1655 -0.567709,-0.022 -1.147507,-0.037 -1.687766,-0.2297 -0.292104,-0.1328 -0.656959,-0.2853 -0.777816,-0.6044 -0.09731,-0.289 -0.01999,-0.5369 0.180471,-0.7735 0.696715,-0.877 1.75519,-1.4312 2.839018,-1.7119 0.340769,-0.027 0.683038,0 1.024615,-0.022 0.402734,0 0.805777,0 1.208242,0.022 0.381693,0.023 0.771185,0.057 1.105042,0.2622 0.315916,0.2064 0.622129,0.455 0.776305,0.8086 0.140526,0.3143 0.254546,0.6492 0.364079,0.972 0.08316,0.2992 0.24394,0.6093 0.155928,0.9217 -0.111075,0.4074 -0.350701,0.7373 -0.556583,1.1006 -0.273411,0.4932 -0.556524,0.98 -0.958509,1.3827 -0.460678,0.5219 -0.944301,1.0318 -1.475359,1.4811 -1.178424,0.9048 -2.332823,1.8307 -3.764791,2.3553 -0.532124,0.251 -1.078546,0.5246 -1.673282,0.5735 -0.37637,-0.027 -0.742018,-0.1425 -0.976412,-0.459 -0.168324,-0.2236 -0.301608,-0.4624 -0.26026,-0.7507 0.01655,-0.369 0.07327,-0.7352 0.169961,-1.0917 0.166341,-0.5361 0.307632,-1.0742 0.450132,-1.6166 0.222299,-0.5675 0.45533,-1.1364 0.871895,-1.5934 0.255678,-0.4375 0.481549,-0.8974 0.830681,-1.2711 0.823158,-0.5408 3.306056,-1.9062 2.314206,-0.8789 -0.127052,0.3056 -0.421927,0.5062 -0.590675,0.7906 -0.174407,0.2462 -0.383156,0.4315 -0.529575,0.6994 -0.366659,0.3285 -0.738209,0.6542 -1.151696,0.9237 -0.498843,0.3452 -0.978498,0.7115 -1.46096,1.0802 -0.572675,0.4876 -1.190052,0.9304 -1.822976,1.3371 -1.16511,0.6911 -2.414331,1.678 -3.81701,1.9371 -0.494395,0.04 -1.000792,0.025 -1.489049,-0.066 -0.330465,-0.1194 -0.528773,-0.321 -0.627133,-0.6629 -0.115079,-0.3584 -0.02593,-0.7524 -0.04109,-1.1243 0.01694,-0.5232 0.03887,-1.0498 0.147014,-1.5631 0.11038,-0.4439 0.21194,-0.8838 0.308974,-1.3291 0.243572,-0.4932 0.58571,-0.9209 0.920363,-1.3561 0.436211,-0.4515 0.895774,-0.8658 1.37993,-1.265 1.076491,-0.836 2.321259,-1.6339 3.65862,-1.988 0.779066,-0.1174 1.561799,-0.079 2.33853,0.046 0,0 -2.02815,1.4301 -2.02815,1.4301 z"
       inkscape:connector-curvature="0" />
    <path
       style="fill:#000000"
       id="path3486"
       d="m 97.276768,1009.9896 c -0.02161,-0.6564 0.04116,-1.3052 0.159582,-1.9499 0.01729,-0.1617 0.143994,-0.4057 -0.01729,-0.532 -0.504394,0.6341 0.542595,-0.2839 1.779782,-0.9363 0.05099,-0.027 -0.0901,0.074 -0.121848,0.1231 -0.1286,0.1947 -0.231002,0.5171 -0.306277,0.7171 -0.7532,2.5393 -1.28283,5.139 -1.868561,7.7203 -0.951349,4.4788 -1.843578,8.9701 -2.73298,13.4615 -0.63289,2.8993 -1.132838,5.8194 -1.58264,8.751 -0.139179,0.8886 -0.277569,1.7778 -0.380943,2.6714 -0.01733,0.1251 -0.02521,0.2504 -0.02425,0.3765 -2.008224,1.0954 -2.02913,1.6434 -2.013076,0.7829 0.01925,0.081 0.07085,0.129 -0.03176,0.025 0,0 1.92031,-1.2016 1.92031,-1.2016 l 0,0 c 0.05929,0.03 0.109148,0.074 0.133596,0.1425 -0.0039,0.8885 -0.406488,0.5352 -2.026725,1.288 -0.0077,-0.1386 -0.0057,-0.2803 0.01925,-0.4177 0.143221,-0.9063 0.296472,-1.8113 0.456923,-2.7148 0.509382,-2.9475 1.021227,-5.8926 1.687805,-8.8106 0.907919,-4.4856 1.820131,-8.9702 2.716365,-13.4582 0.554735,-2.5614 1.051257,-5.138 1.714635,-7.6745 0.302173,-0.9515 1.072419,-3.0379 2.596093,-2.0239 0.183846,0.224 0.186147,0.4567 0.106626,0.7301 -0.143994,0.6283 -0.232136,1.2638 -0.182496,1.9102 0,0 -2.001946,1.0198 -2.001946,1.0198 z"
       inkscape:connector-curvature="0" />
    <path
       style="fill:#000000"
       id="path3488"
       d="m 90.463079,1040.6235 c 0.01733,-0.9356 0.0096,-1.8711 0.0096,-2.8069 -1.73e-4,-0.8009 0.02387,-1.599 -0.07893,-2.3945 -0.126475,-0.7777 -0.264287,-1.5568 -0.418424,-2.3301 -0.177102,-0.7834 -0.268906,-1.582 -0.398269,-2.3741 -0.234525,-1.0071 -0.438405,-2.0204 -0.647289,-3.0328 -0.226306,-1.1253 -0.387604,-2.2624 -0.604477,-3.3889 -0.16074,-0.9908 -0.460255,-1.946 -0.774651,-2.8958 -0.3841,-1.0842 -0.663305,-2.2012 -0.850861,-3.3353 -0.156889,-0.981 -0.377054,-1.9512 -0.631639,-2.9112 -0.224573,-0.7371 -0.336744,-1.4994 -0.392454,-2.266 -0.03927,-0.6736 -0.03811,-1.3484 -0.04409,-2.0227 -0.05428,-0.5074 0.193774,-0.808 0.579144,-1.0937 1.332696,-0.9356 2.441607,-1.4915 3.97204,-1.7127 1.156826,-0.1136 2.323853,-0.1501 3.484567,-0.089 1.393507,0.083 2.783688,0.1848 4.164815,0.3909 1.414659,0.2499 2.808119,0.596 4.192509,0.9766 1.14238,0.2992 2.22712,0.7512 3.31941,1.1891 0.72615,0.2976 1.46182,0.5872 2.04084,1.1317 0.41514,0.57 0.33814,1.2 0.14766,1.8371 -0.5096,1.0902 -1.41434,1.9462 -2.25327,2.7886 -1.3134,1.1956 -2.71346,2.293 -4.08776,3.4176 -1.191854,0.9417 -2.39109,1.8702 -3.516336,2.8918 -0.604323,0.5475 -1.200197,1.1009 -1.763712,1.6906 -0.351125,0.3415 -0.625479,0.7484 -0.911288,1.1433 -0.19,0.228 -0.361731,0.4699 -0.543628,0.7039 -0.08893,0.2136 -0.339131,0.3419 -0.392627,0.5671 0.19,0.3346 0.58205,0.5431 0.881508,0.7718 0.635701,0.4601 1.151742,1.0445 1.668531,1.6284 0.543847,0.6669 0.875674,1.4424 1.169808,2.2413 0.182485,0.6004 0.414762,1.1844 0.546527,1.7991 0.09971,0.5948 0.223385,1.1839 0.297742,1.7829 0.06849,0.7115 0.07184,1.4269 0.07854,2.1411 -0.01966,0.5547 0.07022,1.099 0.273749,1.6133 0.114923,0.3383 0.295615,0.6475 0.434466,0.9749 0.110494,0.209 0.237138,0.3249 0.471553,0.348 0.401928,0.064 0.715208,-0.1617 1.044688,-0.3628 -3.274653,2.0626 -1.075357,0.5586 -0.32931,-0.156 0.57336,-0.5721 1.10404,-1.1914 1.59403,-1.8363 0.24396,-0.3232 0.52564,-0.6313 0.68568,-1.0081 0.0825,-0.2128 0.0825,-0.385 -0.0248,-0.5825 -0.38218,-0.908 -0.10166,-0.2453 1.79004,-1.2172 -0.27907,0.4177 -0.47433,0.8801 -0.667,1.3415 -0.25401,0.5411 -0.34922,1.1241 -0.40672,1.7131 -0.0668,0.4786 0.062,0.9119 0.30167,1.3204 0.20471,0.3552 0.43704,0.7198 0.79094,0.9407 0.23169,0.1016 0.49178,0.04 0.7186,-0.056 0.0845,-0.037 0.3265,-0.1675 0.24624,-0.1232 -0.55832,0.3105 -1.12041,0.6142 -1.68061,0.9213 0.62627,-0.5121 0.8942,-1.2384 1.14658,-1.9772 0.18077,-0.57 0.37671,-1.154 0.31767,-1.7579 -0.0221,-0.3136 -0.15901,-0.5101 -0.37501,-0.7215 -0.22827,-0.1037 -0.40322,-0.2635 -0.56032,-0.456 9.7e-4,0.019 -0.0116,0.057 0.002,0.047 0.66981,-0.3882 1.3201,-0.8092 1.9872,-1.2021 0.0704,-0.042 0.24347,-0.042 0.30113,-0.06 0.0797,-0.025 0.57314,-0.2618 0.60602,-0.2774 0.13533,-0.081 0.54509,-0.317 0.40577,-0.2432 -0.47987,0.2548 -0.93042,0.5674 -1.4279,0.7856 -0.19409,0.084 0.34184,-0.2508 0.50816,-0.3821 0.58042,-0.4583 1.11586,-0.9567 1.64536,-1.472 1.31901,-1.2563 2.38184,-2.7159 3.27704,-4.2942 1.02641,-1.9356 1.78216,-4.0009 2.56763,-6.0426 0.64719,-1.6787 1.28435,-3.3611 1.91066,-5.0478 0.56874,-1.5116 1.08949,-3.0385 1.54258,-4.5887 0.19797,-0.7076 0.36595,-1.424 0.46216,-2.1527 0.26416,0.6966 -0.0734,0.1154 1.88542,-0.8648 0.062,-0.031 -0.0918,0.1037 -0.13533,0.1579 -0.12051,0.1482 -0.17499,0.2342 -0.2872,0.3954 -0.55133,0.7711 -0.87856,1.6667 -1.21558,2.5449 -0.63397,1.6738 -1.26384,3.3474 -1.77075,5.0649 -0.49135,1.8365 -1.00396,3.6665 -1.55802,5.4851 -0.52623,1.6881 -1.06352,3.3731 -1.66648,5.0355 -0.41505,1.1975 -0.82087,2.3963 -1.0498,3.6447 -0.13937,0.7263 -0.0493,1.4524 0.13188,2.1603 0.15534,0.6457 0.34858,1.2787 0.48091,1.9301 0.12031,0.3609 0.20365,0.742 0.3614,1.0891 0.10457,0.2494 0.31301,0.3967 0.49931,0.5749 0.24438,0.2752 0.38592,0.2615 0.71867,0.1968 0.53728,-0.047 1.02014,-0.2992 1.50856,-0.5072 0.70293,-0.3649 1.8662,-0.9968 -1.28942,0.757 -0.42267,0.2349 0.3744,-0.2622 0.46007,-0.324 0.22975,-0.1713 0.45357,-0.3381 0.66053,-0.5357 0.12051,-0.2137 0.34152,-0.3291 0.49356,-0.5094 0.12281,-0.1484 0.17672,-0.3254 0.23413,-0.5047 0,0 2.03022,-0.9669 2.03022,-0.9669 l 0,0 c -0.0463,0.1988 -0.0897,0.399 -0.19077,0.5792 -0.0475,0.069 -0.0756,0.1541 -0.13245,0.2154 -0.10457,0.1155 -0.30881,0.129 -0.35722,0.3045 -0.16787,0.2467 -0.39577,0.4142 -0.64943,0.5732 -0.83696,0.8129 -1.98505,1.2757 -3.0221,1.803 -0.50075,0.2093 -1.00277,0.4221 -1.55182,0.4616 -0.34282,0.019 -0.60187,-0.098 -0.83128,-0.3557 -0.21649,-0.1906 -0.42343,-0.3814 -0.54397,-0.6507 -0.17326,-0.3609 -0.24008,-0.7686 -0.37642,-1.1445 -0.11743,-0.651 -0.31064,-1.2793 -0.47071,-1.92 -0.19058,-0.7373 -0.2991,-1.4947 -0.15959,-2.2534 0.22106,-1.2686 0.64854,-2.4789 1.06446,-3.6945 0.61581,-1.6572 1.15192,-3.3421 1.68071,-5.0288 0.55846,-1.8185 1.07919,-3.6477 1.567,-5.4865 0.49511,-1.7155 1.11359,-3.3882 1.72928,-5.0636 0.32482,-0.8837 0.63524,-1.7874 1.15759,-2.5782 0.50737,-0.7459 2.06721,-2.7704 2.62341,-1.5751 -0.15709,0.7364 -0.26916,1.4835 -0.50564,2.2022 -0.46247,1.5544 -0.97775,3.0898 -1.5486,4.6081 -0.62703,1.6928 -1.27317,3.3786 -1.93028,5.06 -0.79028,2.0456 -1.54928,4.1138 -2.54962,6.0678 -0.87331,1.5953 -1.91798,3.0729 -3.23158,4.3415 -1.44357,1.4512 -3.01362,2.6668 -4.90324,3.5344 -0.27559,0.1154 -0.57205,0.2694 -0.88336,0.2365 -0.0571,0 -0.20945,-0.019 -0.16555,-0.049 1.69979,-1.4368 1.2645,-1.8351 1.84292,-1.2464 0.15054,0.1868 0.34673,0.3038 0.54179,0.4402 0.24208,0.2491 0.41365,0.4992 0.44332,0.8571 0.0776,0.6379 -0.092,1.2497 -0.29125,1.8548 -0.25992,0.7557 -0.48561,1.5201 -1.0869,2.089 -0.63067,0.3811 -2.17156,1.8698 -3.26243,1.3032 -0.35607,-0.2702 -0.61936,-0.6383 -0.83688,-1.026 -0.26174,-0.4436 -0.42482,-0.9244 -0.36261,-1.4464 0.0524,-0.6066 0.12725,-1.2142 0.37716,-1.7763 0.2007,-0.4622 0.36949,-0.9394 0.63837,-1.3687 2.08471,-1.245 1.80021,-1.8991 2.23639,-0.8164 0.13437,0.2531 0.18691,0.4692 0.10972,0.7533 -0.13032,0.4114 -0.39848,0.7523 -0.6799,1.0753 -0.47463,0.6635 -1.02875,1.2761 -1.58433,1.8716 -1.03544,1.0242 -2.122,1.7652 -3.478798,2.4196 -0.375536,0.1972 -0.726214,0.3557 -1.15732,0.2361 -0.272745,-0.096 -0.447182,-0.274 -0.580902,-0.531 -0.133591,-0.3311 -0.320094,-0.6397 -0.430167,-0.9812 -0.213673,-0.5393 -0.320029,-1.1105 -0.299763,-1.6935 -0.0043,-0.7058 -0.0076,-1.4129 -0.07162,-2.1165 -0.06795,-0.5938 -0.192111,-1.1758 -0.294567,-1.7635 -0.117613,-0.6085 -0.341785,-1.1846 -0.517905,-1.7774 -0.27782,-0.7752 -0.594737,-1.5274 -1.124138,-2.1704 -0.509574,-0.5727 -1.025981,-1.1387 -1.65633,-1.5835 -0.366006,-0.2716 -0.804546,-0.5188 -1.004652,-0.9464 -0.03215,-0.3222 0.168439,-0.4491 0.340653,-0.6878 0.154964,-0.2558 0.348179,-0.4815 0.543588,-0.7117 0.295685,-0.3975 0.565187,-0.8191 0.911423,-1.1746 0.570732,-0.6012 1.168625,-1.1693 1.789388,-1.7184 1.13011,-1.0325 2.330264,-1.9755 3.539395,-2.9134 1.367879,-1.1217 2.760139,-2.2167 4.082009,-3.3925 0.82634,-0.8157 1.68962,-1.6544 2.25669,-2.6762 0.19358,-0.539 0.32733,-1.1076 -0.0347,-1.6081 -0.5641,-0.515 -1.27821,-0.7868 -1.97355,-1.0788 -1.07957,-0.4428 -2.16192,-0.8734 -3.29177,-1.1764 -1.37799,-0.3762 -2.764162,-0.7231 -4.174687,-0.956 -1.379339,-0.1945 -2.766956,-0.2951 -4.157595,-0.3693 -1.158306,-0.042 -2.323428,0 -3.474074,0.1368 -0.373108,0.065 -0.486935,0.075 -0.844335,0.179 -0.843257,0.242 -2.570044,1.2035 0.739633,-0.6251 -0.352665,0.2351 -0.713144,0.4147 -0.668734,0.8984 -0.0057,0.6713 -0.0057,1.343 0.02753,2.0136 0.05101,0.7541 0.146303,1.5057 0.367123,2.2315 0.257722,0.9683 0.46393,1.9503 0.626691,2.9387 0.178835,1.1239 0.454903,2.229 0.843527,3.2995 0.316494,0.9594 0.626499,1.922 0.783274,2.9238 0.215429,1.126 0.375034,2.2624 0.600435,3.3868 0.213792,1.0132 0.415439,2.0285 0.665134,3.0339 0.133597,0.7889 0.224805,1.5841 0.395671,2.3665 0.160739,0.7763 0.292296,1.5613 0.430569,2.3414 0.106842,0.8061 0.09452,1.6127 0.08277,2.4253 -2.12e-4,0.9325 -0.0077,1.8651 0.0096,2.7977 0,0 -1.998773,1.0183 -1.998773,1.0183 z"
       inkscape:connector-curvature="0" />
    <path
       style="fill:#000000"
       id="path3490"
       d="m 107.09157,1018.7119 c 2.21499,0.019 4.42581,0.181 6.63679,0.3034 4.63085,0.3427 9.27351,0.4338 13.91296,0.5821 0.82358,0.025 1.64718,0.052 2.47077,0.077 0,0 -1.63222,1.1779 -1.63222,1.1779 l 0,0 c -0.8219,-0.027 -1.64381,-0.054 -2.46572,-0.081 -4.66115,-0.1463 -9.32484,-0.2337 -13.9796,-0.5387 -2.2517,-0.1037 -4.50562,-0.2496 -6.7607,-0.2002 0,0 1.81772,-1.3208 1.81772,-1.3208 z"
       inkscape:connector-curvature="0" />
    <path
       style="fill:#000000"
       id="path3492"
       d="m 113.62742,1040.0682 c 0.97951,-0.8378 2.00062,-1.6248 3.00086,-2.4373 0.95152,-0.7589 1.82456,-1.608 2.61059,-2.5362 0.31934,-0.3941 0.5736,-0.8334 0.87942,-1.2376 0.10896,-0.3131 0.25088,0.048 0.16864,0.081 -0.72784,0.086 -0.75401,0.094 1.82931,-0.966 0.0768,-0.031 -0.0578,0.156 -0.0818,0.2355 -0.11916,0.391 -0.20369,0.7927 -0.29085,1.1914 -0.20227,1.0618 -0.4018,2.1213 -0.51188,3.1972 -0.0997,0.813 -0.0884,1.6155 0.14322,2.4026 0.13803,0.3281 0.32511,0.8178 0.75181,0.7784 0.70932,-0.3279 2.30534,-1.0207 -0.79889,0.5099 -0.13284,0.066 0.23745,-0.1771 0.3519,-0.2713 0.12994,-0.1059 0.25395,-0.2204 0.38093,-0.3304 0.92994,-0.7762 1.6525,-1.7413 2.37955,-2.6997 0.61845,-0.7893 1.19195,-1.6115 1.79012,-2.4159 0.27883,-0.3621 0.49996,-0.7747 0.81102,-1.1112 0.65049,-0.6082 0.15882,-0.1598 2.11962,-1.2509 0.0318,-0.019 0.0724,0 0.10727,-0.019 0.0242,0 0.0453,-0.067 0.0596,-0.046 0.0478,0.069 0.0828,0.1463 0.12416,0.2179 -0.001,0.042 0.01,0.089 -0.004,0.129 -0.0278,0.081 -0.11011,0.129 -0.15881,0.199 -0.13071,0.1868 -0.24502,0.3808 -0.35816,0.5779 -0.29481,0.4996 -0.53775,1.026 -0.79815,1.5435 -0.22915,0.4108 -0.35907,0.8549 -0.4211,1.3183 -0.0514,0.5773 -0.0468,1.1583 -0.0429,1.7373 -0.0173,0.4105 -0.01,0.8007 0.12165,1.1909 0.0795,0.2541 0.27359,0.4247 0.48134,0.5776 0.2091,0.1713 0.44297,0.2077 0.70365,0.2225 0.0556,-0.019 0.11108,-0.03 0.1671,-0.044 0.33041,-0.081 0.86068,-0.3784 0.66632,-0.2691 -1.74925,0.9839 -2.11571,1.2758 -1.2971,0.6706 0.75367,-0.6365 1.34828,-1.4294 1.90147,-2.2393 0.51018,-0.8208 1.02322,-1.6394 1.55779,-2.4444 0.22936,-0.3361 0.44901,-0.6975 0.74733,-0.9786 2.50781,-1.8789 2.33721,-1.1162 1.86554,0.1116 -0.27953,0.8128 -0.48409,1.6476 -0.71896,2.4736 -0.0834,0.5559 -0.50437,1.2039 -0.32329,1.7782 -0.13128,0.2662 0.73958,-0.2989 0.58596,-0.2168 -1.5169,0.8112 -2.17223,1.306 -1.27248,0.6548 0.91476,-0.6896 1.81082,-1.403 2.71231,-2.1096 1.2035,-1.051 2.57202,-1.7947 3.95236,-2.5948 0.5186,-0.3152 0.5927,-0.022 0.64175,0.4801 0.0246,0.6991 -0.0135,1.3946 0.0864,2.089 0.0859,0.4935 0.14553,0.6928 0.66181,0.5063 0.0893,-0.04 0.18056,-0.075 0.26795,-0.1194 0.10242,-0.052 1.34239,-0.7607 0.65508,-0.3723 -2.93583,1.6598 -1.45441,0.8364 -0.80478,0.3575 0.4328,-0.3358 0.84735,-0.6943 1.24795,-1.0677 3.02185,-1.2187 1.90489,-1.1561 1.72044,0.1753 -0.01,0.2909 0.0345,0.5099 0.33645,0.5743 0.75957,-0.158 2.05678,-0.9296 -1.11628,0.7443 -0.0987,0.052 0.18153,-0.1308 0.2687,-0.2 0.0943,-0.076 0.18403,-0.156 0.27593,-0.2351 0.37426,-0.3368 0.64373,-0.763 0.8556,-1.2154 0.0778,-0.1016 0.008,-0.092 -0.0881,-0.2324 -0.0966,-0.1231 -0.10857,-0.2741 -0.11165,-0.4244 0.0879,-0.2125 0.29697,-0.3046 0.44393,-0.4629 0.17671,-0.1059 0.27353,-0.2727 0.4083,-0.4165 0.14553,-0.2061 0.28775,0.023 0.12185,0.156 -0.72248,0.4851 0.1284,-0.091 1.58213,-0.8848 0.0841,-0.046 -0.15766,0.1098 -0.23395,0.1675 -0.28765,0.2191 -0.54568,0.461 -0.80093,0.7163 -0.59032,0.5545 -0.92003,1.2384 -1.11005,2.0126 -0.14861,0.617 -0.10565,1.2091 0.13476,1.792 0.18307,0.3871 0.35791,0.7549 0.66796,1.0536 0.26619,0.2333 0.59984,0.3835 0.93676,0.4859 0.55789,0.1732 1.01041,-0.1016 1.50021,-0.3431 1.25177,-0.7123 -1.09552,0.6237 -1.17049,0.6626 -0.144,0.075 0.26801,-0.1829 0.39831,-0.2797 0.41108,-0.3054 0.76136,-0.6407 1.10561,-1.0179 0.62819,-0.7179 0.94404,-1.568 1.02664,-2.507 -0.0451,-0.9594 -0.37244,-1.8831 -0.78692,-2.741 -0.38391,-0.6187 -0.56579,-1.2691 -1.3952,-1.2174 -0.66342,0.3392 -2.16219,0.9067 0.81581,-0.5065 0.15092,-0.071 -0.26804,0.1992 -0.39754,0.3048 -0.36675,0.2982 -0.37844,0.3265 -0.70279,0.6531 -0.0975,0.1097 -0.19474,0.2175 -0.29211,0.3263 0,0 -2.05059,0.8646 -2.05059,0.8646 l 0,0 c 0.0968,-0.1115 0.19376,-0.2242 0.29065,-0.3363 1.1129,-1.1952 2.55786,-2.2361 4.15546,-2.615 0.87403,0.1212 1.09997,0.727 1.50791,1.4301 0.42971,0.8929 0.76718,1.847 0.84372,2.8413 -0.0499,0.9748 -0.34568,1.875 -0.96942,2.6406 -1.11017,1.3045 -2.58788,2.1321 -4.12432,2.8873 -0.53816,0.2457 -1.03407,0.4352 -1.61837,0.2157 -0.35809,-0.1347 -0.71651,-0.3001 -0.9941,-0.5692 -0.32452,-0.325 -0.50511,-0.7257 -0.69977,-1.1379 -0.26588,-0.6196 -0.34298,-1.2529 -0.19545,-1.9178 0.17345,-0.8012 0.46428,-1.54 1.06507,-2.1234 0.89461,-0.9846 2.06029,-1.7664 3.30343,-2.2326 0.23374,0 0.50114,0.2545 0.18442,0.375 -0.21926,0.1309 -0.19405,0.2864 -0.41483,0.408 -0.27418,0.1974 0.0812,-0.079 -0.15168,0.1694 -0.0891,0.094 -0.26345,0.094 -0.31348,0.2277 -0.12609,-0.035 -0.0458,0.1328 -0.005,0.1961 0.0904,0.1348 0.27172,0.2668 0.18866,0.4401 -0.20885,0.4778 -0.47695,0.936 -0.84035,1.3129 -0.93038,0.8464 -2.06821,1.9109 -3.3681,1.7935 -0.34816,-0.1675 -0.47337,-0.4439 -0.4801,-0.8268 0.004,-0.2274 0.0545,-0.3962 0.1309,-0.6095 0.36523,-1.0197 0.43662,-0.6425 2.25318,-1.4313 -0.40929,0.3835 -0.83638,0.7479 -1.27083,1.1027 -1.21573,0.9342 -2.54806,1.7657 -3.97875,2.3132 -0.59996,0.032 -0.7684,-0.2634 -0.84857,-0.8181 -0.0978,-0.6972 -0.0795,-1.393 -0.0985,-2.0956 -0.0383,-0.4911 0.005,-0.293 -0.39393,-0.1059 3.64334,-2.1179 0.54098,-0.3427 -0.15729,0.3624 -0.89756,0.7034 -1.79138,1.4112 -2.69266,2.1099 -0.98151,0.725 -0.50241,0.3877 -2.54212,1.5731 -0.30058,0.1751 -0.59788,0.1933 -0.81659,-0.1005 -0.22721,-0.626 0.1646,-1.3078 0.2925,-1.9169 0.24341,-0.8229 0.43142,-1.6612 0.69448,-2.4788 0.4922,-1.4259 0.19988,-0.8072 2.35229,-1.9468 0.0308,-0.02 -0.0613,0.032 -0.0918,0.05 -0.34395,0.2228 -0.56129,0.5946 -0.79755,0.922 -0.53647,0.8097 -1.08312,1.613 -1.5737,2.4525 -0.543,0.8258 -1.13595,1.6227 -1.86067,2.3002 -0.99441,0.7987 -2.13964,1.6838 -3.44506,1.7773 -0.29062,-0.04 -0.54711,-0.1347 -0.77395,-0.328 -0.23171,-0.1905 -0.45944,-0.3936 -0.54896,-0.6906 -0.13842,-0.4163 -0.17673,-0.8213 -0.1438,-1.2614 0.002,-0.5859 -0.005,-1.1729 0.0268,-1.7583 0.0472,-0.4872 0.15748,-0.9584 0.38932,-1.3947 0.27767,-0.5086 0.49654,-1.0483 0.79596,-1.5455 0.0495,-0.096 0.39051,-0.7795 0.47689,-0.8178 0.0261,-0.019 0.0517,0.025 0.0778,0.037 0.0401,0.054 0.0862,0.1015 0.12032,0.1598 0.0135,0.023 -0.0532,7e-4 -0.0774,0.019 -0.0302,0.019 -0.1159,0.057 -0.0879,0.042 1.97973,-1.1753 2.40854,-1.4707 1.73637,-1.0125 -0.36013,0.2897 -0.57167,0.7196 -0.8478,1.0846 -0.61514,0.8023 -1.18908,1.6349 -1.81724,2.4274 -0.72202,0.9637 -1.42764,1.945 -2.34815,2.7338 -0.96145,0.8786 -1.62472,1.1873 -2.96629,1.9646 -0.1384,0.081 -0.44116,0.2131 -0.61,0.2474 -0.0832,0.019 -0.1694,0.019 -0.2542,0.019 -0.47654,-0.1482 -0.70641,-0.5553 -0.87587,-1.005 -0.23441,-0.8175 -0.27387,-1.644 -0.16112,-2.4889 0.10241,-1.083 0.30423,-2.1463 0.49673,-3.2161 0.24034,-1.2198 0.39684,-2.8658 2.37932,-2.7567 0.26782,0.073 0.22338,0.2478 0.072,0.3608 -0.33809,0.3967 -0.60094,0.8416 -0.91398,1.2564 -0.77814,0.9507 -1.66114,1.8104 -2.615,2.5845 -0.98702,0.8048 -2.00236,1.5761 -2.9589,2.4176 0,0 -2.08083,0.8399 -2.08083,0.8399 z"
       inkscape:connector-curvature="0" />
    <path
       style="fill:#000000"
       id="path3494"
       d="m 157.78932,1016.7905 c 0.11916,-0.6647 0.38681,-1.2838 0.61344,-1.9151 0.0736,-0.2172 0.13764,-0.4378 0.19058,-0.661 0.15593,0.7048 2.59886,-1.5833 1.77219,-0.6926 -0.58817,0.8474 -0.98701,1.8147 -1.40638,2.7534 -0.62363,1.295 -1.11293,2.6416 -1.57392,4.0006 -0.44167,1.3929 -0.7943,2.8111 -1.20162,4.2137 -0.34165,1.3049 -0.68852,2.6077 -1.0536,3.9061 -0.34936,1.0638 -0.64036,2.1414 -0.89781,3.2303 -0.25933,1.0988 -0.47322,2.2065 -0.69408,3.3134 -0.17132,0.9553 -0.37597,1.9046 -0.57884,2.8536 -0.18346,0.9447 -0.35968,1.8908 -0.5651,2.831 -0.16805,0.7482 -0.24447,1.5111 -0.28356,2.2755 -0.034,0.4372 -0.0192,0.87 0.16691,1.2725 0.26392,0.3657 0.62603,0.3147 1.02829,0.2706 0.70198,-0.046 1.34948,-0.2809 1.94789,-0.6393 -2.98937,1.7491 -1.60121,0.9903 -1.02918,0.4362 0.25547,-0.2473 0.48205,-0.5185 0.70148,-0.7974 0.48913,-0.7187 0.9275,-1.471 1.35417,-2.2281 0.37222,-0.5935 0.62326,-1.2501 0.97551,-1.8542 0.20968,-0.3392 0.4329,-0.6709 0.67734,-0.986 0.21231,-0.255 0.41224,-0.5203 0.59494,-0.7974 0.19776,-0.3287 0.37775,-0.6657 0.53246,-1.0167 0.10565,-0.2734 -0.002,0.052 0.0674,0.019 2.94911,-1.3777 2.25976,-1.4039 1.60484,-0.7571 -0.44652,0.5692 -0.76988,1.2204 -0.99794,1.9041 -0.23118,0.7003 -0.10025,1.3712 0.20622,2.0201 0.35377,0.6175 0.98127,0.7209 1.63266,0.8014 0.38976,0.025 0.78052,0.071 1.1694,0 0.77923,-0.1329 2.20505,-1.0815 -0.92691,0.6832 0.65243,-0.4382 0.87353,-1.1069 0.91485,-1.8561 -0.0399,-0.9061 -0.65782,-1.5864 -1.2765,-2.1866 -0.56907,-0.5236 -1.15542,-1.0238 -1.82608,-1.4117 -0.8308,-0.7207 1.36378,-1.1925 1.92243,-1.4537 0.11493,-0.054 0.25144,0.037 0.37809,0.042 0.14803,0 1.39855,0.019 1.41103,0.019 2.52019,0.044 5.03708,-0.046 7.55465,-0.1463 1.69586,-0.1081 0.85372,-0.052 2.5264,-0.1656 0,0 -1.72365,1.27 -1.72365,1.27 l 0,0 c -1.6703,0.1096 -0.82897,0.057 -2.52404,0.1578 -2.53265,0.096 -5.06486,0.1751 -7.59975,0.1694 -0.28336,0 -0.56673,0 -0.85009,0 -0.2022,-2e-4 -0.40441,0 -0.60659,-7e-4 -0.12167,0 -0.45897,0.087 -0.36468,0.02 1.6474,-1.3422 1.4734,-1.3409 1.76436,-1.1229 0.66094,0.424 1.25075,0.939 1.82812,1.4699 0.65855,0.647 1.30392,1.3798 1.37809,2.3419 -0.0135,0.7935 -0.19283,1.5205 -0.8196,2.0607 -1.81059,1.0283 -2.29967,1.6324 -4.15444,1.3995 -0.72059,-0.1155 -1.37504,-0.305 -1.75248,-0.986 -0.33041,-0.6883 -0.49999,-1.418 -0.27767,-2.1709 0.20741,-0.7139 0.54419,-1.3621 0.93891,-1.9909 0.7161,-0.7913 0.47822,-0.5938 2.3213,-1.4131 0.0884,-0.039 0.17536,0.1992 0.17364,0.2531 -0.001,0.035 -0.0264,0.062 -0.0394,0.093 -0.15805,0.3586 -0.32837,0.7095 -0.52872,1.0464 -0.16305,0.2972 -0.36842,0.5629 -0.57529,0.8257 -0.2634,0.2972 -0.48757,0.6297 -0.69859,0.9651 -0.40452,0.5765 -0.61035,1.2632 -1.00022,1.8506 -0.42173,0.7629 -0.86854,1.5121 -1.33116,2.2511 -0.90892,1.2575 -1.99958,1.9412 -3.46299,2.6485 -0.62936,0.328 -1.30264,0.5281 -2.01505,0.5682 -0.49158,0.022 -0.8982,-0.057 -1.18365,-0.4924 -0.20749,-0.4313 -0.25117,-0.903 -0.20534,-1.3769 0.0381,-0.7774 0.11454,-1.553 0.27848,-2.3151 0.21277,-0.9385 0.39145,-1.8842 0.56868,-2.8298 0.19695,-0.9513 0.41589,-1.8984 0.58587,-2.855 0.22644,-1.1081 0.43521,-2.2192 0.69222,-3.3206 0.25949,-1.0926 0.52865,-2.1805 0.90086,-3.242 0.36465,-1.3012 0.73094,-2.6011 1.06014,-3.912 0.41781,-1.4028 0.76385,-2.8256 1.20097,-4.2232 0.45671,-1.3631 0.93396,-2.7173 1.55785,-4.0154 0.41509,-0.9424 0.81521,-1.9 1.34133,-2.7868 0.49495,-0.7206 1.98842,-2.1744 2.33727,-1.1768 -0.048,0.2368 -0.12994,0.4657 -0.20062,0.6963 -0.21377,0.6243 -0.51247,1.2191 -0.62978,1.8742 0,0 -2.01597,0.9914 -2.01597,0.9914 z"
       inkscape:connector-curvature="0" />
    <path
       style="fill:#000000"
       id="path3512"
       d="m 48.647699,1025.2949 c -0.293163,0.5109 -0.505182,1.0609 -0.75563,1.5916 -0.253499,0.4643 -0.212278,0.1829 -0.248541,0.1977 -2.076207,0.8566 -2.625365,1.6357 -2.063225,0.8777 0.154638,-0.1906 0.268399,-0.4069 0.405588,-0.6113 0.132577,-0.1848 0.166322,-0.4045 0.320571,-0.5744 0.0723,-0.1005 0.125704,-0.2106 0.17793,-0.3207 0,0 2.273693,-1.0553 2.273693,-1.0553 l 0,0 c -0.04443,0.1289 -0.101203,0.2529 -0.163645,0.3742 -0.05642,0.1155 -0.148497,0.1328 -0.204647,0.2278 -0.04281,0.076 -0.03077,0.1694 -0.06262,0.2484 -0.01386,0.035 -0.03767,0.064 -0.0565,0.096 -0.134097,0.2211 -0.279233,0.4058 -0.39749,0.6335 -0.620009,0.752 -3.201818,2.0517 -2.252346,0.9231 0.321858,-0.4825 0.444444,-1.0926 0.764602,-1.583 0,0 2.262264,-1.0233 2.262264,-1.0233 z"
       inkscape:connector-curvature="0" />
  </g>
</svg>
