<?xml version="1.0" encoding="UTF-8" standalone="no"?>
<!-- Created with Inkscape (http://www.inkscape.org/) -->

<svg
   xmlns:dc="http://purl.org/dc/elements/1.1/"
   xmlns:cc="http://creativecommons.org/ns#"
   xmlns:rdf="http://www.w3.org/1999/02/22-rdf-syntax-ns#"
   xmlns:svg="http://www.w3.org/2000/svg"
   xmlns="http://www.w3.org/2000/svg"
   xmlns:sodipodi="http://sodipodi.sourceforge.net/DTD/sodipodi-0.dtd"
   xmlns:inkscape="http://www.inkscape.org/namespaces/inkscape"
   width="177.16534"
   height="53.149605"
   id="svg3624"
   version="1.1"
   inkscape:version="0.48.3.1 r9886"
   sodipodi:docname="New document 16">
  <defs
     id="defs3626" />
  <sodipodi:namedview
     id="base"
     pagecolor="#ffffff"
     bordercolor="#666666"
     borderopacity="1.0"
     inkscape:pageopacity="0.0"
     inkscape:pageshadow="2"
     inkscape:zoom="6.7789782"
     inkscape:cx="85.109558"
     inkscape:cy="24.303686"
     inkscape:document-units="px"
     inkscape:current-layer="layer1"
     showgrid="false"
     units="cm"
     inkscape:window-width="1366"
     inkscape:window-height="744"
     inkscape:window-x="0"
     inkscape:window-y="24"
     inkscape:window-maximized="1" />
  <metadata
     id="metadata3629">
    <rdf:RDF>
      <cc:Work
         rdf:about="">
        <dc:format>image/svg+xml</dc:format>
        <dc:type
           rdf:resource="http://purl.org/dc/dcmitype/StillImage" />
        <dc:title></dc:title>
      </cc:Work>
    </rdf:RDF>
  </metadata>
  <g
     inkscape:label="Layer 1"
     inkscape:groupmode="layer"
     id="layer1"
     transform="translate(0,-999.21127)">
    <path
       style="fill:#000000"
       id="path3716"
       d="m 2.4837662,1021.7596 c 0.9859589,-1.1284 1.9927011,-2.2372 2.9475612,-3.3928 0.7782013,-0.9333 1.4077414,-1.9719 1.8972547,-3.0818 0.058782,-0.1207 0.1311097,-0.3759 0.1907231,-0.4556 0.013941,0.025 0.016447,0.093 0.041852,0.077 3.2006478,-1.8686 1.4758816,-1.808 2.8376478,-1.3118 0.294258,0.1062 0.600345,0.179 0.900619,0.2677 1.842333,0.4785 3.743621,0.5189 5.632275,0.4234 2.398616,-0.1978 4.75989,-0.7046 7.062933,-1.3913 0.34771,-0.1165 0.919975,-0.2989 1.279713,-0.4423 0.119122,-0.046 0.460748,-0.2233 0.350188,-0.1602 -2.86938,1.6859 -2.067299,0.3738 -2.14806,1.5765 -1.187806,0.6708 1.002518,-0.5964 1.521908,-0.8612 0.203315,-0.1017 -0.381259,0.2515 -0.563225,0.3888 -0.638828,0.4836 -1.135688,1.0152 -1.624808,1.6448 -1.184387,1.9364 -0.739237,3.3565 0.0956,5.316 0.697238,1.4745 1.628623,2.8212 2.374539,4.2697 0.478504,0.9294 0.532109,1.1266 0.911656,2.0769 0.389372,1.1845 0.763189,2.4841 0.322076,3.716 -0.286592,0.8003 -0.575884,1.0434 -1.106121,1.7078 -0.305574,0.271 -0.594243,0.5624 -0.916723,0.8132 -2.133751,1.6592 -5.010949,3.1813 -7.671189,3.8927 -0.535342,0.1436 -1.084132,0.2302 -1.626198,0.3453 -2.188014,0.2369 -4.651495,0.5572 -6.7131645,-0.4485 -0.2895282,-0.1416 -0.5478767,-0.339 -0.8218186,-0.5085 -0.9918805,-0.896 -1.126775,-1.6652 -1.0504817,-2.9375 0,0 2.3853771,-1.1911 2.3853771,-1.1911 l 0,0 c -0.123181,1.1777 -0.040753,1.8579 0.8882817,2.6928 0.261307,0.1582 0.507955,0.3428 0.783919,0.4731 2.02621,0.9575 4.440769,0.6176 6.574902,0.3636 1.505805,-0.344 1.717963,-0.3338 3.155995,-0.8943 0.490804,-0.1915 0.921299,-0.5854 1.445301,-0.6396 0.358165,-0.038 -1.198672,0.7978 -0.908822,0.584 2.605861,-1.9205 -0.222708,0.3822 2.050396,-1.5149 0.521624,-0.602 0.830719,-0.8547 1.136902,-1.5888 0.489494,-1.1737 0.141955,-2.4356 -0.22692,-3.5838 -0.366726,-0.9462 -0.41095,-1.1296 -0.882947,-2.0539 -0.744849,-1.4587 -1.682956,-2.8108 -2.393283,-4.2881 -0.880174,-2.0066 -1.386212,-3.5089 -0.250614,-5.5481 0.156483,-0.2208 0.296591,-0.4535 0.469433,-0.6614 1.228047,-1.4776 3.14463,-2.4216 4.802689,-3.223 0.116977,0.071 0.249012,0.1186 0.350934,0.2095 0.02724,0.023 0.03913,0.091 0.0081,0.1103 -1.449538,0.9015 -2.536139,1.5692 -4.099283,1.9786 -2.314811,0.6473 -4.677725,1.1462 -7.078823,1.3258 -1.924469,0.083 -3.862025,0.034 -5.7379303,-0.4544 -0.4287156,-0.1186 -0.5463337,-0.1456 -0.9412735,-0.2749 -0.083088,-0.027 -0.1629983,-0.065 -0.247454,-0.085 -0.04854,-0.023 -0.1895365,0.023 -0.1495302,-0.023 2.13996,-1.6252 1.734455,-2.276 2.214266,-1.4287 0.06234,0.1915 -0.126031,0.4098 -0.163955,0.5836 -0.5064907,1.1335 -1.1339167,2.2088 -1.9220439,3.1717 -0.9337421,1.1473 -1.9220343,2.2461 -2.8894018,3.3643 0,0 -2.4990945,1.0678 -2.4990945,1.0678 z"
       inkscape:connector-curvature="0" />
    <path
       style="fill:#000000"
       id="path3718"
       d="m 16.964847,1024.0644 c 2.337932,0.1602 4.67559,0.1727 7.017659,0.091 1.593157,-0.04 3.180057,-0.1915 4.766955,-0.3262 0,0 -2.080763,1.538 -2.080763,1.538 l 0,0 c -1.585576,0.129 -3.171306,0.2645 -4.762128,0.3075 -2.38133,0.081 -4.758027,0.057 -7.138246,-0.023 0,0 2.196523,-1.5962 2.196523,-1.5962 z"
       inkscape:connector-curvature="0" />
    <path
       style="fill:#000000"
       id="path3732"
       d="m 147.60484,1029.6713 c 2.40445,-0.2907 4.67383,-1.1736 6.88789,-2.1106 1.23324,-0.5812 2.09653,-0.949 3.26695,-1.6592 0.1226,-0.075 -0.51166,0.2405 -0.40474,0.1458 0.43663,-0.3897 0.9581,-0.6741 1.41166,-1.0437 1.19232,-0.972 1.22431,-1.1075 2.19324,-2.2394 1.02581,-1.4467 1.8653,-3.1774 1.48943,-4.9993 -0.0485,-0.2351 -0.14799,-0.4566 -0.22189,-0.685 -0.39609,-0.9052 -1.07768,-1.6394 -2.14006,-1.3142 -0.21974,0.067 -0.42186,0.1832 -0.63279,0.2737 0.42384,-0.2204 0.80205,-0.7498 1.27153,-0.6613 0.37027,0.071 -0.58957,0.4719 -0.8546,0.7397 -1.45152,1.4668 -2.38632,3.2174 -3.26701,5.0563 -0.98183,2.3408 -1.71398,4.8951 -1.48188,7.4625 0.0343,0.3789 0.12489,0.7505 0.18712,1.1258 0.35496,1.4457 1.20279,2.6512 2.73117,2.9658 0.27567,0.056 0.55983,0.059 0.83974,0.089 1.99565,-0.077 3.87202,-0.8369 5.75646,-1.4293 1.45663,-0.3911 2.4806,-0.5047 3.89946,0.021 0.78742,0.3272 1.39526,0.9422 2.13007,1.3578 0.2958,0.1229 0.51302,0.071 0.79156,-0.048 0,0 -1.92497,1.4799 -1.92497,1.4799 l 0,0 c -0.32397,0.048 -0.59881,0.05 -0.89774,-0.1145 -0.70489,-0.4311 -1.30944,-1.0243 -2.08797,-1.3298 -1.36719,-0.4569 -2.39439,-0.3066 -3.77555,0.079 -1.89999,0.5965 -3.80369,1.3518 -5.82249,1.3523 -0.29092,-0.041 -0.58756,-0.054 -0.87278,-0.1249 -1.58349,-0.394 -2.4624,-1.6872 -2.8299,-3.2023 -0.0623,-0.3874 -0.15215,-0.7712 -0.18649,-1.1619 -0.22913,-2.6012 0.49467,-5.1926 1.4681,-7.5748 0.68944,-1.4878 1.35155,-2.7871 2.34602,-4.1001 0.37427,-0.4941 1.10346,-1.4134 1.653,-1.7822 0.90246,-0.6057 1.86802,-1.1118 2.80205,-1.6675 0.22727,-0.077 0.44654,-0.1832 0.68184,-0.2307 1.14857,-0.2287 1.88531,0.6453 2.30035,1.5959 0.0787,0.2439 0.184,0.481 0.23625,0.7321 0.39293,1.8851 -0.42037,3.6856 -1.47271,5.2004 -0.32585,0.3909 -0.62581,0.8049 -0.97754,1.1726 -2.53826,2.654 -6.12457,4.3464 -9.39076,5.931 -2.26884,0.9485 -4.58988,1.8311 -7.04522,2.1462 0,0 1.94316,-1.4449 1.94316,-1.4449 z"
       inkscape:connector-curvature="0" />
    <path
       style="fill:#000000"
       id="path3734"
       d="m 168.67741,1026.6757 c 0.64736,-0.9667 1.29696,-1.9319 1.94729,-2.8964 0,0 2.14422,-0.9378 2.14422,-0.9378 l 0,0 c -0.63026,0.9459 -1.2517,1.8973 -1.87632,2.8465 0,0 -2.21519,0.9877 -2.21519,0.9877 z"
       inkscape:connector-curvature="0" />
    <path
       style="fill:#000000"
       id="path3740"
       d="m 23.854123,1032.3802 c 1.953376,1.0649 4.175567,1.0838 6.339162,1.0373 3.506163,-0.287 6.754648,-1.5925 9.817096,-3.2505 -0.352079,0.177 -0.842393,0.8626 -1.056203,0.5316 -0.213199,-0.3303 0.635649,-0.4633 0.938656,-0.7135 0.358212,-0.2961 1.163277,-0.8986 1.155736,-1.4718 -0.0011,-0.087 -0.0766,-0.1582 -0.114875,-0.2367 -0.111149,-0.037 -0.217673,-0.094 -0.333371,-0.1103 -0.612555,-0.096 -1.322931,0.035 -1.89153,0.2583 -0.26317,0.1041 -1.001453,0.5232 -0.759244,0.3776 0.501547,-0.3016 1.02565,-0.5641 1.538467,-0.8461 -1.140535,0.8937 -2.383216,2.0887 -2.488052,3.6394 -0.01519,0.236 0.04388,0.4712 0.06576,0.7068 0.525883,1.342 1.826157,2.054 3.24181,2.1085 0.349789,0.021 0.698276,-0.05 1.047407,-0.077 0,0 -2.167898,1.5917 -2.167898,1.5917 l 0,0 c -0.363619,0.021 -0.72817,0.061 -1.090857,0.031 -1.532417,-0.1186 -2.870089,-0.955 -3.443263,-2.3936 -0.0322,-0.2612 -0.104718,-0.5202 -0.09641,-0.7833 0.05049,-1.6056 1.263622,-2.878 2.409259,-3.8482 1.122338,-0.6571 4.0872,-2.9421 5.936114,-2.2847 0.160293,0.058 0.290874,0.1769 0.436312,0.2643 0.06422,0.1331 0.173988,0.2556 0.192762,0.4033 0.0532,0.4197 -0.225737,0.7562 -0.481283,1.041 -1.368308,1.5248 -3.444348,2.3982 -5.089871,3.4595 -3.098338,1.6254 -6.375019,2.9091 -9.901501,3.1589 -2.233745,0.04 -4.494755,-0.031 -6.523486,-1.0872 0,0 2.319351,-1.5078 2.319351,-1.5078 z"
       inkscape:connector-curvature="0" />
    <path
       style="fill:#000000"
       id="path3742"
       d="m 52.134407,1029.1125 c -1.709899,-0.2924 -3.348731,0.213 -4.910192,0.8632 -0.301329,0.1519 -1.18644,0.6405 -0.903988,0.4559 0.469879,-0.3073 0.956653,-0.5941 1.468419,-0.8249 0.274725,-0.1228 -0.51058,0.3213 -0.752111,0.5016 -0.216131,0.1603 -0.422569,0.3363 -0.618739,0.5213 -0.43216,0.4075 -0.494602,0.5369 -0.826414,0.9974 -0.522933,1.0463 -0.256901,1.5903 0.735758,2.1013 1.819379,0.5185 3.468278,-0.3175 5.039821,-1.1541 -0.360162,0.1727 -1.233005,0.8848 -1.080484,0.5159 0.204752,-0.4951 0.860099,-0.6398 1.272925,-0.9811 0.452714,-0.3747 0.892227,-0.7652 1.322287,-1.1656 1.453439,-1.3528 2.738242,-2.8385 4.027114,-4.3449 2.338227,-2.772 4.337745,-5.7982 6.206382,-8.8996 0.501498,-0.8776 1.0195,-1.7496 1.446848,-2.6671 0.401506,0.9053 -0.06777,-0.073 2.448232,-1.0404 0.10083,-0.039 -0.123867,0.1769 -0.177506,0.2712 -0.09625,0.1686 -0.178651,0.3443 -0.271388,0.5146 -0.135211,0.2483 -0.275134,0.4944 -0.412707,0.7414 -0.174447,0.322 -0.348894,0.6438 -0.523357,0.9656 -1.568527,2.7743 -3.178976,5.5247 -4.731102,8.3087 -1.215247,2.2528 -2.379303,4.3729 -2.452843,6.9797 0.260187,1.4672 0.826025,1.8571 2.278532,1.7664 0.237379,-0.048 0.481128,-0.069 0.712138,-0.1416 0.650036,-0.204 2.33433,-1.1392 1.558514,-0.7547 -0.496449,0.246 -0.924186,0.6998 -1.473992,0.7685 -0.34581,0.041 0.539367,-0.4426 0.791406,-0.6832 0.24902,-0.2377 0.473214,-0.5002 0.709831,-0.7503 0.561992,-0.7816 1.735283,-2.1217 1.431564,-3.203 -0.0344,-0.1228 -0.12574,-0.221 -0.188703,-0.3318 -0.107425,-0.061 -0.204211,-0.1456 -0.322121,-0.1831 -0.528576,-0.1645 -1.081842,0.075 -1.545534,0.304 -0.204752,0.1017 -0.800048,0.4418 -0.597627,0.3358 0.587647,-0.3076 1.168971,-0.6273 1.753447,-0.941 -1.093549,0.93 -1.73518,2.1564 -1.816073,3.5818 0.08946,1.3698 0.838055,1.811 2.054436,2.154 1.595674,0.2525 3.023424,-0.4044 4.407745,-1.1079 -0.509632,0.2886 -0.993338,0.6288 -1.528878,0.8659 -0.2732,0.1207 0.495143,-0.3351 0.734318,-0.5142 0.776293,-0.5811 1.477248,-1.2528 2.16663,-1.9321 1.116424,-1.1738 2.379894,-2.309 4.045533,-2.6522 0.984304,-0.096 1.976116,-0.063 2.963659,-0.061 0.98644,0.031 1.944397,0.2403 2.881698,0.5366 0.493126,0.2479 0.537148,0.6232 0.269624,1.0686 -0.294025,0.4717 -0.656981,0.9224 -0.834258,1.4545 -0.0085,0.6243 0.57231,1.0497 1.054355,1.3428 0.829361,0.4031 1.728909,0.5081 2.626814,0.3369 0.891719,-0.3688 2.621986,-1.4035 -1.259726,0.742 0,0 2.561576,-1.0254 2.561576,-1.0254 l 0,0 c -1.134368,0.6901 -2.202261,1.5875 -3.503198,1.9332 -0.949958,0.1061 -1.896781,-0.031 -2.745885,-0.4946 -0.58746,-0.3911 -1.1617,-0.8911 -1.237697,-1.6372 0.112689,-0.5843 0.500396,-1.0408 0.790338,-1.548 0.241768,-0.2775 0.423076,-0.4394 -0.01353,-0.6141 -0.909663,-0.2953 -1.845879,-0.4758 -2.805835,-0.4862 -0.979934,0 -1.977287,-0.044 -2.943682,0.1416 -1.019261,0.3732 -0.525984,0.2112 1.849134,-1.1605 0.08099,-0.045 -0.152508,0.1083 -0.225925,0.1666 -0.345199,0.2716 -0.629888,0.6009 -0.940842,0.9097 -1.796876,1.7729 -3.660023,3.2656 -6.018447,4.3178 -1.435292,0.698 -2.929619,1.3065 -4.554725,0.9602 -1.306189,-0.4257 -2.107813,-1.0028 -2.235983,-2.4646 0.04118,-1.5684 0.610181,-2.7049 1.723065,-3.8116 0.969985,-0.5905 1.931704,-1.1947 2.909995,-1.7715 0.86066,-0.5073 1.900289,-0.858 2.726636,-0.1228 0.07931,0.1457 0.189787,0.277 0.23809,0.4352 0.379665,1.2425 -0.765481,2.5074 -1.385829,3.4334 -1.63712,1.8092 -2.020733,1.8759 -4.619859,3.3983 -0.733049,0.4294 -1.519118,0.7469 -2.371304,0.8152 -1.640577,-0.042 -2.178202,-0.5319 -2.491493,-2.1512 0.0069,-0.2825 -0.0085,-0.5666 0.02119,-0.8476 0.235684,-2.2673 1.437272,-4.3071 2.462161,-6.2893 1.540129,-2.7684 3.133819,-5.5064 4.671728,-8.2761 0.291738,-0.5623 0.598964,-1.1164 0.889399,-1.6793 0.387881,-0.7518 1.892731,-4.3 3.035453,-2.0295 -0.452562,0.9485 -1.028515,1.8343 -1.550007,2.7447 -1.908879,3.1089 -3.919175,6.1611 -6.258302,8.9676 -2.943629,3.478 -5.848796,6.5796 -10.006165,8.6562 -1.649999,0.8418 -3.394819,1.6421 -5.256898,0.983 -1.074554,-0.6247 -1.447424,-1.2978 -0.945944,-2.5084 1.448694,-2.1858 3.969334,-3.281 6.256963,-4.4082 1.624056,-0.6315 3.327872,-1.1047 5.081079,-0.7649 0,0 -2.285207,1.5653 -2.285207,1.5653 z"
       inkscape:connector-curvature="0" />
    <path
       style="fill:#000000"
       id="path3744"
       d="m 82.103984,1028.7493 c -0.0033,-0.7305 0.08574,-1.4575 0.162498,-2.1828 0,0 2.461212,-1.2194 2.461212,-1.2194 l 0,0 c -0.0854,0.7109 -0.18989,1.4269 -0.154714,2.1444 0,0 -2.468957,1.2578 -2.468957,1.2578 z"
       inkscape:connector-curvature="0" />
    <path
       style="fill:#000000"
       id="path3746"
       d="m 92.430762,1028.878 c -1.655557,-0.067 -3.255703,0.3486 -4.807491,0.8775 0.542284,-0.4795 -2.238152,1.094 -1.706185,0.7684 0.524238,-0.3209 1.051795,-0.6404 1.606551,-0.9049 0.215014,-0.1041 -0.395084,0.267 -0.581224,0.4156 -0.44729,0.3574 -0.416653,0.3662 -0.732403,0.7847 -0.482993,1.0785 0.399675,1.3148 1.254016,1.6057 1.651031,0.4166 3.358032,0.4131 5.046477,0.3359 1.236715,-0.069 2.475261,-0.083 3.675764,-0.4132 0.954991,-0.3087 2.055962,-1.0775 -1.938719,1.17 -0.0033,0 0.09438,-0.057 0.09319,-0.081 -0.0016,-0.05 -0.02321,-0.098 -0.03491,-0.1458 -0.302329,-0.8034 0.03355,-1.3839 0.522357,-2.0238 1.862961,-1.8646 4.268881,-2.8988 6.807685,-3.3888 0.91902,-0.071 2.35824,-0.2807 2.95389,0.6692 0.0822,0.1312 0.10845,0.2895 0.16267,0.4342 -0.007,0.1581 0.0152,0.3206 -0.0195,0.4752 -0.3484,1.53 -3.36305,2.6938 -4.16584,3.1347 -0.48142,0.1727 -1.531611,0.2264 -1.34083,-0.6144 0.03474,-0.1521 0.135045,-0.2828 0.202608,-0.4243 1.080162,-1.2474 2.548012,-2.092 3.926862,-2.9693 0.80838,-0.5079 1.63246,-0.9898 2.45037,-1.4818 0,0 2.52565,-0.975 2.52565,-0.975 l 0,0 c -0.81994,0.4941 -1.64823,0.9742 -2.46158,1.4793 -1.35923,0.8613 -2.76953,1.6941 -3.91902,2.8333 -0.76758,0.9343 0.21799,0.595 0.77356,0.4483 -0.63232,0.3857 -1.26353,0.7731 -1.89695,1.1569 -0.15385,0.093 0.31145,-0.1812 0.45821,-0.2852 0.50307,-0.3566 0.97105,-0.8068 1.05095,-1.4441 -0.0336,-0.1103 -0.0405,-0.2315 -0.10047,-0.3295 -0.52082,-0.8501 -1.9879,-0.5255 -2.759448,-0.4721 -0.70968,0.1499 -1.042018,0.1977 -1.73323,0.4363 -0.284368,0.098 -1.067539,0.5276 -0.838089,0.3334 0.468033,-0.3963 1.036817,-0.6568 1.57246,-0.9556 0.22272,-0.1227 -0.429502,0.2763 -0.632076,0.4311 -0.173739,0.1312 -0.329913,0.2872 -0.494873,0.4309 -0.466183,0.5533 -0.900919,1.0247 -0.601132,1.7684 0.01686,0.05 0.113876,0.3389 0.116748,0.3844 0.06625,1.0355 -1.875247,1.4048 -2.879799,1.6862 -1.203386,0.2608 -2.434764,0.2618 -3.659685,0.3328 -1.717963,0.061 -3.460853,0.05 -5.132491,-0.403 -1.029938,-0.3823 -1.900678,-0.773 -1.505458,-2.0396 0.341184,-0.5422 0.744284,-0.983 1.301816,-1.3227 1.550567,-0.9445 3.049469,-1.9062 4.762891,-2.4946 1.594402,-0.515 3.230914,-0.8877 4.918443,-0.8516 0,0 -2.241761,1.6288 -2.241761,1.6288 z"
       inkscape:connector-curvature="0" />
    <path
       style="fill:#000000"
       id="path3748"
       d="m 127.90715,1011.2124 c 2.06737,0.6067 4.10392,1.3631 6.00603,2.3836 0.51295,0.2753 1.0039,0.5899 1.50587,0.8846 1.79154,1.2224 3.51436,2.6447 4.4432,4.6602 0.61357,1.3315 0.52968,1.6041 0.70482,3.0551 -0.0395,0.576 -0.0241,1.1584 -0.11843,1.728 -0.42192,2.5425 -1.7571,4.9884 -3.32382,7.0006 -0.38518,0.4945 -0.82545,0.9437 -1.2382,1.4156 -1.0845,0.9483 -1.40625,1.3413 -2.66523,2.0192 -2.21249,1.1916 -2.99193,1.9905 -5.13653,1.9901 -1.39463,-7e-4 -1.64325,-0.2169 -2.94108,-0.6818 -2.02886,-1.0927 -3.45932,-2.8528 -4.03328,-5.1056 -0.40102,-1.5739 -0.26808,-2.2441 -0.22567,-3.8629 0.62038,-4.1223 2.68741,-7.7954 5.46418,-10.8639 0.63131,-0.6975 1.33188,-1.3292 1.99783,-1.9938 0.73903,-0.6015 1.44803,-1.242 2.21716,-1.8044 0.75555,-0.5526 1.53898,-1.0701 2.35067,-1.5364 2.77026,-1.5915 4.22478,-2.5325 7.04278,-3.264 2.16584,-0.5623 2.42982,-0.4397 4.59445,-0.4663 0.68182,0.1041 1.37476,0.1499 2.04543,0.3085 2.14862,0.5128 4.29687,1.7528 5.43242,3.7089 0.23503,0.4048 0.36367,0.863 0.54548,1.2943 0.0735,0.4387 0.19857,0.8718 0.22009,1.3165 0.087,1.7933 -0.71928,3.5403 -1.92958,4.8281 -0.32591,0.3465 -0.7099,0.6338 -1.06484,0.9506 -2.34951,1.5669 -0.7886,0.5744 -4.79648,2.7906 0,0 2.06559,-1.6552 2.06559,-1.6552 l 0,0 c -1.35315,0.9057 -1.27445,0.8411 0.27249,-0.1373 0.35923,-0.3016 0.74638,-0.5726 1.07773,-0.9047 1.20823,-1.2103 2.06046,-2.884 2.01981,-4.6254 -0.0104,-0.4258 -0.12259,-0.8427 -0.18379,-1.2644 -0.16818,-0.4138 -0.28312,-0.8532 -0.50403,-1.2414 -1.08354,-1.9037 -3.19015,-3.0928 -5.26959,-3.5701 -0.65885,-0.1499 -1.3387,-0.1894 -2.00806,-0.2837 -2.12068,0.05 -2.39622,-0.069 -4.51601,0.5056 -0.82359,0.2227 -1.60255,0.5897 -2.4208,0.8313 -0.0923,0.027 -0.20274,-0.077 -0.28681,-0.031 -2.10039,1.1737 -2.71298,1.7923 -4.58782,3.2928 -0.66761,0.6561 -1.36987,1.2785 -2.00282,1.968 -2.7586,3.0049 -4.81983,6.6192 -5.46015,10.6767 -0.0503,1.5721 -0.18533,2.2344 0.20011,3.7628 0.55145,2.1863 1.94256,3.8752 3.9318,4.8953 1.26716,0.4164 1.52306,0.6245 2.87536,0.5797 0.482,-0.02 1.08622,-0.5461 1.43152,-0.2096 0.27529,0.2685 -1.25041,0.8208 -0.87146,0.7556 0.63856,-0.1103 2.30133,-1.6117 2.71862,-1.9605 0.41968,-0.4642 0.86758,-0.9042 1.25903,-1.3927 1.56926,-1.9574 2.91696,-4.3638 3.3581,-6.8606 0.0976,-0.5525 0.0862,-1.1189 0.12926,-1.6781 -0.15569,-1.4042 -0.0706,-1.666 -0.65803,-2.958 -0.89907,-1.9765 -2.59688,-3.3672 -4.35277,-4.555 -2.4152,-1.3934 -4.84778,-2.5151 -7.58335,-3.1204 0,0 2.26885,-1.5739 2.26885,-1.5739 z"
       inkscape:connector-curvature="0" />
    <path
       style="fill:#000000"
       id="path3750"
       d="m 140.05583,1033.6233 c -1.13858,-0.4904 -1.84382,-1.0308 -2.27775,-2.2162 -0.21504,-1.1658 0.426,-2.0676 1.43794,-2.6097 1.03956,-0.557 2.10335,-1.0673 3.15504,-1.601 1.51301,-0.2359 3.12125,-0.1624 4.51256,0.5428 0.22471,0.1145 0.42549,0.2702 0.63823,0.4053 0.85169,0.7031 1.06391,1.7313 0.32094,2.6205 -0.15381,0.1853 -0.35337,0.3246 -0.53004,0.4867 -1.73143,1.08 -3.43959,2.4336 -5.55811,2.0789 0,0 2.24617,-1.5858 2.24617,-1.5858 l 0,0 c 0.48271,0.05 0.54853,0.087 1.06491,0 0.93534,-0.1665 3.19948,-1.4051 -0.28256,0.5333 1.08765,-0.8195 1.62047,-1.5861 0.44829,-2.6522 -1.58779,-0.9702 -3.18522,-1.1445 -5.0007,-0.7598 0.5077,-0.3492 1.03593,-0.6704 1.52312,-1.0476 0.19816,-0.154 -0.44818,0.2286 -0.65276,0.3735 -0.65724,0.4653 -1.03481,1.0781 -0.91892,1.8917 0.37033,1.1185 1.09605,1.5905 2.1691,1.9873 0,0 -2.29546,1.5572 -2.29546,1.5572 z"
       inkscape:connector-curvature="0" />
  </g>
</svg>
