<?xml version="1.0" encoding="UTF-8" standalone="no"?>
<!-- Created with Inkscape (http://www.inkscape.org/) -->

<svg
   xmlns:dc="http://purl.org/dc/elements/1.1/"
   xmlns:cc="http://creativecommons.org/ns#"
   xmlns:rdf="http://www.w3.org/1999/02/22-rdf-syntax-ns#"
   xmlns:svg="http://www.w3.org/2000/svg"
   xmlns="http://www.w3.org/2000/svg"
   xmlns:sodipodi="http://sodipodi.sourceforge.net/DTD/sodipodi-0.dtd"
   xmlns:inkscape="http://www.inkscape.org/namespaces/inkscape"
   width="177.16534"
   height="53.149605"
   id="svg2"
   version="1.1"
   inkscape:version="0.48.3.1 r9886"
   sodipodi:docname="New document 1">
  <defs
     id="defs4" />
  <sodipodi:namedview
     id="base"
     pagecolor="#ffffff"
     bordercolor="#666666"
     borderopacity="1.0"
     inkscape:pageopacity="0.0"
     inkscape:pageshadow="2"
     inkscape:zoom="6.5814226"
     inkscape:cx="88.582672"
     inkscape:cy="26.574802"
     inkscape:document-units="px"
     inkscape:current-layer="layer1"
     showgrid="false"
     units="cm"
     inkscape:window-width="1366"
     inkscape:window-height="744"
     inkscape:window-x="0"
     inkscape:window-y="24"
     inkscape:window-maximized="1" />
  <metadata
     id="metadata7">
    <rdf:RDF>
      <cc:Work
         rdf:about="">
        <dc:format>image/svg+xml</dc:format>
        <dc:type
           rdf:resource="http://purl.org/dc/dcmitype/StillImage" />
        <dc:title></dc:title>
      </cc:Work>
    </rdf:RDF>
  </metadata>
  <g
     inkscape:label="Layer 1"
     inkscape:groupmode="layer"
     id="layer1"
     transform="translate(0,-999.21127)">
    <path
       style="fill:#000000"
       id="path2985"
       d="m 4.0770521,1032.2568 c 1.5937189,-0.6481 3.0761139,-1.5664 4.5713285,-2.443 0.3702434,-0.2282 0.7424914,-0.4526 1.110729,-0.6847 0.1954545,-0.1232 -0.7764766,0.5007 -0.5923341,0.358 0.3663319,-0.2841 0.7631065,-0.5174 1.1406155,-0.7831 1.115576,-0.7852 2.205479,-1.6126 3.294243,-2.4416 2.212314,-1.6404 4.053125,-3.77 5.843265,-5.9241 2.219832,-2.699 4.218366,-5.6003 6.105439,-8.5862 1.161643,-1.8081 2.2061,-3.6982 3.190481,-5.6277 0.135282,-0.3388 0.669697,-1.1249 0.206009,-1.41 -0.503273,-0.129 -1.043319,-0.147 -1.554133,-0.067 -0.106204,0.032 -0.214445,0.058 -0.318637,0.097 -0.239351,0.09 -0.898998,0.512 -0.678329,0.3756 2.426966,-1.5007 1.347564,-0.8772 0.57904,-0.172 -1.192715,1.2153 -2.189004,2.6326 -3.159086,4.0608 -1.174214,1.6517 -2.136127,3.4392 -2.914919,5.3487 -0.71374,1.7198 -1.172191,3.5242 -1.419353,5.3899 -0.189715,1.4988 -0.139457,3.0121 0.01545,4.5106 0.116205,1.1114 0.300448,2.2126 0.741662,3.2256 0.481514,0.9094 1.350857,1.1036 2.229428,1.2362 1.448635,0.068 2.823291,-0.5622 4.118089,-1.2089 0.237836,-0.1434 0.951947,-0.572 0.713515,-0.4299 -0.364483,0.2172 -0.695635,0.5206 -1.091675,0.6552 -0.252684,0.086 0.437492,-0.3277 0.647628,-0.5044 0.592022,-0.4978 1.114167,-1.0669 1.62872,-1.6568 0.565021,-0.7373 1.099998,-1.5246 1.463354,-2.407 0.189573,-0.4251 0.129118,-0.8334 0.03657,-1.2729 -0.04471,-0.028 -0.03023,-0.3179 -0.08402,-0.3358 -0.02121,-0.01 0.0061,0.049 0.0025,0.073 -0.0064,0.043 -0.06771,0.1453 -0.03206,0.1262 0.586686,-0.3157 1.146126,-0.6892 1.719191,-1.0338 -0.683541,1.4522 -1.09756,3.0434 -1.563229,4.5914 -0.833933,2.9888 -1.638396,5.9874 -2.438489,8.9875 -0.648086,2.707 -1.437877,5.3678 -2.463078,7.9301 -0.725726,1.7009 -1.582595,3.3542 -2.819279,4.6655 -0.965801,0.8138 -0.769999,0.6829 -2.595123,1.6874 -0.129155,0.071 -0.477133,0.066 -0.612428,-0.025 -0.234469,-0.1562 -0.273909,-0.403 -0.368812,-0.661 -0.262116,-1.8676 0.466123,-3.6358 1.15341,-5.2939 1.105532,-2.4773 2.761696,-4.5582 4.371072,-6.6459 1.302124,-1.5907 2.593394,-3.1964 4.035946,-4.6358 0.665755,-0.6513 1.40559,-1.1924 2.152232,-1.7217 0,0 1.96206,-0.8409 1.96206,-0.8409 l 0,0 c -0.750268,0.5298 -1.503912,1.0538 -2.18192,1.6956 -1.4756,1.4286 -2.790362,3.0345 -4.109157,4.6356 -1.60193,2.0716 -3.256955,4.1303 -4.374077,6.5805 -0.667849,1.5925 -1.382409,3.2879 -1.157414,5.088 0.104837,0.2932 0.153223,0.5073 0.485082,0.4614 0.102066,-0.014 0.382928,-0.1502 0.298795,-0.085 -0.313636,0.2429 -2.271762,1.5541 -0.996211,0.6335 1.288033,-1.2577 2.157554,-2.9081 2.898971,-4.6032 1.050171,-2.5543 1.866805,-5.2107 2.51291,-7.9229 0.803034,-2.9907 1.600171,-5.9832 2.400542,-8.9748 0.449304,-1.5412 0.853212,-3.1107 1.454308,-4.5903 0.156989,-0.1149 1.749246,-1.9354 2.153111,-1.2545 0.05702,0.097 0.0283,0.2533 0.08013,0.3515 0.09794,0.4772 0.199527,0.9412 0.01474,1.4132 -0.36077,0.9183 -0.906016,1.7294 -1.478946,2.5008 -1.558925,1.8404 -3.340484,3.1602 -5.441845,4.2341 -1.331441,0.6367 -2.734079,1.2577 -4.214292,1.126 -0.946358,-0.1659 -1.841214,-0.4446 -2.349218,-1.4214 -0.447607,-1.0394 -0.638065,-2.1653 -0.756216,-3.304 -0.160311,-1.5176 -0.208081,-3.0532 -0.02341,-4.572 0.238575,-1.8875 0.69499,-3.713 1.409668,-5.4546 0.77005,-1.9252 1.716395,-3.7323 2.896131,-5.3942 0.959481,-1.4299 1.944028,-2.8457 3.102886,-4.0903 1.17338,-1.1361 2.538819,-2.1725 4.071405,-2.5636 0.548095,-0.04 1.148863,-0.059 1.655562,0.2022 0.546548,0.527 0.180725,1.1413 -0.101128,1.7315 -1.029425,1.9412 -2.089251,3.8619 -3.278068,5.692 -1.893766,2.9831 -3.882763,5.8945 -6.089168,8.6093 -1.775373,2.1666 -3.602671,4.3116 -5.807096,5.962 -2.715892,2.075 -5.4816369,4.0691 -8.4127373,5.7645 -1.526009,0.8985 -3.0450861,1.8372 -4.6811613,2.4764 0,0 1.6907117,-1.433 1.6907117,-1.433 z"
       inkscape:connector-curvature="0" />
    <path
       style="fill:#000000"
       id="path2987"
       d="m 40.564895,1019.3911 c -0.583675,0.829 -0.985319,1.7943 -1.391691,2.7375 -0.378644,0.8341 -0.503728,1.7555 -0.705273,2.6502 -0.04387,0.2515 -0.231863,0.7839 0.03818,0.9554 0.335364,0.1254 0.712781,0.091 1.063202,0.094 0.411138,-0.074 0.822821,-0.1385 1.236493,-0.1925 0,0 -1.701686,1.3967 -1.701686,1.3967 l 0,0 c -0.41931,0.06 -0.836431,0.1448 -1.25894,0.1716 -0.389922,-0.01 -0.821327,0.034 -1.15834,-0.2192 -0.297481,-0.3265 -0.252976,-0.78 -0.134607,-1.1981 0.216219,-0.9069 0.339791,-1.8437 0.705246,-2.7001 0.409696,-0.9437 0.803844,-1.9076 1.342407,-2.7724 0,0 1.965027,-0.924 1.965027,-0.924 z"
       inkscape:connector-curvature="0" />
    <path
       style="fill:#000000"
       id="path2989"
       d="m 44.310536,1022.6925 c -0.673162,-0.1433 -1.331681,-0.064 -1.933005,0.2947 2.830486,-1.7998 1.659594,-1.1905 1.168755,-0.5183 -0.185984,0.2546 -0.324776,0.5228 -0.454435,0.815 -0.199304,0.5043 -0.262871,1.0042 -0.131624,1.5335 0.203928,0.4622 0.598532,0.7826 1.029261,0.9567 0.06793,0.014 0.135301,0.033 0.203804,0.043 0.275134,0.042 0.452496,-0.01 0.696074,-0.1578 0.09784,-0.061 0.384994,-0.2542 0.285543,-0.1968 -0.505215,0.2917 -1.002352,0.6 -1.503528,0.9 0.722537,-0.7102 1.161818,-1.6659 1.500115,-2.6481 0.188008,-0.6135 0.294722,-1.2531 0.334154,-1.8982 0.02633,-0.2375 0.113168,-0.4597 0.19913,-0.6774 2.717331,-4.1813 1.888058,-0.1787 1.821335,0.3952 -0.06528,0.7379 -0.160523,1.4824 -0.01758,2.2137 0.12903,0.547 0.420275,0.9857 0.853093,1.2834 0.357469,0.1539 0.770962,0.2565 1.149012,0.1511 -0.192518,0.2583 0.836544,-0.4624 0.562265,-0.2951 -2.744169,1.6754 -1.756792,1.1672 -1.106963,0.5594 0.468545,-0.4867 0.956375,-0.95 1.429453,-1.4312 0.466409,-0.4695 0.901313,-0.9608 1.318977,-1.483 0.421616,-0.5764 0.797991,-1.191 1.164073,-1.811 0.126845,-0.1888 -0.01957,-0.076 -0.184197,-0.074 -0.580362,0.047 -2.813006,1.6413 1.037353,-0.774 -0.448146,0.414 -0.77203,0.9669 -1.139238,1.465 -0.268217,0.3985 -0.608423,0.7692 -0.724748,1.2602 -0.05262,0.5587 0.269184,0.9588 0.635085,1.2923 0.498198,0.4808 1.086019,0.6396 1.733422,0.6453 1.05635,0.031 2.029982,-0.3903 2.997244,-0.7981 0.558344,-0.253 1.059156,-0.6701 1.648536,-0.8327 0.451248,-0.099 0.904818,0.1919 1.266369,0.4607 0.488027,0.3779 0.763014,0.9259 0.931008,1.541 0.152335,1.2133 -1.218425,1.8323 -2.234288,1.9833 -0.626991,-0.089 -0.78054,-0.6724 -0.8285,-1.2789 0.0308,-0.9659 0.44566,-1.8064 0.92609,-2.5874 0.862615,-1.2092 2.210612,-1.9981 3.583204,-2.2183 0.628543,-0.024 1.127678,0.1748 1.525971,0.7115 0.25285,0.4633 0.435164,0.9565 0.550807,1.4802 0.05995,0.3146 0.08146,0.6342 0.09101,0.9547 0.003,0.08 0.0018,0.1612 0.0049,0.2418 -0.617697,0.2867 -1.223276,0.6072 -1.85309,0.8599 -0.06334,0.026 0.08421,-0.1162 0.131428,-0.1692 0.063,-0.071 0.128959,-0.1384 0.198677,-0.201 0.296384,-0.2659 0.627262,-0.4911 0.945963,-0.722 1.129539,-0.6582 2.176892,-2.1006 3.508135,-1.9922 0.441673,0.2084 0.616213,0.6915 0.738515,1.1682 0.105085,0.4828 -0.01243,0.9737 -0.08527,1.4522 0.0224,0.115 -0.134324,0.425 -0.05155,0.5244 0.0093,0.011 0.01634,-0.026 0.02842,-0.032 0.02776,-0.015 0.05898,-0.022 0.08846,-0.033 0.62322,-0.329 1.669362,-0.9773 -1.132959,0.7236 -0.124093,0.075 0.241271,-0.1638 0.36058,-0.248 0.126916,-0.089 0.24829,-0.1887 0.378035,-0.2732 0.732046,-0.4767 1.471223,-0.94 2.206834,-1.4098 -3.428712,2.2243 -1.45717,0.9073 -1.09473,0.6769 0.261317,-0.1662 1.838221,-1.4961 2.719795,-1.5115 0.428891,0.1967 0.436398,0.761 0.421407,1.2007 -0.03288,0.5567 -0.212734,1.0802 -0.378622,1.6012 -0.0054,0.028 -0.02286,0.056 -0.01581,0.084 0.0039,0.015 0.01581,-0.028 0.02796,-0.037 0.03352,-0.025 0.06949,-0.045 0.106915,-0.061 0.344926,-0.1467 0.679706,-0.2717 1.018565,-0.4415 1.054078,-0.5861 2.114634,-1.1529 3.20031,-1.6649 0.577065,-0.2468 1.208393,-0.5924 1.779673,-0.1845 0.307013,0.4513 0.295075,1.0881 0.241425,1.6282 0.0089,0.2236 -0.149688,0.4329 -0.15269,0.6519 -4.3e-4,0.031 0.05613,0.01 0.08448,0.01 0.672171,-0.3055 1.304737,-0.7182 1.96164,-1.0674 1.051466,-0.5194 2.125232,-0.9394 3.27661,-1.05 0.805593,0.034 1.259743,0.4427 1.337328,1.3274 -0.09132,0.6145 -0.44987,1.1456 -0.933045,1.4718 -2.026475,1.3683 -1.459914,1.1077 -2.637103,1.5836 -0.641101,0.2737 -1.42422,0.1734 -1.308758,-0.8172 0.0268,-0.2298 0.116773,-0.4454 0.175159,-0.6681 1.026056,-2.4135 2.659297,-4.4337 4.27549,-6.3866 1.679011,-1.8887 3.537202,-3.6027 5.603137,-4.96 0.948723,-0.6233 1.915119,-1.2135 2.872678,-1.8202 1.892336,-1.1312 3.922198,-2.012 6.04682,-2.4241 0.810072,0 0.436505,-0.079 1.12752,0.2013 0,0 -1.743037,1.3011 -1.743037,1.3011 l 0,0 c -0.632394,-0.208 -0.287465,-0.1495 -1.040598,-0.1272 -2.09565,0.433 -4.095307,1.3091 -5.958362,2.4443 0.189255,-0.126 0.751299,-0.514 0.567771,-0.3781 -0.383038,0.2836 -0.783289,0.5384 -1.166627,0.8216 -1.61219,1.1911 -3.109019,2.5526 -4.461259,4.088 -1.596988,1.9133 -3.196742,3.8967 -4.22851,6.2571 -0.06266,0.1941 -0.147309,0.3812 -0.187975,0.5822 -0.169032,0.8357 0.658056,0.6542 1.084552,0.4506 0.786647,-0.3767 1.016738,-0.5095 -0.980651,0.7091 -0.134164,0.082 0.260664,-0.1798 0.379176,-0.2871 0.286191,-0.2588 0.517762,-0.5744 0.623559,-0.9679 -2.7e-5,-0.7789 -0.484045,-1.0346 -1.142468,-1.0174 -1.130672,0.1406 -2.189119,0.5812 -3.218429,1.1049 -0.808598,0.4433 -0.255526,0.135 -0.99616,0.5594 -0.342482,0.1962 -0.71683,0.4916 -1.119883,0.3716 -0.376411,-0.3006 -0.151908,-0.5234 -0.05869,-0.9323 0.08686,-0.4204 0.108089,-1.0077 -0.114765,-1.3761 -0.5377,-0.2616 -1.133417,0.1432 -1.636814,0.3346 -1.084049,0.5194 -2.14172,1.0957 -3.202941,1.6685 -0.303842,0.1406 -1.376891,0.7817 -1.423927,0.018 0.146491,-0.5141 0.384282,-1.0038 0.411914,-1.5524 0.02135,-0.2439 0.09231,-0.8328 -0.236858,-0.8471 -0.163118,0.036 -0.166919,0.027 -0.331252,0.1135 -0.07551,0.04 -0.292861,0.1796 -0.220529,0.1329 0.507935,-0.3273 1.018714,-0.6495 1.527414,-0.9754 0.114483,-0.073 -0.230341,0.1441 -0.344732,0.2176 -0.725552,0.4663 -1.450054,0.9346 -2.17508,1.4019 0.465856,-0.299 0.924934,-0.6112 1.397565,-0.8971 0.253617,-0.1534 -0.476721,0.3622 -0.725926,0.5241 -0.424026,0.2756 -1.688363,1.4072 -2.592875,1.4913 -0.362238,-0.1382 -0.311358,-0.4451 -0.240127,-0.7979 0.07337,-0.4464 0.200082,-0.9096 0.130078,-1.3624 -0.08384,-0.3639 -0.198772,-0.8341 -0.587453,-0.9036 -0.742247,0.1106 -1.599875,0.8947 1.15213,-0.906 0.102015,-0.067 -0.206445,0.1291 -0.306973,0.1985 -0.10823,0.075 -0.212714,0.1559 -0.319069,0.2339 -0.112919,0.078 -0.225851,0.1558 -0.338777,0.2337 -0.315792,0.2234 -0.633172,0.4485 -0.939245,0.688 -0.120805,0.094 -0.206455,0.2422 -0.337192,0.319 -0.673272,0.396 -1.363447,0.7561 -2.04517,1.1341 0.0093,-0.076 0.01155,-0.1523 0.01172,-0.2288 0.0014,-0.3068 -0.01137,-0.6138 -0.06009,-0.9165 -0.09539,-0.4924 -0.260916,-0.9533 -0.496733,-1.3866 -0.364205,-0.4675 -0.848323,-0.5793 -1.39554,-0.5133 -0.249381,0.054 -0.375807,0.07 -0.616762,0.1684 -0.104411,0.042 -0.399523,0.214 -0.305438,0.1485 2.803957,-1.9512 1.47152,-1.0757 0.975106,-0.4332 -0.481311,0.7329 -0.908923,1.5183 -0.980353,2.4411 0.0184,0.4588 0.107928,1.0214 0.645393,0.9181 0.757385,-0.3434 -0.01243,0 -1.583127,1.0498 -0.03816,0.026 0.08875,-0.022 0.127271,-0.046 0.138534,-0.089 0.10919,-0.2802 0.114998,-0.4275 -0.139742,-0.571 -0.385356,-1.0668 -0.847365,-1.3988 -0.35502,-0.2372 -0.750418,-0.4465 -1.167578,-0.2876 -0.555864,0.2266 -1.059063,0.5873 -1.613014,0.8211 -0.986242,0.4066 -1.988033,0.7797 -3.058435,0.7321 -0.686167,-0.052 -1.300008,-0.2516 -1.822764,-0.7676 -0.40757,-0.3969 -0.759374,-0.8642 -0.748391,-1.4965 0.04027,-0.5502 0.394938,-0.956 0.691134,-1.3771 0.366066,-0.5101 0.723765,-1.0259 1.102906,-1.5237 0.524968,-0.34 1.747751,-1.4871 2.696718,-1.4652 0.262797,0.032 0.499783,0.1747 0.399893,0.5086 -0.381588,0.6253 -0.771621,1.2444 -1.175147,1.8527 -0.421286,0.5152 -0.814466,1.0455 -1.298106,1.4927 -0.456295,0.5055 -0.979322,0.9327 -1.431558,1.4446 -0.900727,0.8922 -1.951216,1.7182 -3.135954,2.0259 -0.428065,0.017 -0.857661,-0.062 -1.235098,-0.2953 -0.450665,-0.3605 -0.7844,-0.8388 -0.925022,-1.4408 -0.165426,-0.7557 -0.07805,-1.5192 -0.01528,-2.2867 0.196938,-1.803 -0.113612,-1.0908 2.062422,-2.4445 0.01066,-0.01 -0.01243,0.023 -0.01876,0.035 -0.09589,0.1937 -0.170099,0.3981 -0.246764,0.6015 -0.04258,0.6693 -0.152938,1.3325 -0.336024,1.9731 -0.328077,1.0078 -0.758882,1.9867 -1.446893,2.7602 -0.703988,0.4788 -1.403474,0.9657 -2.111963,1.4364 -0.421974,0.2803 -0.851038,0.3416 -1.312018,0.1457 -0.468649,-0.2563 -0.899035,-0.5956 -1.124145,-1.1336 -0.163277,-0.5762 -0.129776,-1.1188 0.0684,-1.6853 0.562902,-1.4691 1.480455,-1.9662 2.88304,-2.7276 0.647441,-0.2942 1.332801,-0.3228 2.021252,-0.189 0,0 -1.750171,1.3516 -1.750171,1.3516 z"
       inkscape:connector-curvature="0" />
    <path
       style="fill:#000000"
       id="path2991"
       d="m 114.02578,1037.511 c -0.53522,1.479 -0.57864,1.7615 -2.46325,2.4952 -0.13045,0.05 -0.10927,-0.2799 -0.16391,-0.4199 -0.002,-0.2237 -0.0233,-0.4481 -0.007,-0.6711 0.11879,-1.6248 0.56021,-3.2436 0.99918,-4.7882 0.52174,-1.8361 1.03638,-3.3554 1.62864,-5.1764 1.53958,-4.3575 3.13369,-8.7399 5.34418,-12.75 0.32648,-0.5924 0.68729,-1.1609 1.03094,-1.7412 2.28462,-3.5163 4.96772,-5.3451 8.55164,-7.1319 1.66667,-0.6196 4.0409,-1.6594 5.83484,-1.3242 0.23207,0.043 0.4471,0.1623 0.67065,0.2434 0.15508,0.1705 0.34542,0.3095 0.4652,0.5115 0.45787,0.7724 0.35311,1.7209 0.29971,2.5797 0,0 -1.84609,1.0165 -1.84609,1.0165 l 0,0 c 0.0565,-0.7749 0.18153,-1.6871 -0.23734,-2.3899 -0.10249,-0.1719 -0.27044,-0.2837 -0.40565,-0.4256 -0.20794,-0.069 -0.40907,-0.1706 -0.62378,-0.2056 -1.78399,-0.2901 -4.0763,0.7265 -5.72299,1.3635 -0.44644,0.2301 -0.88098,0.4905 -1.33931,0.6901 -0.16747,0.073 0.60615,-0.4271 0.46221,-0.308 -0.37477,0.3103 -0.78521,0.5664 -1.15604,0.8824 -1.2124,1.0327 -2.2526,2.2823 -3.16282,3.6351 -0.35434,0.5807 -0.72659,1.1487 -1.06301,1.7423 -2.25861,3.985 -3.8798,8.3662 -5.40158,12.737 -0.60917,1.9143 -1.04513,3.2077 -1.5668,5.1286 -0.41078,1.5126 -0.79862,3.0759 -0.89445,4.66 -0.0119,0.197 0.006,0.3948 0.008,0.5922 -0.10422,0.8167 -0.003,0.2128 -1.70755,1.2464 -0.0707,0.043 0.1091,-0.1326 0.14967,-0.2094 0.1618,-0.3062 0.24072,-0.6654 0.38154,-0.9826 0,0 1.93442,-0.9999 1.93442,-0.9999 z"
       inkscape:connector-curvature="0" />
    <path
       style="fill:#000000"
       id="path2993"
       d="m 113.90128,1023.389 c 1.38081,-0.1969 2.76265,-0.3909 4.14479,-0.5805 1.71398,-0.1579 3.45189,-0.5181 5.17802,-0.333 0.26028,0.028 0.51576,0.096 0.77364,0.1433 0,0 -1.69896,1.3133 -1.69896,1.3133 l 0,0 c -1.97708,-0.3406 -3.92231,-0.023 -5.89487,0.225 -1.40557,0.2016 -2.81083,0.4047 -4.21128,0.6464 0,0 1.70866,-1.4145 1.70866,-1.4145 z"
       inkscape:connector-curvature="0" />
    <path
       style="fill:#000000"
       id="path2995"
       d="m 128.24353,1024.7807 c 0.64676,0.2832 1.2717,0.5583 1.72491,1.161 0.32912,0.5692 0.30446,1.1207 -0.0399,1.6609 -1.02239,0.9339 -2.28871,1.7936 -3.65037,1.6647 -0.756,-0.209 -0.92936,-0.689 -0.78039,-1.4883 0.26743,-0.8246 0.78198,-1.4476 1.43203,-1.9276 0.85156,-0.5 2.14199,-1.7119 3.33281,-1.4804 0.39296,0.1062 0.59872,0.4097 0.71802,0.8132 0.0556,0.3128 0.16196,0.6096 0.28412,0.8971 0.24441,-0.022 3.1297,-1.9151 -0.9697,0.6463 0.76149,-0.5346 1.48433,-1.1297 2.17826,-1.765 0.95819,-1.0221 1.56635,-1.2454 2.93735,-2.0403 0.38414,0.073 0.76299,0.2198 1.09862,0.4384 0.48846,0.3175 0.41453,0.8813 0.27052,1.3978 -0.26497,0.7004 -0.66331,1.3248 -1.0582,1.942 -0.15606,0.1217 -0.34138,0.6844 -0.52182,0.7497 0.0651,0.1401 0.41587,0.1246 0.54751,0.1348 0.68626,0.051 1.30303,-0.2321 1.89902,-0.5703 0.854,-0.5239 1.72862,-1.0118 2.62477,-1.443 0.36218,-0.1743 0.7445,-0.3086 1.13676,-0.3696 0.29824,-10e-4 0.38112,0.3639 0.42416,0.624 0.0381,0.3498 0.0445,0.7023 0.0501,1.0542 0.0385,0.2034 -0.0646,0.158 0.0184,0.048 0.0616,-0.081 0.26432,-0.1485 0.33347,-0.1776 0.70134,-0.3462 1.37391,-0.757 2.07225,-1.1123 0.40241,-0.1374 0.81055,-0.4795 1.2297,-0.3022 0.29621,0.2419 0.33415,0.6049 0.36634,0.9828 0.0239,0.4198 -0.0557,0.565 0.34992,0.6485 0.68535,0.065 1.3585,-0.1962 1.99529,-0.4445 0.98885,-0.4162 1.93918,-0.9341 2.87103,-1.4848 0.42495,-0.2704 0.86744,-0.5107 1.32467,-0.7079 -2.79295,1.7348 -1.05376,1.3669 -2.02912,0.957 -0.50002,-0.1629 -0.97465,0.066 -1.39374,0.3539 3.25705,-1.9788 1.01685,-1.0454 1.10065,0 0.18288,0.4782 0.61737,0.7728 1.06759,0.8579 0.0946,0 0.1897,0.025 0.28369,0.012 0.17931,-0.024 0.55689,-0.1755 0.70773,-0.2459 0.13432,-0.063 0.51991,-0.2905 0.39488,-0.2078 -2.35609,1.5593 -1.56735,0.9969 -0.96683,0.5564 0.50108,-0.3987 0.97595,-0.8363 1.42804,-1.3001 2.24102,-1.2718 2.00636,-1.64 2.12791,0.016 0.0808,0.5351 0.38981,0.9376 0.68439,1.3484 0.0375,0.023 0.072,0.053 0.1126,0.068 0.19421,0.071 0.80114,-0.4205 0.48017,-0.2275 -1.58325,0.9526 -1.98604,1.3606 -1.1898,0.63 0.59748,-0.591 1.10503,-1.2805 1.6785,-1.8973 1.55572,-1.4335 1.91228,-1.6493 3.30034,-1.008 0.42575,0.2563 0.8954,0.5068 1.10757,1.0091 0.12865,0.5403 -0.0847,1.0264 -0.35992,1.4599 -0.2048,0.333 -0.46246,0.6203 -0.62536,0.9827 -0.0851,0.2448 -0.18115,0.4703 0.0548,0.6227 0.43992,0.165 0.91701,-0.1197 1.31678,-0.3047 0,0 -1.66384,1.4392 -1.66384,1.4392 l 0,0 c -0.46861,0.1921 -0.99082,0.4324 -1.46385,0.127 -0.28426,-0.2689 -0.30335,-0.5214 -0.19287,-0.9024 0.14533,-0.3949 0.38119,-0.7001 0.61399,-1.0346 0.26114,-0.3566 0.52112,-0.7512 0.45528,-1.2356 -0.15689,-0.4445 -0.6612,-0.6411 -1.01181,-0.8606 -0.25507,-0.1113 -0.51359,-0.2318 -0.7919,-0.2493 -0.0649,0 -0.24856,0.056 -0.19459,0.017 0.40958,-0.3029 2.3446,-1.5326 1.42677,-0.9485 -0.61484,0.5759 -1.09707,1.3081 -1.6935,1.9074 -0.89189,0.9258 -0.31047,0.3699 -2.42967,1.7141 -0.28363,0.1799 -0.53686,0.1437 -0.7667,-0.1032 -0.31031,-0.4504 -0.63032,-0.895 -0.73785,-1.4643 -0.17019,-1.442 0.0196,-0.9209 1.74668,-2.0011 -0.46117,0.4789 -0.95066,0.9241 -1.45323,1.3492 -1.04343,0.8148 -0.62087,0.5066 -2.6463,1.7354 -0.44769,0.2716 -0.97903,0.4246 -1.48576,0.3294 -0.51802,-0.1782 -0.98467,-0.5252 -1.20381,-1.0914 -0.25029,-1.4304 1.73205,-2.0538 2.44403,-2.5716 0.47932,-0.2634 1.00287,-0.4171 1.52259,-0.1863 1.21871,0.6819 -0.39038,1.3869 -1.44253,1.8093 -0.43909,0.2042 -0.86443,0.4417 -1.28004,0.6986 -0.94064,0.5378 -1.89264,1.0581 -2.89075,1.4558 -0.67077,0.2443 -1.38658,0.506 -2.09934,0.3502 -0.39924,-0.1672 -0.49854,-0.4362 -0.47855,-0.8927 -0.0178,-0.2453 0.004,-0.6082 -0.23775,-0.7259 -0.38541,-0.027 -0.76064,0.3054 -1.11897,0.4094 -0.70261,0.3627 -1.37667,0.7905 -2.09599,1.1125 -0.2906,0.124 -0.61135,0.2337 -0.58418,-0.2478 0.003,-0.3412 3.5e-4,-0.6833 -0.0301,-1.0233 -0.0269,-0.2063 -0.0294,-0.3772 -0.24963,-0.3044 -0.37175,0.085 -0.73245,0.2184 -1.07767,0.3928 -0.88849,0.4443 -1.75983,0.928 -2.61471,1.4458 -0.62913,0.3262 -1.28874,0.5645 -1.9949,0.4859 -0.28025,-0.04 -0.61597,-0.089 -0.72035,-0.427 -0.009,-0.05 -0.0342,-0.1007 -0.0289,-0.1516 0.0189,-0.1833 0.49594,-0.5418 0.51752,-0.7403 0.39616,-0.6014 0.791,-1.2081 1.08435,-1.8797 0.14096,-0.4123 0.29522,-0.8537 -0.13681,-1.1049 -0.31604,-0.1739 -0.66455,-0.3411 -1.02485,-0.31 3.26988,-2.1057 1.44276,-1.0486 0.7375,-0.2455 -0.68829,0.6438 -1.40827,1.2404 -2.15765,1.7959 -0.71023,0.451 -1.41596,0.9106 -2.13068,1.3528 -0.13091,0.081 -0.4026,0.224 -0.56899,0.1763 -0.0778,-0.023 -0.13416,-0.1126 -0.18197,-0.1731 -0.11671,-0.2999 -0.23363,-0.6058 -0.2873,-0.9278 -0.0876,-0.3329 -0.25543,-0.5391 -0.58453,-0.5803 -0.92428,-0.012 -2.61751,1.1057 0.38823,-0.7296 -0.65756,0.427 -1.18906,0.9768 -1.49433,1.7663 -0.20508,0.6701 -0.0704,1.0143 0.59076,1.1286 0.33104,0 0.64077,-0.027 0.95965,-0.1365 0.10874,-0.037 0.41462,-0.2028 0.31931,-0.1341 -0.9708,0.6996 -2.19318,1.3879 -1.31774,0.89 0.3755,-0.4101 0.46984,-0.8559 0.17773,-1.3724 -0.43767,-0.5725 -1.07299,-0.7964 -1.68432,-1.0749 0,0 1.78422,-1.2921 1.78422,-1.2921 z"
       inkscape:connector-curvature="0" />
    <path
       style="fill:#000000"
       id="path2997"
       d="m 162.98743,1026.1856 c 0.21062,-0.4446 0.40757,-0.8969 0.60931,-1.3464 1.31102,-0.5435 2.18018,-1.5415 1.84835,-0.5571 -0.12774,0.3791 -0.31904,0.7348 -0.48674,1.0932 -0.31132,0.6883 -0.51031,1.4087 -0.56235,2.1748 -0.044,0.7735 0.12273,1.4738 0.47912,2.1298 0.35202,0.507 0.49816,0.5377 1.05216,0.4815 0.41376,-0.1722 0.20022,-0.065 0.63478,-0.3373 0,0 -1.6508,1.4562 -1.6508,1.4562 l 0,0 c -0.47736,0.2399 -0.24159,0.1559 -0.70203,0.2693 -0.57606,0.01 -0.84791,-0.1777 -1.17735,-0.6954 -0.37086,-0.6977 -0.55541,-1.4403 -0.52716,-2.2582 0.0289,-0.7926 0.20797,-1.5371 0.51482,-2.2561 0.15908,-0.355 0.34317,-0.698 0.49192,-1.0583 0.0279,-0.068 0.0135,-0.1703 0.0712,-0.2091 0.64089,-0.4317 1.32326,-0.7839 1.98489,-1.1759 -0.31256,0.3446 -0.38292,0.9259 -0.63418,1.32 0,0 -1.9459,0.969 -1.9459,0.969 z"
       inkscape:connector-curvature="0" />
    <path
       style="fill:#000000"
       id="path2999"
       d="m 166.56872,1015.8681 c 0.45053,0.2211 0.90916,0.5739 1.41883,0.5598 0.54408,-0.6114 0.10363,-0.1007 -1.6688,1.0016 -0.031,0.019 0.0624,-0.038 0.0923,-0.06 0.0891,-0.064 0.13484,-0.1338 0.18821,-0.2326 0.1093,-0.1186 -0.0405,-0.028 -0.0779,0.036 -0.95346,0.7063 2.57256,-1.8126 1.31904,-0.7409 -0.10445,0.1056 -0.19134,0.229 -0.27621,0.3534 -0.0103,0.035 -0.0212,0.01 -0.0283,0.011 0,0 -1.95464,1.0088 -1.95464,1.0088 l 0,0 c 3.1e-4,-0.025 -0.007,-0.042 0.009,-0.065 0.0739,-0.1469 0.17234,-0.2771 0.26708,-0.4079 0.22206,-0.2935 -0.0451,0.032 0.1901,-0.1793 0.64504,-0.5782 1.38172,-1.1327 2.17847,-1.4235 0.17642,0.042 0.40954,0.1927 0.3306,0.4307 -0.34874,0.9398 -1.40063,1.6446 -2.31306,1.6393 -0.51901,-0.097 -0.98201,-0.4112 -1.45929,-0.6397 0,0 1.78423,-1.2923 1.78423,-1.2923 z"
       inkscape:connector-curvature="0" />
    <path
       style="fill:#000000"
       id="path3001"
       d="m 41.237936,1013.1294 c 0.218383,-0.4968 0.345623,-1.0309 0.442657,-1.5698 0.03379,-0.2092 -0.03244,0.031 -0.02396,0.027 0.605728,-0.337 1.190961,-0.717 1.790586,-1.067 0.08941,-0.052 -0.161057,0.1357 -0.233618,0.2134 -0.283875,0.2878 -0.453472,0.6589 -0.575715,1.055 -0.0794,0.065 -0.03542,0.5003 0.09686,0.2875 0.634803,-0.3437 1.180793,-0.6415 -1.659266,1.0256 -0.04476,0.027 0.07995,-0.07 0.112049,-0.1134 0.13102,-0.1764 0.221501,-0.3986 0.3075,-0.6033 0.05731,-0.1726 0.121055,-0.3452 0.159885,-0.5246 0.0078,-0.036 0.002,-0.146 -0.0048,-0.1101 -0.0042,0.022 0.0055,0.044 0.0081,0.067 0.135478,0.8328 -0.02542,0.01 1.790492,-1.0175 0.06155,-0.035 -0.109278,0.1913 -0.02764,0.3861 0.01137,0.016 0.02263,0.032 0.03394,0.048 0,0 -1.853246,1.2024 -1.853246,1.2024 l 0,0 c -0.01687,-0.028 -0.03384,-0.056 -0.05077,-0.084 -0.41618,-0.9469 1.079911,-2.44 1.89746,-1.8559 0.231687,0.287 0.09233,0.5806 -0.01474,0.9052 -0.38241,1.1227 -1.119058,2.0004 -2.432791,2.0756 -0.251041,-0.1224 -0.371351,-0.3773 -0.297896,-0.6784 0.0945,-0.4209 0.260549,-0.8406 0.533605,-1.1579 0.579915,-0.7211 2.049631,-2.3061 2.37277,-1.1088 -0.103719,0.5434 -0.212409,1.0989 -0.437121,1.5983 0,0 -1.934421,1.0001 -1.934421,1.0001 z"
       inkscape:connector-curvature="0" />
  </g>
</svg>
