<?xml version="1.0" encoding="UTF-8" standalone="no"?>
<!-- Created with Inkscape (http://www.inkscape.org/) -->

<svg
   xmlns:dc="http://purl.org/dc/elements/1.1/"
   xmlns:cc="http://creativecommons.org/ns#"
   xmlns:rdf="http://www.w3.org/1999/02/22-rdf-syntax-ns#"
   xmlns:svg="http://www.w3.org/2000/svg"
   xmlns="http://www.w3.org/2000/svg"
   xmlns:sodipodi="http://sodipodi.sourceforge.net/DTD/sodipodi-0.dtd"
   xmlns:inkscape="http://www.inkscape.org/namespaces/inkscape"
   width="177.16534"
   height="53.149605"
   id="svg3533"
   version="1.1"
   inkscape:version="0.48.3.1 r9886"
   sodipodi:docname="New document 14">
  <defs
     id="defs3535" />
  <sodipodi:namedview
     id="base"
     pagecolor="#ffffff"
     bordercolor="#666666"
     borderopacity="1.0"
     inkscape:pageopacity="0.0"
     inkscape:pageshadow="2"
     inkscape:zoom="6.7789782"
     inkscape:cx="89.548692"
     inkscape:cy="22.16791"
     inkscape:document-units="px"
     inkscape:current-layer="layer1"
     showgrid="false"
     units="cm"
     inkscape:window-width="1366"
     inkscape:window-height="744"
     inkscape:window-x="0"
     inkscape:window-y="24"
     inkscape:window-maximized="1" />
  <metadata
     id="metadata3538">
    <rdf:RDF>
      <cc:Work
         rdf:about="">
        <dc:format>image/svg+xml</dc:format>
        <dc:type
           rdf:resource="http://purl.org/dc/dcmitype/StillImage" />
        <dc:title></dc:title>
      </cc:Work>
    </rdf:RDF>
  </metadata>
  <g
     inkscape:label="Layer 1"
     inkscape:groupmode="layer"
     id="layer1"
     transform="translate(0,-999.21127)">
    <path
       style="fill:#000000"
       id="path3573"
       d="m 91.290323,1027.3868 c -0.871066,0.8082 -1.637868,1.7238 -1.936673,2.8904 -0.0228,1.0492 0.811025,1.4563 1.721717,1.6253 0.201492,0 0.402523,0.047 0.604428,0.046 0.454072,0 0.907089,-0.1176 1.326787,-0.2884 0.223907,-0.091 0.85776,-0.4476 0.645994,-0.3307 -1.876548,1.0359 -2.004427,1.2347 -1.080575,0.3786 1.029062,-1.2906 0.931494,-2.6089 0.420717,-4.0865 -0.447061,-1.0203 -0.948693,-1.7586 -2.146558,-1.4941 -1.291224,0.6206 0.968803,-0.6178 1.489429,-0.8563 0.141743,-0.063 -0.237188,0.206 -0.335787,0.3257 -0.361344,0.4426 -0.489878,0.9616 -0.628371,1.5011 -0.179453,1.1184 0.02911,2.2176 0.714089,3.1233 0.172745,0.1517 0.325562,0.3385 0.57528,0.3636 0.252132,0.033 0.937789,-0.3763 0.717715,-0.2502 -2.083995,1.1895 -2.215623,1.3445 -1.198011,0.531 0.967251,-0.9197 1.830639,-1.9371 2.667123,-2.9749 0.801565,-1.043 0.822379,-0.9729 2.861872,-1.5413 0.09837,-0.033 0.05616,0.1973 0.08612,0.2945 0.03469,0.1152 0.07193,0.225 0.107829,0.3373 0.303451,0.9964 0.778725,1.6467 1.685451,2.1537 0.132597,0.039 0.260562,0.1019 0.397792,0.1104 0.477459,0.036 3.751949,-1.4145 -1.11262,0.8194 -0.142192,0.067 0.23697,-0.2059 0.339087,-0.3246 0.115228,-0.1323 0.206877,-0.2851 0.310291,-0.4293 0.485731,-0.8571 0.815861,-1.7844 1.060081,-2.7352 0.29144,-1.1648 -0.25968,-0.6046 2.49823,-1.3471 0.0912,-0.033 0.0386,0.1843 0.0605,0.2756 0.0281,0.1177 0.06,0.2374 0.09,0.3541 0.25553,0.9197 0.68784,1.7714 1.37061,2.4428 0.24795,0.1605 0.56313,0.4487 0.89258,0.4096 0.0875,0 0.31783,-0.1517 0.24073,-0.1079 -2.13748,1.1843 -2.47266,1.6178 -1.71547,0.7834 0.47571,-0.7184 0.79577,-1.5185 1.13027,-2.3075 1.55904,-4.0667 2.61819,-0.8563 3.07193,0.033 0.52544,0.7906 0.79046,1.1337 1.77739,0.9775 -0.16608,0.1842 1.26291,-0.6372 0.94561,-0.4811 -0.55284,0.2727 -1.04003,0.7078 -1.63783,0.857 -0.26493,0.067 0.39277,-0.3812 0.56834,-0.5903 0.5292,-0.6302 0.73008,-1.0249 1.16871,-1.742 1.48035,-2.6421 2.36603,-5.5529 3.19175,-8.4502 0.25712,-1.0089 0.5506,-2.014 0.7407,-3.0394 0.0621,-0.3347 0.1488,-0.754 0.0708,-1.098 -0.1609,1.0253 -0.0301,-0.2146 1.97078,-0.8029 0.206,-0.061 -0.24098,0.3563 -0.34136,0.546 -0.53125,1.0044 -0.84705,2.0952 -1.18229,3.1744 -0.80488,2.9321 -1.21003,5.9393 -1.32957,8.9711 0.005,0.9688 0.0254,1.9419 0.19691,2.8986 0.0281,0.1582 0.13945,0.7209 0.27257,0.8951 0.044,0.056 0.13021,0.063 0.1953,0.096 0.83962,-0.7155 -0.41074,0.3774 -1.6762,0.7958 -0.20966,0.069 0.30006,-0.3246 0.43893,-0.4963 0.55358,-0.6843 1.0221,-1.4302 1.494,-2.1712 0.39327,-0.5802 0.75685,-1.1795 1.14922,-1.7602 0.11547,-0.1713 0.19211,-0.3939 0.37271,-0.4935 0.79936,-0.4399 1.62263,-0.8349 2.43395,-1.2526 0.46113,0.6648 0.49589,1.5893 0.67529,2.3719 0.31959,0.92 0.84115,1.7436 1.69966,2.2267 0.41988,0.1583 0.80817,0.067 1.2023,-0.1258 0.15789,-0.076 0.60872,-0.3513 0.45322,-0.2693 -1.75668,0.9243 -2.24788,1.3569 -1.18572,0.521 0.81334,-0.6765 1.57087,-1.4167 2.38273,-2.095 0.79338,-0.6414 1.04038,-0.6292 2.61061,-1.2252 0.0201,0 0.42691,0.471 0.43851,0.4836 0.42041,0.4578 0.92397,0.8342 1.46091,1.1441 0.30242,0.055 0.14226,0.039 0.48127,0.041 0,0 -2.12686,1.519 -2.12686,1.519 l 0,0 c -0.38824,-0.056 -0.20572,0 -0.54964,-0.1388 -0.54537,-0.3396 -1.05759,-0.7348 -1.49806,-1.2046 -0.16557,-0.1712 -0.1955,-0.1994 -0.34881,-0.3634 -0.0361,-0.036 -0.15231,-0.085 -0.10771,-0.1152 3.75906,-2.3381 2.8826,-1.5858 2.06727,-1.1128 -0.8552,0.6451 -1.60343,1.4184 -2.42107,2.108 -1.26957,1.0538 -0.54701,0.4961 -3.21948,2.0607 -0.57733,0.3375 -1.19668,0.475 -1.82055,0.1842 -0.88295,-0.5638 -1.44624,-1.4282 -1.79816,-2.4085 -0.16289,-0.6697 -0.21128,-1.465 -0.52747,-2.0654 0.7089,-0.4217 1.41782,-0.8437 2.12673,-1.2654 -0.063,0.039 -0.13712,0.063 -0.18875,0.1176 -0.5881,0.6024 -0.88926,1.4552 -1.43073,2.0932 -1.05806,1.6908 -2.4691,4.3219 -4.79406,4.3007 -0.0867,-0.076 -0.19644,-0.1324 -0.25997,-0.2282 -0.14502,-0.2218 -0.23231,-0.748 -0.26746,-0.9698 -0.15564,-0.9817 -0.16654,-1.9737 -0.16636,-2.9655 0.14062,-3.0463 0.53942,-6.0692 1.30313,-9.027 0.3905,-1.3492 1.63424,-6.4287 4.12403,-5.2313 0.25873,1.1238 -0.70004,3.1994 -0.87308,4.3132 -0.84251,2.8982 -1.70482,5.8192 -3.13255,8.4937 -0.34789,0.6021 -1.07237,1.9883 -1.65798,2.4041 -0.88268,0.627 -1.83102,1.1562 -2.75848,1.715 -0.47365,0.2851 -0.5247,0.2661 -1.0258,0.407 -0.99878,0.033 -1.43512,-0.4126 -1.94495,-1.2323 -0.16952,-0.3189 -0.30593,-0.6527 -0.47286,-0.9715 -0.0305,-0.056 -0.16199,-0.1302 -0.10711,-0.1671 1.91278,-1.2712 3.12588,-1.2691 2.14773,-1.2574 -0.39607,0.7761 -0.67153,1.6139 -1.1237,2.364 -1.08069,1.7192 -2.62219,2.4554 -4.02274,1.301 -0.69008,-0.721 -1.15259,-1.6007 -1.44279,-2.5548 -0.0654,-0.2248 -0.18036,-0.609 -0.16525,-0.6195 0.72839,-0.51 1.55485,-0.8632 2.31813,-1.319 0.0179,0 -0.0369,-0.047 -0.0525,-0.035 -0.085,0.074 4.8e-4,0.2661 -0.10723,0.3209 -0.25881,0.9734 -0.58835,1.9218 -1.04303,2.8233 -0.85885,1.3728 -1.24972,1.3153 -3.215251,2.3595 -0.401068,0.2125 -0.886046,0.076 -1.266093,-0.089 -0.922627,-0.5697 -1.452071,-1.2728 -1.7914,-2.307 -0.08175,-0.2343 -0.205931,-0.5814 -0.193717,-0.5902 3.835648,-2.6768 2.475311,-1.6173 1.808418,-0.7753 -0.85514,1.0412 -1.726533,2.0681 -2.672885,3.0289 -1.219055,1.095 -0.659567,0.6566 -3.22717,2.0341 -0.571217,0.3073 -1.094523,0.041 -1.484019,-0.3916 -0.699909,-0.9775 -0.95984,-2.133 -0.803615,-3.3284 0.450725,-2.1516 1.432361,-2.928 3.881776,-3.645 1.281994,-0.074 1.835854,0.7068 2.309006,1.8099 0.538043,1.5363 0.688155,2.9405 -0.292498,4.3467 -1.210347,1.2566 -0.493311,0.6017 -3.301328,2.2016 -0.82227,0.4683 -1.770659,0.5969 -2.694936,0.4516 -1.039857,-0.266 -1.893711,-0.8019 -1.929905,-1.9763 0.246189,-1.2053 0.97892,-2.1772 1.860562,-3.0154 0,0 2.409557,-0.9982 2.409557,-0.9982 z"
       inkscape:connector-curvature="0" />
    <path
       style="fill:#000000"
       id="path3575"
       d="m 134.56403,1025.004 c -0.61435,-0.1735 -1.3148,-0.2946 -1.92843,-0.035 -0.1758,0.076 -0.66046,0.3815 -0.48853,0.2978 0.58286,-0.2819 1.1487,-0.5953 1.72303,-0.893 -0.6126,0.6858 -1.48397,1.7334 -1.1209,2.7427 0.0475,0.1323 0.14824,0.2377 0.22268,0.3584 0.99182,0.8032 2.36652,0.564 3.54505,0.4424 1.19725,-0.1366 2.37219,-0.4118 3.56434,-0.5872 0.67027,-0.1079 1.11495,0.2693 1.67264,0.5478 0.68014,0.468 1.4221,0.4058 2.19269,0.2312 0.57333,-0.2083 0.3476,-0.098 0.86039,-0.3933 0.12316,-0.069 0.4913,-0.285 0.36723,-0.2145 -3.35972,1.8608 -1.96289,1.4911 -1.60635,0.6057 -0.002,-0.9156 -0.70607,-1.3699 -1.52643,-1.5171 -0.36348,0.033 -0.4887,0 -0.82069,0.1517 -0.11087,0.05 -0.41545,0.2565 -0.30759,0.1995 0.66262,-0.351 1.2896,-0.7716 1.97257,-1.0811 0.0934,-0.041 -0.13074,0.1648 -0.1624,0.2597 -0.0316,0.096 -0.013,0.1996 -0.0195,0.2978 0.0672,0.1043 0.11146,0.2249 0.20143,0.3103 1.34714,1.2613 5.02518,1.274 6.67798,1.3571 6.9164,0.1043 13.81476,-0.4961 20.66919,-1.3613 1.27329,-0.2017 2.54651,-0.4079 3.81976,-0.6114 0,0 -1.78932,1.3435 -1.78932,1.3435 l 0,0 c -1.27399,0.2017 -2.54798,0.4026 -3.82198,0.6041 -6.90797,0.8669 -13.85759,1.478 -20.82675,1.4276 -1.79263,-0.076 -5.54784,-0.033 -6.9712,-1.4495 -0.12069,-0.1189 -0.1856,-0.2882 -0.27874,-0.4304 -0.12574,-1.4826 0.92101,-1.3193 2.558,-2.2987 0.37511,-0.2248 0.81001,-0.2407 1.23149,-0.1973 0.94848,0.2693 1.64581,0.8353 1.74835,1.8689 -0.0195,0.1165 -0.013,0.2439 -0.057,0.3547 -0.0404,0.1043 -0.0944,0.2147 -0.18712,0.2756 -0.81918,0.543 -1.68118,1.0185 -2.52571,1.5211 -0.39858,0.2376 -0.81878,0.4369 -1.27412,0.5373 -0.82704,0.1322 -1.59113,0.1165 -2.3098,-0.3612 -0.51998,-0.2757 -0.94527,-0.5453 -1.56506,-0.4248 -1.18436,0.1777 -2.35493,0.443 -3.54787,0.5586 -1.27825,0.1164 -2.72098,0.2944 -3.72805,-0.6681 -0.0884,-0.1497 -0.20525,-0.2819 -0.26544,-0.4448 -0.40542,-1.086 0.38037,-2.1932 1.01673,-2.9936 2.15873,-1.3605 2.89605,-2.4467 5.24052,-1.8122 0,0 -2.15594,1.4763 -2.15594,1.4763 z"
       inkscape:connector-curvature="0" />
    <path
       style="fill:#000000"
       id="path3577"
       d="m 81.306508,1010.5373 c 0.641745,3.0456 0.793871,6.1566 0.938573,9.2562 0.174723,4.9201 -0.126872,9.8373 -0.931105,14.6916 -0.323729,1.4564 -0.573369,2.961 -1.146692,4.3497 -0.139879,0.3386 -0.468989,1.0418 -0.851425,1.2589 -0.897298,0.5082 -1.853217,0.9054 -2.779827,1.3585 -0.20352,-0.1043 -0.43242,-0.167 -0.610563,-0.3104 -1.101088,-0.8807 -1.517627,-2.5436 -1.512586,-3.8793 0.0018,-0.4733 0.08597,-0.9424 0.12895,-1.4138 0.448248,-2.0333 1.26308,-4.0109 2.668482,-5.5794 0.291607,-0.3252 0.595841,-0.6508 0.959737,-0.8928 1.001065,-0.6653 2.077008,-1.2104 3.115507,-1.8154 0.333182,-0.074 0.658898,-0.2038 0.999549,-0.2147 1.75967,-0.074 3.095215,1.4418 4.131736,2.6432 0.777088,0.9709 1.532282,1.9917 1.964182,3.1682 0.09133,0.2598 0.06222,0.1431 0.101401,0.3507 0,0 -2.345879,1.1953 -2.345879,1.1953 l 0,0 c 0.05131,-0.1388 0.03166,-0.044 -0.0376,-0.285 -0.381612,-1.1606 -1.101328,-2.1703 -1.856122,-3.1184 -0.991631,-1.1462 -2.278598,-2.5925 -3.974372,-2.4125 -0.326056,0.035 -0.631782,0.1735 -0.947676,0.2629 0.389834,-0.2408 0.810829,-1.0025 1.169496,-0.7185 0.342947,0.2726 -0.690812,0.5417 -0.992558,0.8586 -1.43331,1.5045 -2.257894,3.4499 -2.720394,5.4475 -0.04562,0.4555 -0.131292,0.9084 -0.136799,1.366 -0.01453,1.209 0.34486,2.8719 1.430847,3.6107 0.154581,0.1043 0.35313,0.1235 0.529694,0.1843 -0.556308,0.3903 -1.101029,0.798 -1.668925,1.1711 -0.17893,0.1176 0.365035,-0.2376 0.500331,-0.4031 0.998618,-1.2251 1.289535,-3.6577 1.704696,-5.1188 0.124179,-0.6921 0.268007,-1.3806 0.372478,-2.0759 0.624831,-4.1584 0.731645,-8.3789 0.598398,-12.5753 -0.172275,-3.0595 -0.331687,-6.1442 -1.096196,-9.1261 0,0 2.294701,-1.2331 2.294701,-1.2331 z"
       inkscape:connector-curvature="0" />
    <path
       style="fill:#000000"
       id="path3579"
       d="m 86.424449,1025.0851 c -0.225969,-0.6267 -0.620304,-1.206 -0.694596,-1.8765 0,0 2.327939,-1.2055 2.327939,-1.2055 l 0,0 c 0.0073,0.6415 0.413524,1.2052 0.639505,1.788 0,0 -2.272848,1.294 -2.272848,1.294 z"
       inkscape:connector-curvature="0" />
    <path
       style="fill:#000000"
       id="path3589"
       d="m 14.996521,1012.3806 c 0.100025,-0.7111 0.25491,-1.4159 0.44605,-2.1079 0.229816,-0.8596 0.101942,-0.4785 2.253085,-1.0609 0.115526,-0.035 0.02006,0.2382 0.02257,0.3584 0.0052,0.2097 -0.0023,0.4217 0.002,0.6334 0.0039,0.1915 0.07003,2.1116 0.07085,2.1337 0.141787,4.0696 0.148124,8.1406 0.02074,12.2102 -0.132531,3.2458 -0.417041,6.4962 -0.991469,9.6964 -0.283084,1.5769 -0.508653,2.3698 -0.892316,3.8941 -0.569086,1.5431 -0.969698,3.353 -2.151364,4.5862 -0.69779,0.7285 -3.079365,1.5646 -3.256785,1.6449 -0.227656,-0.1117 -0.477724,-0.1869 -0.6828703,-0.3351 -1.57085,-1.1413 -2.2468831,-3.626 -2.7737052,-5.3808 -0.7598098,-2.4906 -0.9956878,-5.0626 -0.9480921,-7.6524 0.119128,-1.1123 0.064197,-2.4267 0.8641237,-3.3073 0.8073237,-0.4217 1.5817876,-0.9135 2.4218956,-1.2653 0.457803,-0.1915 2.3962383,1.1167 2.7850043,1.3596 1.377423,0.9285 2.798062,1.8013 4.296792,2.5198 1.118174,0.4967 1.936725,0.7484 3.091309,0.2617 -4.45459,2.4154 -0.90967,0.9896 -1.318908,0.1915 -0.02584,-0.05 -0.08252,-0.075 -0.123459,-0.1163 -0.205066,-0.089 -0.425626,-0.2211 -0.654193,-0.2425 -0.674784,-0.066 -3.391976,1.7434 1.673045,-1.0472 -0.257159,0.2006 1.196972,1.2405 1.326803,1.3378 1.105454,0.7136 1.845908,0.9861 3.156706,0.7403 1.462491,-0.6978 -0.694707,0.4834 -1.088791,0.6227 -0.182794,0.066 0.280083,-0.2701 0.401868,-0.4211 0.333518,-0.4135 0.520824,-0.8601 0.668534,-1.3617 0.07418,-0.9431 -0.676951,-1.2992 -1.482134,-1.4817 -0.291669,-0.034 -0.560999,-0.089 -0.854534,-0.025 -0.12305,0.025 -0.458305,0.2097 -0.348355,0.1482 0.58834,-0.332 1.159219,-0.7053 1.785171,-0.9585 0.127037,-0.05 -0.179056,0.2119 -0.241322,0.3325 -0.07835,0.1527 -0.116871,0.3225 -0.175386,0.4842 -0.186306,0.9874 -0.0052,2.1631 0.834731,2.8268 0.161709,0.1276 0.359189,0.2029 0.538742,0.3034 0.741638,0.2097 1.421307,0.1006 2.12119,-0.2028 0.260244,-0.1118 1.010225,-0.5143 0.753806,-0.3935 -1.472912,0.6944 -1.721752,1.0495 -0.715045,0.085 0.613099,-0.711 1.374091,-1.5993 1.267601,-2.6112 -0.01824,-0.034 -0.01915,-0.089 -0.05585,-0.1026 -0.02667,0 -0.08894,0.066 -0.06335,0.06 0.664282,-0.3376 1.309147,-0.7144 1.983149,-1.0326 0.08004,-0.041 -0.135631,0.1139 -0.18863,0.1868 -0.179467,0.2385 -0.258327,0.467 -0.377863,0.7405 -0.300589,0.9421 -0.263578,1.91 0.215575,2.778 0.677702,0.9205 1.302329,1.0169 2.294849,0.5152 -0.53866,0.2802 -1.040018,0.6485 -1.616046,0.8407 -0.194558,0.066 0.296086,-0.2852 0.42596,-0.4436 0.487227,-0.5952 0.82441,-1.3087 1.138753,-2.0044 0.06918,-0.025 0.291171,-0.871 0.330266,-0.8874 2.351274,-0.9838 1.97617,-1.6228 2.402523,-0.5984 0.29667,0.8676 0.698455,1.3896 1.498261,1.8332 0.606514,0.2029 1.222053,0.1322 1.792097,-0.1505 0.149628,-0.075 0.575256,-0.3392 0.429211,-0.2584 -0.556164,0.3084 -1.10652,0.6277 -1.659776,0.9416 0.949382,-0.6469 2.131124,-2.3939 3.303049,-1.993 0.639441,0.4587 1.202689,0.9948 1.879491,1.4077 1.217362,0.6469 2.080726,0.8913 3.435003,0.5742 1.46697,-0.7427 -0.730384,0.4768 -1.134702,0.6312 -0.159133,0.06 0.241737,-0.2419 0.344351,-0.3778 0.291836,-0.3868 0.392785,-0.7527 0.440714,-1.2222 -0.171967,-1.021 -1.139898,-1.3849 -2.036347,-1.5946 -0.425041,-0.025 -0.608596,-0.085 -1.018275,0.06 -0.147713,0.05 -0.551916,0.2993 -0.41204,0.228 0.574503,-0.2934 1.109154,-0.6759 1.716393,-0.8936 0.145206,-0.05 -0.196563,0.2401 -0.270164,0.3758 -0.07003,0.1301 -0.105291,0.2753 -0.157971,0.4129 -0.119196,0.6875 0.07919,1.544 0.824663,1.7931 0.13563,0.041 0.282083,0.05 0.423124,0.066 0.428627,-0.035 0.47831,0 0.890399,-0.1505 0.785983,-0.2751 3.139957,-1.7351 -0.77023,0.5043 1.874474,-1.2455 2.258514,-2.1838 2.832216,-0.551 0.332351,0.6868 0.631022,0.7928 1.347743,0.5911 0.132212,-0.085 0.536326,-0.3135 0.396618,-0.2451 -0.532576,0.2602 -1.007284,0.6568 -1.576727,0.8212 -0.226812,0.066 0.336934,-0.3311 0.492147,-0.5087 0.611099,-0.7002 1.039233,-1.4693 1.46976,-2.287 1.014636,-2.1796 1.657593,-4.4939 2.132809,-6.8429 0.105359,-1.1942 0.547913,-2.5121 0.351521,-3.719 -0.74547,-0.3009 -0.34727,-0.1254 1.996411,-1.0053 0.11254,-0.041 -0.153457,0.1869 -0.20739,0.2952 -0.09454,0.1869 -0.167226,0.3868 -0.23532,0.5861 -0.293838,0.8589 -0.309844,1.0894 -0.51282,2.0369 -0.518237,2.7991 -0.589842,5.6396 -0.214229,8.4566 0.201396,0.6768 0.345019,2.1109 1.279247,2.2834 0.367775,0.066 0.629603,-0.1595 0.922383,-0.3244 -0.498315,0.2519 -0.950366,0.6329 -1.494944,0.7552 -0.250907,0.06 0.373028,-0.3542 0.549497,-0.5418 0.56942,-0.6034 1.035331,-1.2877 1.63151,-1.8654 0.782981,-0.446 1.525234,-0.9728 2.349063,-1.338 0.106614,-0.05 0.220475,0.087 0.311928,0.1573 0.381445,0.3016 0.555496,0.8017 0.798986,1.2015 0.103534,0.1709 0.223575,0.3285 0.335348,0.4935 0.7804,0.9221 1.899863,1.5285 3.134634,1.4683 0.25207,0 0.498737,-0.075 0.74814,-0.1163 -0.421211,0.401 1.8181,-0.8267 1.358434,-0.6319 -0.519479,0.2212 -0.967702,0.6228 -1.517158,0.7521 -0.195583,0.05 0.262009,-0.3078 0.363288,-0.4811 0.248239,-0.4251 0.203789,-0.4925 0.235474,-0.9498 -0.05334,-0.1117 -0.07841,-0.2435 -0.159339,-0.3385 -0.653014,-0.7577 -2.347542,-0.1504 -3.08553,0.1163 -0.240822,0.114 -0.486144,0.221 -0.722382,0.3441 -0.22132,0.1163 -0.868224,0.4945 -0.649277,0.3743 0.504069,-0.2766 0.98877,-0.5901 1.504624,-0.8438 0.15389,-0.075 -0.276832,0.2028 -0.41354,0.3068 -0.286837,0.2166 -0.24599,0.1869 -0.470225,0.3843 0,0 -2.251484,0.9248 -2.251484,0.9248 l 0,0 c 1.342665,-1.3511 3.180153,-2.1286 4.875178,-2.9469 0.923183,-0.2952 2.571277,-0.7978 3.313466,0.1504 0.100298,0.1276 0.138139,0.2949 0.207209,0.4418 -0.0012,0.1778 0.02758,0.3583 -0.0023,0.5333 -0.260663,1.4905 -1.987628,2.0519 -3.081115,2.7266 -0.208804,0.1299 -0.426954,0.246 -0.655203,0.336 -0.24416,0.095 -0.50382,0.1482 -0.75573,0.2235 -0.259068,0.025 -0.516977,0.075 -0.777303,0.075 -1.293476,0 -2.445992,-0.6693 -3.263994,-1.6363 -0.295004,-0.426 -0.533991,-0.9437 -0.859156,-1.3388 -0.06419,-0.075 -0.132531,-0.1595 -0.222071,-0.2051 -0.05918,-0.035 -0.255826,0.025 -0.200644,-0.023 0.572003,-0.3959 1.189578,-0.7209 1.784371,-1.0815 -0.456718,0.3802 -0.786734,0.8128 -1.165129,1.2705 -1.07823,1.3038 -1.865846,1.9726 -3.633537,2.7834 -0.18455,0.066 -0.359524,0.171 -0.553666,0.196 -1.314714,0.1755 -1.634868,-1.6834 -1.83602,-2.5599 -0.34677,-2.8393 -0.281666,-5.6981 0.181564,-8.5248 0.04333,-0.2365 1.119165,-6.802 3.212461,-4.0686 0.178715,1.2751 -0.280415,2.5767 -0.398869,3.8366 -0.482059,2.3595 -1.114329,4.6864 -2.092386,6.8947 -1.188497,2.3818 -2.127867,3.5453 -4.857559,4.649 -0.784067,0.098 -1.208336,-0.1572 -1.543569,-0.8737 -0.05501,-0.1459 -0.09435,-0.2993 -0.159384,-0.4409 -0.01094,-0.025 -0.02334,-0.059 -0.0492,-0.059 -0.02257,0 -0.07752,0.05 -0.05835,0.035 2.026027,-1.1796 2.60684,-1.6136 1.826425,-1.042 -0.576837,0.3376 -2.367711,1.5673 -3.415121,1.8355 -0.442216,0.114 -0.500734,0.085 -0.95326,0.066 -0.155873,-0.041 -0.32001,-0.066 -0.467554,-0.1322 -0.797321,-0.3611 -1.058699,-1.2777 -0.980242,-2.0799 0.429878,-1.4839 1.006665,-1.3688 2.780133,-2.4183 0.46489,-0.2749 1.013694,-0.2366 1.520961,-0.1527 1.009966,0.2776 1.991284,0.7545 2.218927,1.8755 -0.08568,2.043 -1.898698,2.821 -3.72298,3.4985 -1.339883,0.2233 -2.359695,-0.06 -3.539819,-0.7211 -0.518322,-0.325 -0.427712,-0.2485 -0.894742,-0.6161 -0.256075,-0.2006 -0.509234,-0.4817 -0.80624,-0.6285 -0.04668,-0.025 -0.09962,-0.035 -0.149376,-0.041 -0.813826,0.3003 -0.241906,0.097 1.855601,-1.1202 0.05085,-0.035 -0.09921,0.066 -0.142721,0.1049 -0.260244,0.2376 -0.479976,0.5227 -0.780233,0.717 -0.820241,0.48 -1.635617,0.9683 -2.460647,1.4399 -0.745388,0.426 -1.567641,0.5553 -2.372004,0.2142 -0.814909,-0.4941 -1.264801,-1.0594 -1.591513,-1.9581 -0.443716,-1.0153 -0.192802,-0.2029 1.966299,-1.561 0.02006,0 -0.05252,0 -0.0642,0.025 -0.03584,0.06 -0.04668,0.13 -0.07085,0.1961 -0.105291,0.2792 -0.132713,0.3367 -0.25666,0.6335 -0.298921,0.6651 -0.947431,2.1525 -1.527136,2.556 -0.803905,0.5593 -1.666446,1.0301 -2.499668,1.5452 -0.160958,0.06 -0.315678,0.1368 -0.482976,0.1733 -0.842651,0.1801 -1.562875,-0.3094 -2.0138,-0.9799 -0.504148,-0.9276 -0.589174,-1.9459 -0.31426,-2.9671 0.364193,-0.9781 1.892163,-3.8881 3.043879,-1.9907 0.170304,1.0816 -0.572585,2.0594 -1.229796,2.8366 -1.275338,1.3283 -0.567004,0.6928 -3.326249,2.3076 -0.940935,0.55 -1.985513,0.7793 -3.031407,0.4151 -0.192301,-0.1208 -0.403537,-0.2165 -0.576838,-0.3636 -0.86946,-0.7376 -1.108104,-1.9649 -0.962954,-3.0402 0.03251,-0.1231 0.186306,-0.8293 0.344103,-0.9421 1.397456,-0.9967 2.14241,-1.7244 3.650168,-1.4354 0.922849,0.2751 1.692194,0.7444 1.670896,1.8104 -0.47414,1.9628 -2.119312,3.0782 -4.076728,3.6371 -1.306098,0.1551 -2.188626,-0.1595 -3.267288,-0.8948 -0.616097,-0.4604 -1.392728,-0.9226 -1.571823,-1.7256 1.512724,-0.8547 2.03431,-1.7557 3.339256,-0.869 0.06335,0.075 0.143543,0.1413 0.189475,0.2283 0.619934,1.1836 -2.718049,2.6646 -2.731612,2.4442 -1.156376,0.3608 -2.103666,0.085 -3.175469,-0.4386 -1.494051,-0.7427 -2.916482,-1.6205 -4.307195,-2.541 -0.5989293,-0.3667 -1.1926713,-0.7868 -1.8524173,-1.0413 -0.1515426,-0.059 -0.3076761,-0.1094 -0.46789,-0.1344 -0.130548,-0.025 -0.4985652,0.085 -0.3966178,0 0.5348258,-0.4409 1.1697728,-0.7436 1.7546638,-1.1152 -0.969022,0.656 -0.847768,2.1397 -1.0147931,3.159 -0.091938,2.5727 0.1192871,5.1303 0.8765511,7.6059 0.481561,1.5933 1.2269643,4.2131 2.7331873,5.1669 0.185394,0.1185 0.411623,0.1528 0.617519,0.2284 -0.480644,0.3592 -0.985552,0.6878 -1.441821,1.0778 -0.179376,0.1527 0.431377,-0.2074 0.606679,-0.3643 1.240053,-1.1167 1.699547,-3.0627 2.283296,-4.5404 0.400453,-1.5106 0.645025,-2.3294 0.939687,-3.8926 0.601345,-3.1915 0.894441,-6.4384 1.020585,-9.6801 0.114706,-4.0456 0.08085,-8.0925 -0.131118,-12.135 -0.04001,-0.7037 -0.08936,-1.4069 -0.12845,-2.1106 -0.01163,-0.2029 -0.01504,-0.4067 -0.02419,-0.6102 -0.0048,-0.1006 -0.101533,-0.2442 -0.01824,-0.3016 0.676786,-0.4687 1.443797,-0.7913 2.166503,-1.1856 0.02165,0 -0.04167,0.025 -0.06253,0.041 -0.255493,0.6585 -0.378279,1.3761 -0.471641,2.0722 0,0 -2.182424,1.0733 -2.182424,1.0733 z"
       inkscape:connector-curvature="0" />
    <path
       style="fill:#000000"
       id="path3591"
       d="m 47.620769,1024.2275 c 0.269997,-0.6084 0.75956,-1.0451 1.333721,-1.3771 2.445309,-1.4153 3.025139,-1.7404 5.410373,-2.4024 2.237897,-0.6335 4.555136,-0.8368 6.856376,-1.0968 0,0 -1.863452,1.3852 -1.863452,1.3852 l 0,0 c -2.295673,0.2503 -4.602849,0.4753 -6.829627,1.1263 -0.431211,0.1254 -0.867933,0.2334 -1.293652,0.3834 -0.388947,0.1345 -1.039633,0.8437 -1.148124,0.4502 -0.113543,-0.4169 0.721631,-0.4668 1.076571,-0.7087 0.125874,-0.082 -0.682371,0.3335 -1.126402,0.8562 -0.08894,0.1072 -0.141215,0.2334 -0.211812,0.3502 0,0 -2.203981,1.0353 -2.203981,1.0353 z"
       inkscape:connector-curvature="0" />
  </g>
</svg>
