<?xml version="1.0" encoding="UTF-8" standalone="no"?>
<!-- Created with Inkscape (http://www.inkscape.org/) -->

<svg
   xmlns:dc="http://purl.org/dc/elements/1.1/"
   xmlns:cc="http://creativecommons.org/ns#"
   xmlns:rdf="http://www.w3.org/1999/02/22-rdf-syntax-ns#"
   xmlns:svg="http://www.w3.org/2000/svg"
   xmlns="http://www.w3.org/2000/svg"
   xmlns:sodipodi="http://sodipodi.sourceforge.net/DTD/sodipodi-0.dtd"
   xmlns:inkscape="http://www.inkscape.org/namespaces/inkscape"
   width="177.16534"
   height="53.149605"
   id="svg3041"
   version="1.1"
   inkscape:version="0.48.3.1 r9886"
   sodipodi:docname="New document 4">
  <defs
     id="defs3043" />
  <sodipodi:namedview
     id="base"
     pagecolor="#ffffff"
     bordercolor="#666666"
     borderopacity="1.0"
     inkscape:pageopacity="0.0"
     inkscape:pageshadow="2"
     inkscape:zoom="6.7789782"
     inkscape:cx="89.367644"
     inkscape:cy="25.984743"
     inkscape:document-units="px"
     inkscape:current-layer="layer1"
     showgrid="false"
     units="cm"
     inkscape:window-width="1366"
     inkscape:window-height="744"
     inkscape:window-x="0"
     inkscape:window-y="24"
     inkscape:window-maximized="1" />
  <metadata
     id="metadata3046">
    <rdf:RDF>
      <cc:Work
         rdf:about="">
        <dc:format>image/svg+xml</dc:format>
        <dc:type
           rdf:resource="http://purl.org/dc/dcmitype/StillImage" />
        <dc:title></dc:title>
      </cc:Work>
    </rdf:RDF>
  </metadata>
  <g
     inkscape:label="Layer 1"
     inkscape:groupmode="layer"
     id="layer1"
     transform="translate(0,-999.21127)">
    <path
       style="fill:#000000"
       id="path3123"
       d="m 2.4550575,1023.5079 c 1.7385952,-0.066 3.4253252,-0.5622 5.0565813,-1.1318 1.0285446,-0.4444 1.2877936,-0.5192 2.2639722,-1.0936 0.040372,-0.024 -0.1750924,0.051 -0.1389726,0.02 0.349569,-0.2888 0.7399366,-0.525 1.0933206,-0.8091 0.927495,-0.7453 1.177847,-1.0423 2.013756,-1.8812 1.442239,-1.564 2.716727,-3.3065 3.628613,-5.236 0.155855,-0.3298 0.285213,-0.6715 0.42782,-1.007 0.499299,-1.368 0.820329,-2.8413 0.407938,-4.2769 -0.05962,-0.2076 -0.153081,-0.4038 -0.229622,-0.6057 -0.359467,-0.7076 -0.921147,-1.3508 -1.74594,-1.4813 -0.129397,-0.02 -0.261672,-0.013 -0.392508,-0.019 -0.123326,0.025 -0.250732,0.036 -0.369966,0.077 -0.118219,0.04 -0.445871,0.2246 -0.336899,0.1637 0.337311,-0.1887 0.654495,-0.4283 1.022291,-0.5469 0.135793,-0.044 -0.2091,0.1966 -0.293363,0.3117 -0.249177,0.3404 -0.290111,0.5492 -0.434952,0.9487 -0.440707,1.5849 -0.276236,3.2284 -0.108114,4.8391 0.292502,2.3371 0.76895,4.6468 1.195258,6.9622 0.287404,1.6122 0.609704,3.2212 0.777973,4.852 0.09748,0.9447 0.104374,1.4115 0.146279,2.3577 0.02188,1.4731 -0.118178,2.9419 -0.511139,4.3646 -0.249175,0.9022 -0.367592,1.1254 -0.716029,1.9898 -0.732836,1.6032 -1.798572,3.0577 -3.185945,4.1576 -0.248031,0.1967 -0.516095,0.3665 -0.774142,0.5497 -0.982411,0.5394 -3.1853376,2.1404 -4.5493109,1.3104 -0.1312808,-0.08 -0.2258233,-0.2083 -0.3387349,-0.3126 -0.061067,-0.1391 -0.1516354,-0.2685 -0.1832079,-0.417 -0.1705739,-0.8024 0.3901376,-1.6497 0.9004035,-2.203 0.1718865,-0.1863 0.3705673,-0.3461 0.5558513,-0.5191 1.305855,-0.956 2.7884409,-2.0041 4.4654179,-1.5542 0.189663,0.051 0.368852,0.1349 0.553277,0.2023 0.969605,0.479 1.678919,1.3096 2.582319,1.8836 0.469552,0.264 0.997073,0.3594 1.498816,0.1144 0.133992,-0.065 0.517052,-0.2927 0.377769,-0.2395 -0.320183,0.1224 -0.616805,0.2992 -0.925208,0.4487 1.046955,-1.0023 1.786652,-2.2688 2.49457,-3.5203 0.357513,-0.6529 0.668088,-1.3359 1.063997,-1.9674 0.486156,-0.1983 0.948387,-0.4705 1.458467,-0.595 0.07681,-0.018 0.0099,0.158 0.0082,0.237 -0.0026,0.1145 -0.01685,0.2284 -0.02086,0.3429 -0.0184,0.5255 0.0258,1.033 0.08453,1.5548 0.162372,1.0785 0.401945,2.0291 1.174277,2.8315 0.278646,0.1962 0.554428,0.2785 0.881147,0.1353 0.112797,-0.049 0.427048,-0.244 0.314597,-0.1938 -1.026559,0.4584 -1.287579,0.8031 -0.608704,0.1156 0.726714,-0.8393 1.240309,-1.8238 1.769237,-2.7917 0.401062,-0.7082 0.605635,-0.7576 1.724659,-1.1395 0.04854,-0.016 0.352758,0.7598 0.369063,0.8007 0.395726,0.9406 0.886589,1.6356 1.696678,2.2567 0.82976,0.537 1.675473,0.5395 2.596294,0.2752 0.430767,-0.1357 0.846505,-0.319 1.233701,-0.5507 0,0 -1.221281,0.9866 -1.221281,0.9866 l 0,0 c -0.397678,0.2095 -0.811043,0.3908 -1.245885,0.5092 -0.9642,0.2271 -1.830386,0.1778 -2.672343,-0.3954 -0.82489,-0.6513 -1.321595,-1.361 -1.749307,-2.3189 -0.118396,-0.2771 -0.129126,-0.3174 -0.254563,-0.5626 -0.01396,-0.027 -0.07132,-0.063 -0.04615,-0.08 2.19788,-1.5283 1.320352,-0.9592 0.989156,-0.4165 -0.548803,0.9682 -1.057413,1.9648 -1.764488,2.8323 -0.770669,0.8424 -0.328268,0.4265 -2.031772,1.4556 -0.460771,0.2782 -0.899076,0.2199 -1.310488,-0.1095 -0.09235,-0.1017 -0.194552,-0.1953 -0.277063,-0.305 -0.565175,-0.7526 -0.773277,-1.7148 -0.928809,-2.621 -0.08045,-0.6359 -0.130942,-1.255 -0.106348,-1.8958 0.0024,-0.063 -0.04379,-0.1502 0.0068,-0.186 0.435833,-0.3085 0.924891,-0.534 1.387337,-0.8009 -0.144595,0.166 -0.246299,0.364 -0.356249,0.5541 -0.270118,0.467 -0.531171,0.9395 -0.773994,1.4213 -0.708078,1.2548 -1.440621,2.5232 -2.451476,3.5625 -0.571156,0.3687 -1.136291,0.7469 -1.71347,1.106 -0.651074,0.4053 -1.325383,0.3826 -1.976495,-0.013 -0.878963,-0.5854 -1.583428,-1.4047 -2.551093,-1.8599 -0.583348,-0.1967 -1.105671,-0.3326 -1.7297353,-0.2279 -0.2190901,0.038 -0.6551656,0.3965 -0.643126,0.1747 0.014352,-0.2646 0.4599288,-0.2697 0.6578314,-0.4458 0.1861424,-0.1656 -0.4148221,0.276 -0.6222312,0.4141 -0.1869274,0.1654 -0.3865153,0.3175 -0.5607813,0.4961 -0.4825908,0.495 -1.0714326,1.2904 -0.9467173,2.0398 0.021286,0.1279 0.098806,0.2398 0.1481925,0.3596 0.1004239,0.088 0.1844173,0.2 0.3012685,0.2653 0.5015176,0.2796 1.1340724,0.1699 1.6522759,0.022 0.2499938,-0.072 0.4915238,-0.3557 0.7345018,-0.2629 0.193506,0.075 -0.343884,0.2309 -0.515827,0.3463 0.261514,-0.1791 0.532915,-0.3446 0.784547,-0.5373 1.398097,-1.0709 2.47848,-2.5058 3.218884,-4.0952 0.35589,-0.8619 0.470244,-1.0692 0.726327,-1.9696 0.401364,-1.4114 0.556553,-2.8681 0.540309,-4.3332 -0.03704,-0.8955 -0.04728,-1.4556 -0.136446,-2.3492 -0.162526,-1.6289 -0.486424,-3.2355 -0.772501,-4.8454 -0.427309,-2.3161 -0.906657,-4.6254 -1.222286,-6.9601 -0.184317,-1.6214 -0.3644,-3.2727 0.03814,-4.8783 0.130385,-0.4106 0.171132,-0.6353 0.398073,-0.9977 0.437126,-0.6978 1.184508,-0.9217 1.925556,-1.3361 0.111552,-0.063 0.235241,-0.1038 0.359593,-0.1331 0.12754,-0.03 0.260462,-0.03 0.390694,-0.045 0.136714,0.015 0.275767,0.017 0.410143,0.047 0.853006,0.1881 1.427845,0.8664 1.79859,1.6158 0.07793,0.21 0.172705,0.4146 0.233776,0.6302 0.416502,1.4699 0.107295,2.9716 -0.401608,4.3751 -0.143559,0.3404 -0.273859,0.6866 -0.430678,1.021 -0.911858,1.9444 -2.188267,3.7018 -3.629547,5.2849 -0.825735,0.8394 -1.089355,1.1524 -2.004229,1.9008 -1.714301,1.4026 -3.6951018,2.4798 -5.7349634,3.3253 -1.6704574,0.5732 -3.3915294,1.0685 -5.1667758,1.1511 0,0 1.2733354,-0.925 1.2733354,-0.925 z"
       inkscape:connector-curvature="0" />
    <path
       style="fill:#000000"
       id="path3125"
       d="m 36.5268,1036.2271 c -0.954824,-0.043 -1.760057,-0.5153 -2.492801,-1.0885 -0.847686,-0.8011 -1.126002,-1.5898 -1.110297,-2.7346 0.0784,-0.7368 0.307459,-1.4646 0.739523,-2.0712 0.492723,-0.2921 0.961286,-0.6296 1.47817,-0.8767 0.05963,-0.028 0.129155,0.042 0.17923,0.085 0.318648,0.2744 0.464603,1.0026 0.582007,1.3798 0.309694,1.0384 0.586094,2.0921 1.115171,3.0439 0.224278,0.3409 0.510173,0.6866 0.965841,0.6202 0.09348,-0.014 0.34986,-0.1369 0.269891,-0.086 -0.338514,0.2129 -0.70087,0.3854 -1.051304,0.5782 0.820379,-0.657 1.506442,-1.4712 2.242524,-2.2213 0.341775,-0.3118 0.659687,-0.6747 1.069561,-0.9033 0.4155,-0.2316 1.264152,-1.0215 1.984047,-0.876 0.104593,0.021 0.198801,0.078 0.298203,0.1163 0.772598,0.4963 0.880813,1.371 0.892855,2.2177 -0.110198,0.985 -0.381433,1.9742 -0.936527,2.8034 -0.593387,0.5176 -0.604529,0.5592 -1.818654,1.0011 -0.09283,0.034 -0.18829,-0.07 -0.266261,-0.1301 -0.344259,-0.2679 -0.45488,-0.7112 -0.576098,-1.1027 -0.146869,-0.7883 -0.164544,-1.6714 0.402154,-2.3113 0.09688,-0.1095 0.219966,-0.1925 0.32995,-0.2888 0.57971,-0.3149 1.136086,-0.6771 1.739131,-0.9446 0.146643,-0.065 0.319297,-0.044 0.479634,-0.039 0.779749,0.025 1.420403,0.4323 2.056408,0.835 0.920624,0.6432 1.754467,1.3987 2.636436,2.0917 0.229038,0.1719 0.475106,0.3172 0.724506,0.4564 0,0 -1.322902,0.8576 -1.322902,0.8576 l 0,0 c -0.246119,-0.1521 -0.489544,-0.3086 -0.717606,-0.4875 -0.86207,-0.7049 -1.688686,-1.4578 -2.610275,-2.0865 -0.618006,-0.3772 -1.252822,-0.7693 -2.008976,-0.7404 -0.153769,0.01 -0.55797,0.1903 -0.4554,0.075 0.24377,-0.2726 0.613967,-0.3975 0.920952,-0.5962 -0.115224,0.084 -0.242635,0.153 -0.345681,0.2513 -0.600775,0.5735 -0.606134,1.4232 -0.469806,2.1828 0.106685,0.3437 0.118637,0.4905 0.326857,0.7775 0.05393,0.075 0.117419,0.1458 0.195795,0.1937 0.06374,0.04 0.272935,0.01 0.216405,0.058 -0.151824,0.131 -1.71797,1.0863 -0.870154,0.5679 0.605806,-0.7731 0.860502,-1.7621 0.993241,-2.7209 -0.0023,-0.7716 -0.0723,-1.6179 -0.81334,-2.0407 -0.08853,-0.024 -0.174196,-0.064 -0.265591,-0.071 -0.519529,-0.04 -1.066189,0.5375 0.731818,-0.6154 0.111404,-0.071 -0.230975,0.1303 -0.338094,0.208 -0.261228,0.1896 -0.52728,0.4532 -0.760672,0.6712 -0.738616,0.7472 -1.433586,1.5405 -2.206384,2.2503 -0.574484,0.3241 -1.695379,1.4 -2.517609,0.7868 -0.213536,-0.1592 -0.318078,-0.3492 -0.46986,-0.5649 -0.524276,-0.9649 -0.798704,-2.0291 -1.125717,-3.0722 -0.08143,-0.2483 -0.192434,-0.6078 -0.297265,-0.8557 -0.02343,-0.056 -0.133909,-0.3212 -0.23379,-0.3713 -0.03266,-0.016 -0.139745,0.028 -0.109289,0.01 0.391953,-0.2601 0.803004,-0.49 1.204508,-0.7349 -0.473163,0.5579 -0.70611,1.2756 -0.805582,1.9928 -0.04328,1.1024 0.210791,1.8447 1.036307,2.6094 0.724897,0.5551 1.520903,0.9986 2.462207,0.9852 0,0 -1.277392,0.9281 -1.277392,0.9281 z"
       inkscape:connector-curvature="0" />
    <path
       style="fill:#000000"
       id="path3127"
       d="m 64.418589,1033.0649 c -0.209649,-2.0246 -0.541296,-4.0352 -0.815712,-6.052 -0.396799,-2.8084 -0.64797,-5.6412 -0.53009,-8.4779 0.101263,-0.5985 0.123408,-1.8642 0.770283,-2.2234 1.727762,-0.9591 1.167156,-1.0111 2.243737,-0.6585 0.200154,0.1297 0.413984,0.2404 0.600463,0.3891 1.131912,0.9028 2.096477,2.2557 2.805669,3.5014 0.224107,0.3937 0.414244,0.8057 0.621366,1.2085 1.018613,2.1979 1.435064,4.5898 1.188115,7.0023 -0.04817,0.4703 -0.144444,0.9346 -0.216665,1.402 -0.407516,1.9546 -1.13915,3.8253 -2.406343,5.3797 -0.594567,0.647 -0.925199,0.8352 -1.952728,1.0092 -0.127675,0.022 0.191665,-0.1747 0.294836,-0.2529 0.14978,-0.1136 0.308715,-0.2147 0.463074,-0.322 2.18262,-1.4081 4.607543,-2.3174 7.00867,-3.2645 0.929277,-0.37 1.868469,-0.7299 2.759816,-1.1872 0.217578,-0.1117 0.876434,-0.4196 0.63921,-0.3603 -0.68596,0.172 -1.188729,0.7787 -0.541643,0.094 0.04693,-0.1015 0.115657,-0.1961 0.140785,-0.3054 0.125467,-0.5455 -0.405896,-0.9245 -0.851784,-1.0752 -0.165272,-0.056 -0.341502,-0.073 -0.512254,-0.108 -0.47952,0 -0.669338,-0.028 -1.138374,0.1129 -0.183323,0.056 -0.692635,0.3232 -0.529105,0.2235 1.622243,-0.9879 0.819979,-0.4763 0.588556,-0.069 -0.07741,0.1365 -0.106542,0.2951 -0.159802,0.4426 0.0079,0.1632 -0.0092,0.3294 0.02365,0.4895 0.235341,1.1477 1.295864,1.9804 2.15395,2.6679 0.882401,0.6425 1.821423,1.2049 2.802888,1.6817 0.23849,0.109 0.130928,0.075 0.316234,0.1211 0,0 -1.313567,0.8895 -1.313567,0.8895 l 0,0 c -0.182284,-0.08 -0.07752,-0.03 -0.311792,-0.1504 -0.965494,-0.5123 -1.901249,-1.0829 -2.779167,-1.7353 -0.895089,-0.7258 -1.95689,-1.5791 -2.239765,-2.7631 -0.04214,-0.1764 -0.03505,-0.361 -0.05258,-0.5414 0.04654,-0.1632 0.06705,-0.3363 0.139607,-0.4897 0.423965,-0.8964 2.117577,-1.7185 3.179617,-1.7786 0.195779,-0.01 0.39195,0.013 0.587926,0.021 0.179135,0.046 0.364651,0.071 0.537405,0.1362 0.518364,0.197 1.061603,0.6502 0.975777,1.2696 -0.01743,0.1259 -0.085,0.2394 -0.127501,0.359 -0.739739,0.8581 -0.25032,0.3597 -2.074254,1.4638 -1.054286,0.6382 -2.240412,1.0287 -3.371366,1.5007 -1.110934,0.4393 -2.225493,0.8723 -3.32096,1.3495 -0.325226,0.1416 -0.620837,0.3738 -0.969621,0.4386 -0.198634,0.037 0.696443,-0.3562 0.494497,-0.3505 -0.238122,0.011 -0.413853,0.2361 -0.62078,0.3542 -0.149978,0.1016 -0.301749,0.2003 -0.449936,0.3044 -0.09905,0.07 -0.183989,0.1609 -0.29159,0.2163 -0.524731,0.2701 -1.067057,0.5048 -1.600268,0.7579 -0.04426,0.02 0.09256,-0.035 0.133436,-0.063 0.210012,-0.1388 0.37133,-0.3137 0.553773,-0.4877 1.329217,-1.5147 2.090265,-3.384 2.518607,-5.3415 0.07506,-0.4632 0.174127,-0.9233 0.225205,-1.3899 0.261313,-2.3867 -0.143538,-4.7568 -1.159187,-6.93 -0.206539,-0.3983 -0.395493,-0.8059 -0.619618,-1.1945 -0.70175,-1.2166 -1.67872,-2.5673 -2.82376,-3.4105 -0.183593,-0.1352 -0.394688,-0.2285 -0.592034,-0.3426 -0.863409,-0.1879 -0.647257,-0.014 0.471865,-0.8033 0.107447,-0.075 -0.228504,0.1396 -0.312528,0.2407 -0.43355,0.5219 -0.449718,1.274 -0.568993,1.901 -0.180184,2.8334 0.05026,5.6697 0.475791,8.474 0.292387,2.003 0.634234,3.9974 0.932484,5.9993 0,0 -1.393521,0.726 -1.393521,0.726 z"
       inkscape:connector-curvature="0" />
    <path
       style="fill:#000000"
       id="path3129"
       d="m 96.414567,1018.7668 c 0.07196,-0.4196 0.324197,-0.7474 0.687994,-0.9746 1.680226,-1.0499 1.951207,-1.1862 3.634359,-1.5777 1.91935,-0.3336 3.87105,-0.2087 5.79468,0.011 0.43925,0.094 0.91217,0.068 1.34666,0.1938 0.0345,0.011 0.12132,0.034 0.0925,0.056 -1.36155,1.0155 -0.89226,0.9814 -1.76701,0.916 -1.50991,-0.2131 -3.02409,-0.2373 -4.54249,-0.1315 -0.766,0.082 -1.55184,0.1741 -2.268502,0.4791 -0.192229,0.082 -0.752487,0.3549 -0.551633,0.2972 0.298848,-0.085 0.546693,-0.4494 0.850253,-0.3827 0.198886,0.043 -0.243833,0.3263 -0.365749,0.4894 -0.09126,0.2124 -0.204507,0.4168 -0.273783,0.6374 -0.45669,1.4548 -0.227969,3.0707 -0.04743,4.5487 0.203622,1.5777 0.569458,3.1171 1.195644,4.5796 0.24037,0.3987 0.24571,0.5444 0.684,0.69 0,0 -1.30723,0.8705 -1.30723,0.8705 l 0,0 c -0.420547,-0.2203 -0.498962,-0.3747 -0.720933,-0.8078 -0.598101,-1.4903 -0.973794,-3.0424 -1.175715,-4.637 -0.187138,-1.4996 -0.41962,-3.117 -0.01286,-4.604 0.06258,-0.2289 0.167676,-0.444 0.251519,-0.6662 0.116062,-0.1751 0.183397,-0.3951 0.348184,-0.5255 1.606679,-1.2715 2.656205,-1.6922 4.607435,-1.8623 1.53645,-0.094 3.06403,-0.049 4.59573,0.1079 0.1112,0 0.41065,-0.095 0.33357,-0.016 -0.33782,0.3522 -0.76829,0.6024 -1.16656,0.8843 -0.0146,0.011 -0.0305,-0.019 -0.0479,-0.025 -0.42411,-0.1135 -0.86722,-0.1394 -1.29833,-0.212 -1.90703,-0.2307 -3.84538,-0.346 -5.74477,0.021 -0.31143,0.08 -0.627374,0.1422 -0.934313,0.2374 -0.268365,0.083 -0.657141,0.5449 -0.788935,0.2969 -0.131009,-0.2469 0.456167,-0.3295 0.711796,-0.442 0.156937,-0.069 -0.2862,0.1917 -0.410832,0.3095 -0.08875,0.084 -0.162835,0.184 -0.223586,0.2899 -0.04078,0.071 -0.05114,0.1554 -0.07665,0.2332 0,0 -1.409081,0.7179 -1.409081,0.7179 z"
       inkscape:connector-curvature="0" />
    <path
       style="fill:#000000"
       id="path3131"
       d="m 106.54365,1018.511 c 1.14199,0.2658 1.77248,1.282 2.37798,2.196 1.07566,1.7179 1.69596,3.6525 2.15397,5.612 0.28048,1.4671 0.48227,3.0054 0.18958,4.4894 -0.0448,0.2271 -0.1179,0.4477 -0.17685,0.6715 -0.26634,0.7607 -0.68464,1.4893 -1.4025,1.908 -1.81444,1.0584 -1.25466,0.8722 -2.5028,1.1545 -1.39066,0.1509 -2.63669,-0.1059 -3.86041,-0.7696 -0.47226,-0.3335 -0.84273,-0.7905 -0.78384,-1.4027 0.0125,-0.1292 0.0615,-0.2521 0.0924,-0.378 0,0 1.40923,-0.6691 1.40923,-0.6691 l 0,0 c -0.0376,0.1121 -0.0922,0.2198 -0.11241,0.3364 -0.097,0.5581 0.25947,0.9705 0.686,1.2695 1.1899,0.6383 2.4416,0.8829 3.78589,0.6833 0.20575,-0.056 0.70053,-0.3634 0.61726,-0.1671 -0.11919,0.2808 -0.50685,0.3401 -0.7618,0.5078 -0.16091,0.1057 0.33241,-0.198 0.47966,-0.3223 0.46852,-0.395 0.76444,-0.9291 0.97487,-1.4945 0.0638,-0.2193 0.14205,-0.435 0.19142,-0.6579 0.32447,-1.4659 0.1335,-2.9981 -0.13491,-4.454 -0.44608,-1.9439 -1.06795,-3.8584 -2.15469,-5.5488 -0.58976,-0.8626 -1.21602,-1.8864 -2.34536,-2.0365 0,0 1.27739,-0.9279 1.27739,-0.9279 z"
       inkscape:connector-curvature="0" />
    <path
       style="fill:#000000"
       id="path3133"
       d="m 104.66787,1025.933 c 0.64338,-1.3737 1.94828,-1.9308 3.21462,-2.6588 0.91463,-0.4397 1.8757,-0.3922 2.81998,-0.095 0,0 -1.28496,0.8771 -1.28496,0.8771 l 0,0 c -0.93029,-0.2704 -1.85881,-0.2706 -2.73726,0.1887 0.28787,-0.1729 0.56321,-0.3683 0.86358,-0.5182 0.15168,-0.076 -0.28096,0.1902 -0.4148,0.2942 -0.43489,0.3381 -0.78985,0.7536 -1.02557,1.2538 0,0 -1.43559,0.6595 -1.43559,0.6595 z"
       inkscape:connector-curvature="0" />
    <path
       style="fill:#000000"
       id="path3135"
       d="m 110.54325,1028.7772 c -0.52466,0.7185 -0.4912,1.4389 -0.28907,2.2665 0.2664,0.6865 0.72551,1.3734 1.49235,1.5516 0.13178,0.031 0.26964,0.023 0.40446,0.034 -0.1663,0.2466 1.15,-0.4676 0.87254,-0.3278 -0.28967,0.1459 -0.54337,0.4292 -0.86754,0.4409 -0.20746,0.01 0.31048,-0.2765 0.45425,-0.4264 0.34132,-0.3555 0.49614,-0.5872 0.78942,-0.9792 0.29807,-0.4068 0.56533,-0.8353 0.85466,-1.248 0.0592,-0.085 0.27312,-0.3935 0.38559,-0.463 0.49904,-0.3088 1.01973,-0.5811 1.5296,-0.8718 0.64474,0.1631 0.99977,0.842 1.32685,1.3681 0.33364,0.5153 0.64917,1.1483 1.25163,1.38 -0.2894,0.3465 0.99366,-0.3416 0.76887,-0.221 -0.34316,0.1845 -0.6674,0.4075 -1.02612,0.5594 -0.13252,0.057 0.22669,-0.1775 0.33851,-0.2681 0.11909,-0.097 0.23616,-0.1959 0.35425,-0.2937 1.02449,-0.7846 2.10047,-1.7319 3.37644,-2.045 0.12899,-0.032 0.26303,-0.037 0.39453,-0.057 1.05024,0.089 1.31968,0.6935 1.43247,1.651 -0.13142,1.8459 -0.85782,1.9287 -2.47535,2.8231 -0.86406,0.048 -1.3653,-0.6602 -1.67939,-1.3732 -0.11978,-0.5067 -0.085,-0.2512 -0.10565,-0.7663 0,0 1.38851,-0.7112 1.38851,-0.7112 l 0,0 c 6.9e-4,0.4791 -0.0234,0.241 0.0737,0.7146 0.27867,0.6504 0.75246,1.3253 1.54975,1.1656 -0.34481,0.2148 -0.68404,0.4388 -1.03442,0.6444 -0.10555,0.062 0.2108,-0.128 0.2989,-0.2128 0.42309,-0.4075 0.55854,-1.0038 0.60839,-1.5649 -0.0844,-0.8865 -0.31622,-1.424 -1.3016,-1.4331 -0.12479,0.025 -0.25251,0.041 -0.37456,0.077 -0.42362,0.1274 -1.24185,0.6114 0.51259,-0.3904 0.14554,-0.083 -0.28629,0.1747 -0.42383,0.2705 -0.25058,0.1746 -0.56423,0.4346 -0.80239,0.6268 -0.89976,0.7531 -0.97638,0.7868 -2.32793,1.56 -0.27584,0.1578 -0.55156,0.1985 -0.85623,0.1139 -0.60129,-0.3058 -0.94187,-0.909 -1.28568,-1.4671 -0.21739,-0.344 -0.62327,-1.0848 -1.06186,-1.1827 -0.0511,-0.011 -0.10422,0.011 -0.15625,0.013 0.38689,-0.2348 0.76601,-0.483 1.16066,-0.7045 0.0758,-0.042 -0.14125,0.1026 -0.20116,0.1659 -0.43064,0.4529 -0.68825,1.0539 -1.08575,1.5325 -0.29373,0.4036 -0.81438,1.1679 -1.21853,1.4478 -0.57063,0.3951 -1.17328,0.7425 -1.77552,1.0875 -0.40011,0.2292 -0.49612,0.2023 -0.93166,0.2637 -0.14238,-0.023 -0.28894,-0.028 -0.42712,-0.069 -0.79407,-0.2376 -1.27399,-0.947 -1.56069,-1.6787 -0.22179,-0.8495 -0.28059,-1.6019 0.19367,-2.3806 0,0 1.45566,-0.622 1.45566,-0.622 z"
       inkscape:connector-curvature="0" />
    <path
       style="fill:#000000"
       id="path3137"
       d="m 124.03305,1030.5608 c 0.22041,-0.698 0.6973,-1.2307 1.27713,-1.6552 1.00561,-0.5792 1.96673,-1.4691 2.98178,-0.5308 0.099,0.091 0.17483,0.205 0.26224,0.3075 0.3518,0.506 0.5943,1.0772 0.79105,1.6586 0.0149,0.019 0.0222,0.069 0.0446,0.059 0.028,-0.012 0.0519,-0.1016 0.0241,-0.088 -0.43305,0.2056 -0.8302,0.4831 -1.26781,0.6787 -0.0725,0.034 0.10457,-0.1197 0.15505,-0.1812 0.39223,-0.478 -0.0454,0.03 0.40126,-0.4801 0.73825,-0.7074 1.63754,-1.3522 2.63792,-1.6064 0.3548,-0.09 0.47238,-0.068 0.83483,-0.067 0.73777,0.055 1.32554,0.4635 1.82908,0.9744 0.14588,0.079 0.19595,0.351 0.35618,0.3915 0,0 -1.33794,0.8611 -1.33794,0.8611 l 0,0 c -0.14301,-0.1242 -0.22196,-0.3003 -0.35891,-0.4331 -0.47532,-0.4911 -1.04052,-0.8551 -1.74476,-0.8764 -0.35589,0.017 -0.45915,-10e-5 -0.80274,0.1091 -0.13074,0.042 -0.49244,0.2359 -0.37996,0.1577 1.8959,-1.3221 0.78741,-0.4367 0.40826,-0.1176 -0.4619,0.504 -1.58796,2.2122 -2.18692,1.3801 -0.1648,-0.5708 -0.39022,-1.1292 -0.73792,-1.6145 -0.24218,-0.2713 -0.4673,-0.4942 -0.8405,-0.5697 -0.10402,-0.02 -0.21205,-0.026 -0.31778,-0.017 -0.10619,0.01 -0.39489,0.1365 -0.31193,0.07 0.3103,-0.2499 0.67542,-0.4229 1.01314,-0.6345 -0.58239,0.3741 -1.08755,0.875 -1.29655,1.5527 0,0 -1.43299,0.673 -1.43299,0.673 z"
       inkscape:connector-curvature="0" />
    <path
       style="fill:#000000"
       id="path3139"
       d="m 139.0727,1032.1656 c -0.9042,-0.1603 -1.74377,-0.4729 -2.53081,-0.9413 -0.67851,-0.4512 -1.15055,-1.0923 -1.09717,-1.9386 0.0109,-0.167 0.0531,-0.3304 0.0797,-0.4957 0.20374,-0.6263 0.58822,-1.5264 1.17581,-1.8957 0.52217,-0.3279 1.0662,-0.6198 1.59933,-0.9299 0.083,0 0.16718,-0.032 0.24873,-0.015 0.47977,0.093 0.58121,1.0724 0.66796,1.4467 0.21438,0.9309 0.47728,1.728 1.11843,2.4524 0.73969,0.6339 1.36431,0.4442 2.13913,0 -0.30522,0.1565 -0.5795,0.4013 -0.91567,0.4697 -0.1772,0.036 0.27325,-0.2374 0.40115,-0.3651 0.50126,-0.5011 0.85024,-1.0904 1.16594,-1.7187 0.17599,-0.4701 0.50498,-1.0582 0.27528,-1.5639 -0.0665,-0.043 -0.12004,-0.092 -0.20911,-0.08 -0.0486,0.01 -0.17774,0.084 -0.13468,0.06 0.39444,-0.2149 0.77604,-0.4574 1.1889,-0.6343 0.0807,-0.035 -0.12303,0.1266 -0.17289,0.1988 -0.0646,0.093 -0.11247,0.1977 -0.16861,0.2965 -0.32407,0.8103 -0.27655,1.6719 -0.10027,2.5085 0.13374,0.3692 0.24018,0.9979 0.74715,0.9414 0.69597,-0.3828 -0.63302,0.3734 -0.95937,0.5419 -0.0927,0.048 0.17067,-0.1199 0.25404,-0.1825 0.31169,-0.234 0.61694,-0.4726 0.93504,-0.6983 0.95022,-0.5721 1.8824,-1.2696 2.98994,-1.4868 0.41332,-0.081 0.51799,-0.059 0.94023,-0.057 0.78838,0.071 1.60343,0.3408 2.20173,0.8813 0.10379,0.093 0.18899,0.2062 0.28348,0.3092 0.0635,0.1146 0.14652,0.2203 0.19067,0.3437 0.30506,0.8517 -0.2912,1.6274 -0.79474,2.2418 -0.38211,0.41 -0.80965,0.7845 -1.29638,1.0668 -0.56054,0.3252 -1.11916,0.6552 -1.69703,0.9485 -0.10118,0.051 -0.2176,0.072 -0.33074,0.081 -0.0917,0.011 -0.18254,-0.023 -0.2738,-0.035 -0.0649,-0.049 -0.1467,-0.082 -0.19461,-0.1472 -0.33788,-0.4638 0.0211,-1.0722 0.28391,-1.4601 0.0834,-0.09 0.16021,-0.1877 0.25047,-0.2715 0.1843,-0.1711 0.40753,-0.3165 0.62429,-0.4414 0.84559,-0.4871 1.59907,-0.918 2.45462,-1.3233 0.56859,-0.2496 0.2774,-0.1262 0.87393,-0.3697 0,0 -1.21513,0.9579 -1.21513,0.9579 l 0,0 c -0.59691,0.2507 -0.30565,0.1237 -0.87416,0.3802 -0.129,0.062 -0.2584,0.123 -0.38689,0.1857 -0.12532,0.061 -0.4914,0.2633 -0.37447,0.1871 0.31688,-0.2065 0.65188,-0.3838 0.97589,-0.5789 0.11014,-0.067 -0.22576,0.1238 -0.33447,0.1926 -0.32605,0.2065 -0.2867,0.1951 -0.55938,0.4604 -0.19768,0.2539 -0.65669,0.8864 -0.38945,1.2311 0.0336,0.043 0.0954,0.055 0.14301,0.081 0.63368,-0.011 1.21422,-0.4915 -0.41599,0.4822 -0.14697,0.088 0.29521,-0.174 0.43596,-0.2715 0.45556,-0.3154 0.48029,-0.3697 0.88518,-0.7557 0.47025,-0.5419 1.11813,-1.274 0.85741,-2.0654 -0.037,-0.1124 -0.11232,-0.2083 -0.16856,-0.3126 -0.66535,-0.7185 -1.43229,-1.0294 -2.40695,-1.0863 -0.47922,0.015 -0.90214,0.06 -1.3578,0.2219 -0.14043,0.05 -0.5316,0.261 -0.41327,0.1704 0.28579,-0.2187 0.61611,-0.3721 0.92286,-0.5602 0.12655,-0.078 -0.2549,0.1524 -0.38236,0.2286 -0.94133,0.6527 -1.8226,1.5567 -2.96273,1.8305 -0.56319,-0.1165 -0.67685,-0.6397 -0.83593,-1.1261 -0.18178,-0.8642 -0.2308,-1.7522 0.0497,-2.6035 0.0226,-0.047 0.22521,-0.5011 0.30264,-0.5532 0.50235,-0.3388 1.38407,-1.3273 1.99589,-0.7079 0.25662,0.5615 -0.03,1.1697 -0.24234,1.7026 -0.30996,0.6418 -0.65674,1.2504 -1.14974,1.7717 -0.12492,0.1321 -0.2407,0.2777 -0.39061,0.3806 -0.55888,0.3831 -1.15164,0.7144 -1.72744,1.0716 -0.90849,0.4553 -1.4565,0.535 -2.26487,-0.1631 -0.63428,-0.7446 -0.9343,-1.5736 -1.1536,-2.5186 -0.0611,-0.2487 -0.17429,-1.042 -0.40286,-1.1999 -0.12182,-0.084 -0.24612,-0.016 -0.367,0.015 0.35595,-0.2131 0.7006,-0.4463 1.06781,-0.6393 0.10673,-0.057 -0.1942,0.1441 -0.28239,0.2265 -0.46144,0.4309 -0.74916,0.9843 -0.9491,1.5766 -0.21919,1.1386 -0.033,1.5883 0.92217,2.2724 0.79127,0.4569 1.6363,0.7405 2.53908,0.8886 0,0 -1.30421,0.8931 -1.30421,0.8931 z"
       inkscape:connector-curvature="0" />
    <path
       style="fill:#000000"
       id="path3141"
       d="m 156.66755,1030.7993 c -0.86858,-0.078 -1.69085,-0.3324 -2.46067,-0.7347 -0.82871,-0.5316 -1.05783,-0.9546 -0.86376,-1.9217 0.2259,-0.5876 0.62968,-1.0491 1.17709,-1.3603 1.73112,-0.9841 1.1328,-0.7976 2.15726,-1.0544 0.12804,6e-4 0.25828,-0.022 0.38403,0 0.74089,0.141 0.91369,0.9091 1.03538,1.5294 0.11776,0.762 0.0324,1.5397 0.26296,2.2816 0.30216,0.6324 0.79072,0.4119 1.29583,0.163 -0.32364,0.1745 -0.62258,0.4058 -0.97092,0.5232 -0.16038,0.055 0.26331,-0.213 0.38871,-0.3267 0.1451,-0.1316 0.28701,-0.267 0.4223,-0.4086 0.50067,-0.5243 0.90836,-1.1061 1.31721,-1.7021 0.96342,-1.4481 1.68352,-3.0342 2.38488,-4.6202 0.73765,-1.5787 1.34505,-3.205 1.71723,-4.9078 0.13427,-0.8614 0.18057,-1.7546 -0.0417,-2.6069 -0.12397,-0.4755 -0.21412,-0.6079 -0.42557,-1.0446 -0.38309,-0.6144 -0.92222,-1.2722 -1.6933,-1.3757 -0.12832,-0.017 -0.25882,0 -0.38823,0 -0.13803,0.043 -0.52956,0.2159 -0.41407,0.1288 0.27242,-0.205 0.56227,-0.4258 0.89673,-0.492 0.19848,-0.039 -0.3164,0.2549 -0.45278,0.4043 -0.6276,0.6877 -0.95246,1.5263 -1.30158,2.3726 -0.98519,2.8759 -1.2599,5.9214 -1.40971,8.9381 -0.0176,1.9781 -0.0413,4.0208 0.63284,5.9068 0.0993,0.171 0.16941,0.4056 0.39632,0.4595 0.17365,0.042 0.65962,-0.2729 0.49724,-0.1988 -1.06796,0.4878 -1.31392,0.8231 -0.65388,0.1403 0.34764,-0.4142 0.67213,-0.8473 1.02174,-1.2597 0.10108,-0.1191 0.42281,-0.4984 0.57837,-0.5951 0.52767,-0.3287 1.07886,-0.6178 1.61829,-0.9267 0.0982,0 0.19767,-0.022 0.29458,-0.01 0.58063,0.095 1.01509,0.678 1.36669,1.0943 0.36232,0.4255 0.71176,0.9366 1.26052,1.1239 -0.0777,0.2252 0.91064,-0.3162 0.67443,-0.1854 -0.35926,0.1991 -0.70602,0.4241 -1.08137,0.5907 -0.11354,0.05 0.19537,-0.1537 0.28687,-0.2376 0.0995,-0.091 0.19027,-0.1918 0.28541,-0.2876 0.45203,-0.481 0.84213,-1.017 1.3164,-1.4769 1.01811,-0.7844 1.68559,-1.4522 1.79044,-0.2775 0.0425,0.5308 0.17609,1.0434 0.39262,1.529 0.23667,0.4755 0.69875,0.6826 1.18726,0.811 0.67494,0.1478 1.35516,0.077 2.01714,-0.092 0.58091,-0.1404 1.1385,-0.3581 1.71429,-0.5172 1.0766,-0.2865 -0.84959,0.2785 -0.9878,0.6748 -0.0235,-0.013 -0.0473,-0.027 -0.0708,-0.041 0,0 1.33625,-0.8601 1.33625,-0.8601 l 0,0 c 0.0298,0.021 0.0594,0.042 0.0892,0.061 0.50245,0.6499 -1.01632,0.968 -1.6182,1.126 -0.57016,0.1603 -1.12555,0.3713 -1.70415,0.5015 -0.68375,0.149 -1.384,0.2048 -2.0709,0.034 -0.52453,-0.1613 -1.00906,-0.4124 -1.26194,-0.9268 -0.21982,-0.501 -0.36555,-1.0267 -0.42395,-1.5718 -0.067,-0.8661 -0.45703,-0.1383 1.19965,-1.1181 0.0424,-0.024 -0.087,0.046 -0.13036,0.069 -0.49875,0.4427 -0.89343,0.9816 -1.33854,1.476 -0.67638,0.732 -1.11228,0.9186 -2.15807,1.5077 -0.23644,0.1331 -0.49625,0.1448 -0.7538,0.087 -0.54505,-0.2536 -0.91593,-0.7382 -1.28742,-1.1961 -0.31571,-0.3707 -0.74275,-0.9567 -1.29043,-0.9628 -0.087,-9e-4 -0.17073,0.034 -0.2561,0.05 0.34967,-0.2128 0.68701,-0.4474 1.04899,-0.6384 0.11071,-0.059 -0.20023,0.1514 -0.29069,0.238 -0.50211,0.4807 -0.88436,1.0767 -1.32918,1.6066 -0.73372,0.8265 -0.34736,0.4621 -1.9952,1.4321 -0.18718,0.1102 -0.39571,0.1608 -0.60085,0.062 -0.2467,-0.1185 -0.29973,-0.3266 -0.41912,-0.5535 -0.63328,-1.9309 -0.58831,-3.9983 -0.56249,-6.0077 0.15293,-3.0181 0.41504,-6.0638 1.34053,-8.9581 0.12926,-0.3346 0.24191,-0.6761 0.38766,-1.0036 0.67115,-1.5088 1.77255,-2.6166 3.49586,-2.9448 0.13709,0.011 0.27658,0 0.41127,0.031 0.79702,0.1633 1.34526,0.8374 1.74614,1.4923 0.21863,0.4525 0.31132,0.5895 0.44097,1.0816 0.22984,0.8724 0.18766,1.7853 0.0565,2.6689 -0.37318,1.7143 -0.98137,3.3528 -1.72155,4.9432 -0.69424,1.5905 -1.40895,3.1798 -2.35854,4.6385 -0.51134,0.7661 -1.03248,1.4946 -1.69854,2.1356 -0.12195,0.1174 -0.23302,0.25 -0.37462,0.3426 -0.55161,0.3606 -1.13204,0.675 -1.69807,1.0126 -0.62185,0.2491 -1.12571,0.3171 -1.44802,-0.3791 -0.23027,-0.7513 -0.1579,-1.5306 -0.25813,-2.3035 -0.14887,-0.7896 -0.32685,-1.4345 -1.28222,-1.3148 -0.76402,0.2323 -0.43898,0.1712 0.5207,-0.455 0.12926,-0.084 -0.2717,0.1478 -0.39724,0.2375 -0.28007,0.2 -0.43575,0.362 -0.62395,0.6481 -0.0751,0.1141 -0.13021,0.2399 -0.19542,0.3599 -0.22955,0.8785 -0.0135,1.27 0.75367,1.7478 0.77204,0.3888 1.59215,0.6176 2.45774,0.674 0,0 -1.29232,0.9111 -1.29232,0.9111 z"
       inkscape:connector-curvature="0" />
    <path
       style="fill:#000000"
       id="path3143"
       d="m 169.09826,1022.0595 c -0.0571,-0.062 -0.11436,-0.1238 -0.1715,-0.1859 0,0 1.34209,-0.8179 1.34209,-0.8179 l 0,0 c 0.0627,0.064 0.12547,0.1279 0.18815,0.1918 0,0 -1.35874,0.812 -1.35874,0.812 z"
       inkscape:connector-curvature="0" />
  </g>
</svg>
