<?xml version="1.0" encoding="UTF-8" standalone="no"?>
<!-- Created with Inkscape (http://www.inkscape.org/) -->

<svg
   xmlns:dc="http://purl.org/dc/elements/1.1/"
   xmlns:cc="http://creativecommons.org/ns#"
   xmlns:rdf="http://www.w3.org/1999/02/22-rdf-syntax-ns#"
   xmlns:svg="http://www.w3.org/2000/svg"
   xmlns="http://www.w3.org/2000/svg"
   xmlns:sodipodi="http://sodipodi.sourceforge.net/DTD/sodipodi-0.dtd"
   xmlns:inkscape="http://www.inkscape.org/namespaces/inkscape"
   width="177.16534"
   height="53.149605"
   id="svg3164"
   version="1.1"
   inkscape:version="0.48.3.1 r9886"
   sodipodi:docname="New document 6">
  <defs
     id="defs3166" />
  <sodipodi:namedview
     id="base"
     pagecolor="#ffffff"
     bordercolor="#666666"
     borderopacity="1.0"
     inkscape:pageopacity="0.0"
     inkscape:pageshadow="2"
     inkscape:zoom="6.7789782"
     inkscape:cx="89.197327"
     inkscape:cy="26.574802"
     inkscape:document-units="px"
     inkscape:current-layer="layer1"
     showgrid="false"
     inkscape:window-width="1366"
     inkscape:window-height="744"
     inkscape:window-x="0"
     inkscape:window-y="24"
     inkscape:window-maximized="1"
     units="cm" />
  <metadata
     id="metadata3169">
    <rdf:RDF>
      <cc:Work
         rdf:about="">
        <dc:format>image/svg+xml</dc:format>
        <dc:type
           rdf:resource="http://purl.org/dc/dcmitype/StillImage" />
        <dc:title></dc:title>
      </cc:Work>
    </rdf:RDF>
  </metadata>
  <g
     inkscape:label="Layer 1"
     inkscape:groupmode="layer"
     id="layer1"
     transform="translate(0,-999.21127)">
    <path
       style="fill:#000000"
       id="path3243"
       d="m 3.8405191,1039.2794 c 0.8662583,-0.5706 1.6204676,-1.2836 2.3145882,-2.0493 1.1232173,-1.3762 1.7202968,-3.0493 2.2635226,-4.7151 0.5500936,-1.7677 0.7404414,-3.6011 0.8187939,-5.4411 0.00933,-1.6969 -0.1553114,-3.3942 -0.533956,-5.0482 -0.3307436,-1.4625 -1.0234975,-2.777 -1.8350299,-4.0224 -0.5627114,-0.8247 -1.211643,-1.5922 -1.9567048,-2.2573 0.2542835,-0.012 -0.3144687,-0.1746 -0.2218249,-0.2244 0.5336439,-0.2865 1.0614508,-0.611 1.6459962,-0.7697 0.1164291,-0.031 0.1733735,0.1679 0.2590841,0.2528 0.4654761,0.4611 0.3591449,0.3581 0.8570626,0.8867 1.6083228,1.7694 3.2416079,3.5157 4.8702069,5.2664 1.365136,1.4612 2.750273,2.909 3.990481,4.4803 0.71114,0.9011 1.022096,1.3718 1.67876,2.3074 1.379795,1.9055 2.458858,3.9845 3.438095,6.1152 0.400362,0.9108 0.741652,1.8505 0.92639,2.8297 0.04408,0.7864 -0.173848,0.5809 -1.66452,0.9512 -0.07068,0.017 -0.510295,-0.9769 -0.539403,-1.0467 -0.53656,-1.6253 -0.698597,-3.3541 -0.811376,-5.0538 -0.112458,-1.9134 0.03454,-3.8249 0.309194,-5.7176 0.246528,-1.7111 0.752218,-3.3613 1.258491,-5.0084 0.495167,-1.7104 1.131539,-3.3746 1.72441,-5.0524 0.373886,-1.0378 0.765683,-2.0688 1.124463,-3.1119 0.0539,-0.1406 0.09099,-0.2878 0.142955,-0.4289 0,0 1.5856,-0.7519 1.5856,-0.7519 l 0,0 c -0.04281,0.1536 -0.115954,0.2985 -0.164075,0.4505 -0.392102,1.0461 -0.794173,2.0885 -1.179898,3.137 -0.596849,1.6746 -1.234184,3.3371 -1.727815,5.0461 -0.503713,1.6422 -1.017749,3.2843 -1.274676,4.9882 -0.282009,1.883 -0.439031,3.7851 -0.332827,5.6903 0.108054,1.6759 0.277173,3.3839 0.83186,4.9783 0.197514,0.4515 0.143938,0.3808 0.386774,0.7609 0.04507,0.071 0.204906,0.1497 0.143165,0.2063 -2.627764,2.4038 -1.398718,1.3101 -1.340192,0.7735 -0.142361,-0.9773 -0.46343,-1.916 -0.845017,-2.8244 -0.94451,-2.1367 -2.003833,-4.2153 -3.377057,-6.115 -0.665663,-0.9522 -0.946449,-1.3822 -1.667809,-2.2994 -1.235603,-1.5709 -2.61349,-3.0209 -3.985421,-4.4715 -1.6423911,-1.744 -3.2855895,-3.4875 -4.9372531,-5.2226 -0.4777271,-0.4827 -0.4246361,-0.4422 -0.8821362,-0.8607 -0.088224,-0.08 -0.3439247,-0.1457 -0.2681651,-0.2381 1.2268677,-1.498 0.9851151,-1.3839 1.512656,-0.8298 0.7289887,0.6978 1.379274,1.4775 1.941404,2.3158 0.8183573,1.264 1.5220247,2.596 1.8567144,4.0776 0.382877,1.6683 0.545707,3.3813 0.545537,5.0926 -0.07678,1.8535 -0.259577,3.7011 -0.8051257,5.4842 -0.5371017,1.6748 -1.1183944,3.3603 -2.2105595,4.7671 -0.6704361,0.7716 -1.4074598,1.4839 -2.2488461,2.07 0,0 -1.6165166,0.6325 -1.6165166,0.6325 z"
       inkscape:connector-curvature="0" />
    <path
       style="fill:#000000"
       id="path3245"
       d="m 27.648758,1027.0337 c -0.03515,0.8946 0.122291,1.7797 0.240441,2.6628 0.111951,0.6308 0.23908,1.259 0.365253,1.8871 0.150032,0.7384 0.114689,0.1621 -1.498298,0.9081 0,0 1.558333,-0.7842 1.558333,-0.7842 l 0,0 c -1.532344,0.9141 -1.466946,1.4991 -1.594204,0.6928 -0.103543,-0.6384 -0.225886,-1.2733 -0.339841,-1.9099 -0.116846,-0.8868 -0.274348,-1.7724 -0.276404,-2.6696 0,0 1.54472,-0.7871 1.54472,-0.7871 z"
       inkscape:connector-curvature="0" />
    <path
       style="fill:#000000"
       id="path3247"
       d="m 34.12933,1027.7938 c -0.629893,-0.4371 -1.373034,-0.542 -2.119284,-0.575 -0.145514,0.011 -0.291795,0.011 -0.436532,0.028 -0.354566,0.043 -0.467116,0.078 -0.789129,0.2237 -0.12494,0.056 -0.485594,0.2539 -0.366496,0.1861 1.31111,-0.7458 1.410523,-0.8757 0.817534,-0.3445 -0.697154,0.782 -0.835518,1.7742 -0.829319,2.7829 0.09454,1.0564 0.575613,1.9708 1.477107,2.5586 0.202605,0.1321 0.426606,0.228 0.639909,0.3421 1.499537,0.5849 2.952082,0.4921 4.471887,0.071 0.459931,-0.1754 0.664052,-0.2394 1.09159,-0.4515 0.136514,-0.068 0.532618,-0.2962 0.400751,-0.2199 -2.138967,1.2386 -1.241333,0.7531 -0.804574,0.4115 0.09274,-0.011 0.109631,-0.1803 0.118899,-0.1849 1.686662,-0.8335 1.14765,-1.0466 1.892049,-0.6566 0.803234,0.5931 1.637017,0.8234 2.608987,0.9801 1.138098,0.092 2.324341,-0.067 3.359427,-0.5731 0.185818,-0.091 0.356382,-0.2102 0.534574,-0.3153 -0.339657,0.1668 -0.647507,0.4282 -1.018967,0.5002 -0.159353,0.031 0.228698,-0.2323 0.322184,-0.365 0.362492,-0.5147 0.335942,-1.013 0.187755,-1.5906 -0.341928,-0.8942 -1.081295,-1.4344 -1.888434,-1.8795 -0.708809,-0.3489 -1.474205,-0.4401 -2.242074,-0.283 -0.347317,0.1079 -0.681546,0.2572 -1.003757,0.4252 -0.115135,0.06 -0.452954,0.2542 -0.340121,0.1899 1.322371,-0.7531 1.494069,-0.8694 0.814211,-0.4389 -0.594515,0.3631 -1.052058,0.8564 -1.451506,1.4183 -0.125907,0.2532 -0.437363,0.5101 -0.431827,0.8158 0.0245,0.092 0.07814,0.037 0.153874,0.034 0.08374,0.071 0.145664,0.1592 0.188991,0.259 -0.005,-0.018 0.01595,0.044 0.0125,0.033 -0.04572,-0.1512 0.118973,-0.073 0.207414,-0.035 0.2804,0.1092 0.543734,0.2642 0.809547,0.4076 0.257253,0.1319 0.491237,0.3004 0.734359,0.4548 0.201838,0.092 0.380064,0.212 0.546144,0.3602 0.05351,0.057 0.1473,0.054 0.223479,0.055 0.04004,5e-4 0.03253,0 0.03899,-0.026 0.07534,0.011 0.150612,0.014 0.226154,0.015 0.243112,0 0.486259,0 0.729391,0 0.34705,5e-4 0.694103,7e-4 1.041156,0 0.484262,0.04 0.955114,-0.044 1.432517,-0.1062 0.643806,-0.1 1.231508,-0.3426 1.81,-0.6316 0.332149,-0.1626 0.672764,-0.3081 1.003679,-0.4733 0.115269,-0.058 0.453482,-0.2445 0.342217,-0.1796 -1.720156,1.0039 -1.314625,0.7564 -0.747422,0.3989 0.776918,-0.5534 1.506241,-1.169 2.230852,-1.7881 0.810464,-0.661 1.507098,-1.442 2.168649,-2.248 0.611312,-0.7994 1.208533,-1.6082 1.778071,-2.4379 0.531934,-0.7066 0.835625,-1.5198 1.080619,-2.3591 0.224837,-0.8104 0.351925,-1.6452 0.203065,-2.4784 -0.227004,-0.8878 -0.787144,-1.2928 -1.584337,-1.6512 -0.754481,-0.2838 -1.53905,-0.3913 -2.333442,-0.2545 -0.565342,0.1831 -1.733577,0.8225 0.672708,-0.4649 0.08691,-0.046 -0.165775,0.1073 -0.243318,0.1681 -0.193626,0.152 -0.292881,0.2668 -0.464331,0.4437 -0.540403,0.5807 -0.811763,1.3128 -0.990144,2.0712 -0.208568,0.8583 -0.327699,1.7338 -0.33424,2.6166 -0.0061,1.0794 0.271923,2.128 0.534101,3.1667 0.275795,1.1464 0.790379,2.2092 1.385629,3.22 0.584043,0.9199 1.273407,1.7636 2.163237,2.3979 0.49116,0.2659 1.049425,0.5167 1.623357,0.501 0.288856,-0.011 0.503291,-0.094 0.775867,-0.1775 0.122916,-0.064 0.488403,-0.2638 0.368761,-0.1934 -2.234571,1.3142 -1.101766,0.6566 -0.76057,0.3845 0.28045,-0.2234 0.512961,-0.4927 0.746495,-0.7624 0.223399,-0.264 0.385704,-0.5676 0.54594,-0.8713 0.542698,-0.267 1.065639,-0.5785 1.628094,-0.8009 0.008,0 0.204792,0.175 0.291966,0.2338 0.246499,0.1661 0.529882,0.2899 0.794312,0.4231 0.929645,0.4166 1.908615,0.437 2.900234,0.3102 0.556255,-0.1413 0.587514,-0.125 1.118828,-0.3588 0.191446,-0.085 0.738519,-0.3908 0.563233,-0.2767 -2.335119,1.5206 -0.494285,0.197 -0.441258,0.1533 0.145872,-0.1204 0.278623,-0.2558 0.417936,-0.3836 0.645564,-0.7024 0.935884,-1.0967 0.630471,-2.0355 -0.385872,-0.7303 -1.114379,-1.1642 -1.82971,-1.5244 -0.977011,-0.3736 -2.018038,-0.5119 -3.057385,-0.5443 -0.585213,-0.025 -1.168082,0.039 -1.721777,0.2353 -0.122172,0.044 -0.468945,0.2182 -0.359313,0.149 0.369819,-0.2336 0.762154,-0.4293 1.143232,-0.6439 -0.767907,0.5691 -1.024922,1.499 -1.213122,2.3905 -0.201472,0.9762 -0.160166,1.9483 0.0546,2.9146 0.17961,0.6842 0.506253,1.0766 1.123464,1.3978 0.621246,0.2483 1.290748,0.1631 1.93302,0.06 0.609026,-0.1528 1.205423,-0.3499 1.801424,-0.547 0.572099,-0.1758 1.127433,-0.4206 1.653365,-0.7065 -2.483534,1.4546 -0.718228,0.4501 -0.209682,-0.025 0.138403,-0.1216 0.234904,-0.2621 0.260795,-0.4449 0.02066,-0.1515 0.0887,-0.2896 0.157693,-0.4242 0.256479,-0.5547 1.569998,-1.322 1.618361,-0.6379 0.03926,0.6428 0.741789,-0.2445 -1.550452,0.763 0.0877,-0.1637 0.161275,-0.335 0.233878,-0.5079 0.16464,-0.3936 0.321231,-0.7896 0.464428,-1.1917 0.251729,-0.7392 0.415502,-1.5021 0.586667,-2.2627 0.09638,-0.4356 0.173469,-0.8754 0.226205,-1.3183 0.002,-0.035 0.0103,-0.1009 0.01658,-0.1296 0,0 1.56075,-0.803 1.56075,-0.803 l 0,0 c 0.0072,0.054 -0.0055,0.1073 -0.0119,0.1608 -0.06607,0.4514 -0.147374,0.9009 -0.248214,1.3459 -0.168784,0.7641 -0.336022,1.5287 -0.568909,2.2765 -0.13815,0.4016 -0.275039,0.8023 -0.446511,1.1898 -0.05819,0.1622 -0.107147,0.3789 -0.229071,0.4995 -0.535276,0.2712 -1.070553,0.5424 -1.60583,0.8136 0.0046,-0.012 0.01685,-0.024 0.01399,-0.035 0.0079,-0.6337 1.994212,-1.3974 1.540872,-0.8736 -0.07546,0.1128 -0.135488,0.2342 -0.194134,0.3563 -0.01008,0.2119 -0.05503,0.4119 -0.219056,0.5622 -0.777502,0.7753 -1.820338,1.1877 -2.740218,1.7658 -0.537766,0.2708 -1.092714,0.5154 -1.671586,0.6841 -0.599833,0.1922 -1.19691,0.4004 -1.816143,0.5222 -0.672876,0.093 -1.364779,0.1425 -1.99943,-0.1499 -0.614363,-0.3511 -1.019571,-0.8261 -1.188017,-1.5296 -0.219822,-0.9881 -0.270187,-1.9836 -0.07501,-2.9838 0.173261,-0.918 0.417409,-1.8687 1.139953,-2.5162 1.643623,-0.9371 2.143463,-1.4212 3.919114,-1.3501 1.056193,0.049 2.119924,0.2006 3.105329,0.6015 0.75048,0.3938 1.503927,0.8569 1.90751,1.6321 0.335961,0.9788 0.122247,1.4613 -0.567601,2.2206 -1.261514,1.2213 -2.87039,2.1451 -4.588663,2.5232 -1.019972,0.1052 -2.026306,0.057 -2.974249,-0.3787 -0.279379,-0.1382 -0.564087,-0.2702 -0.825328,-0.4416 -0.05618,-0.037 -0.106933,-0.082 -0.163,-0.1185 -0.03274,-0.022 -0.135131,-0.034 -0.102932,-0.057 0.454835,-0.317 0.948136,-0.5748 1.422203,-0.8622 -0.217507,0.1355 -0.340892,0.719 -0.570513,0.8788 -0.920216,1.0936 -1.884618,1.7354 -3.298104,2.2858 -0.992979,0.2394 -1.605037,0.061 -2.480844,-0.4532 -0.892929,-0.6654 -1.595013,-1.5243 -2.189746,-2.4631 -0.602121,-1.0245 -1.125627,-2.1011 -1.411811,-3.2606 -0.266351,-1.0498 -0.552612,-2.1084 -0.562342,-3.1991 -0.01041,-0.8927 0.107875,-1.7794 0.313143,-2.6484 0.164946,-0.7772 0.418547,-1.5366 0.943705,-2.1509 0.796526,-0.8736 1.844259,-1.5578 3.00137,-1.8417 0.816349,-0.089 1.61606,0.033 2.379218,0.3427 0.835455,0.399 1.423783,0.8545 1.674234,1.7874 0.165592,0.8546 0.0513,1.7155 -0.172328,2.5521 -0.24295,0.8522 -0.521909,1.6902 -1.060176,2.4101 -0.574542,0.832 -1.169614,1.6472 -1.779843,2.4534 -0.654967,0.8143 -1.345624,1.6062 -2.1525,2.2751 -0.726715,0.6174 -1.451707,1.2367 -2.216493,1.8077 -1.133979,0.729 -2.302794,1.3979 -3.534607,1.9453 -0.590758,0.2816 -1.198793,0.5043 -1.851099,0.5941 -0.483199,0.068 -0.964402,0.117 -1.453538,0.092 -0.347914,5e-4 -0.695825,7e-4 -1.043736,4e-4 -0.246136,4e-4 -0.492265,3e-4 -0.738399,-3e-4 -0.07116,-2e-4 -0.182073,0.011 -0.204973,0.025 -0.02355,-0.016 -0.04569,-0.027 -0.07589,-0.029 -0.103683,-0.026 -0.204191,-0.061 -0.27749,-0.1433 -0.158751,-0.1419 -0.341951,-0.2368 -0.525548,-0.3419 -0.236183,-0.1571 -0.474732,-0.3111 -0.725125,-0.4449 -0.255051,-0.1407 -0.514414,-0.2874 -0.793741,-0.3719 -0.136067,-0.015 -0.242443,0.011 -0.312138,-0.1312 -0.01574,-0.044 -0.03253,-0.1019 -0.07972,-0.092 -0.143566,-0.024 -0.231741,-0.1008 -0.277179,-0.24 -0.07261,-0.3616 0.218699,-0.6562 0.397826,-0.9428 0.398271,-0.5769 0.831331,-1.1055 1.43355,-1.4839 1.101026,-0.7077 2.231338,-1.4647 3.500912,-1.8318 0.798333,-0.1145 1.578217,0.011 2.298842,0.3859 0.840008,0.478 1.59622,1.0654 1.962645,1.9943 0.09057,0.3307 0.172078,0.526 0.154079,0.877 -0.06785,1.3233 -1.509344,1.8921 -2.46419,2.4574 -0.18142,0.098 -0.35636,0.208 -0.544262,0.2923 -1.066628,0.4784 -2.263906,0.6194 -3.418767,0.5044 -0.974212,-0.1689 -1.846162,-0.4356 -2.670754,-0.9983 -0.06807,-0.031 -0.261402,-0.045 -0.204177,-0.093 0.242168,-0.204 1.75412,-1.4486 1.248773,-0.6722 -0.154117,0.1487 -0.147494,0.1567 -0.360383,0.2826 -1.06764,0.6314 -2.082831,1.2925 -3.271593,1.6545 -1.553859,0.3864 -3.031506,0.4475 -4.542363,-0.1765 -0.219993,-0.1215 -0.451093,-0.2248 -0.659978,-0.3646 -0.933118,-0.6245 -1.445272,-1.5795 -1.560533,-2.6819 -0.02696,-1.0374 0.0908,-2.0588 0.754114,-2.9024 0.760754,-0.7811 0.27279,-0.3317 2.105105,-1.3753 0.198725,-0.1131 0.547297,-0.2444 0.770833,-0.2942 0.323616,-0.072 0.54086,-0.063 0.871448,-0.073 0.778585,0.052 1.545914,0.1968 2.202097,0.6481 0,0 -1.471812,0.9245 -1.471812,0.9245 z"
       inkscape:connector-curvature="0" />
    <path
       style="fill:#000000"
       id="path3249"
       d="m 78.875393,1017.0627 c 2.053742,0.4428 4.175154,0.4797 6.267806,0.5163 3.190822,-0.015 6.345764,-0.4853 9.462775,-1.1267 1.7509,-0.3635 3.491018,-0.7751 5.251347,-1.0918 0.0205,0 0.925339,-0.1531 0.935699,-0.1428 0.0379,0.038 0.0512,0.093 0.0768,0.1398 -0.008,0.042 -0.002,0.089 -0.0243,0.1265 -0.10266,0.1732 -0.961829,0.7716 -1.139699,0.9001 -1.1196,0.795 -2.322641,1.4477 -3.646689,1.7943 0,0 1.349708,-1.0375 1.349708,-1.0375 l 0,0 c 0.458917,-0.134 0.506409,-0.134 0.942669,-0.318 0.150144,-0.064 0.577082,-0.2996 0.443972,-0.2054 -0.21495,0.152 -1.725098,1.049 -0.683541,0.3959 0.274616,-0.193 0.350461,-0.2396 0.605121,-0.4429 0.15278,-0.1221 0.3324,-0.326 0.52123,-0.4013 0.0241,-0.015 0.0519,4e-4 0.0779,6e-4 0.0238,0.03 0.0647,0.054 0.0716,0.091 2.1e-4,0 -0.0309,0 -0.1497,0.016 -0.24795,0.031 -0.49505,0.069 -0.741753,0.1087 -1.734347,0.2921 -3.446852,0.6922 -5.171064,1.0369 -3.122709,0.6219 -6.281407,1.0805 -9.473216,1.0914 -2.136458,-0.031 -4.292458,-0.067 -6.398431,-0.4649 0,0 1.421765,-0.9863 1.421765,-0.9863 z"
       inkscape:connector-curvature="0" />
    <path
       style="fill:#000000"
       id="path3251"
       d="m 91.576927,1018.3441 c 0.420142,-0.2264 0.811964,-0.5159 1.260425,-0.6793 0.120849,-0.045 -0.169792,0.1951 -0.235163,0.3059 -0.08346,0.1414 -0.156432,0.2906 -0.208738,0.4464 -0.259515,0.7722 -0.191412,1.5716 -0.163587,2.3702 0.226836,2.469 0.583034,4.9248 0.893639,7.3846 0.1688,1.303 0.325202,2.6074 0.469579,3.9133 0.01354,0.058 0.02215,0.119 0.04068,0.1754 0.0082,0.026 0.02068,0.05 0.03896,0.07 0.0054,0 0.02989,0 0.02288,0 -1.535497,0.7203 -1.533464,1.2268 -1.459512,0.5015 0,0 1.547324,-0.7829 1.547324,-0.7829 l 0,0 c 0.0024,0.076 0.06689,0.1807 0.007,0.2272 -1.082299,0.8389 -1.527793,1.5666 -1.728126,0.6096 -0.08761,-1.3208 -0.226785,-2.6378 -0.381998,-3.9523 -0.294699,-2.4636 -0.646576,-4.9191 -0.920736,-7.3847 -0.0568,-0.9745 -0.167418,-1.9787 0.2711,-2.8888 0.05799,-0.1204 0.09989,-0.2639 0.207579,-0.3428 0.53639,-0.394 1.130182,-0.703 1.695272,-1.0544 0,0 -1.356615,1.0852 -1.356615,1.0852 z"
       inkscape:connector-curvature="0" />
    <path
       style="fill:#000000"
       id="path3253"
       d="m 101.38867,1026.252 c 0.64722,0.9491 1.00283,2.0382 1.28193,3.1417 0.12858,0.7855 0.29284,1.6024 0.12452,2.3946 -0.007,0.027 0.002,0.069 -0.0235,0.082 -0.52606,0.2702 -1.04421,0.5686 -1.60532,0.7553 -0.002,9e-4 -0.09,-0.2056 -0.0846,-0.4506 0.008,-0.338 0.0581,-0.3827 0.17965,-0.7206 0.80509,-1.5935 2.49836,-2.3343 3.97523,-3.1657 0.63871,-0.2462 1.31343,-0.5629 2.01271,-0.4769 0.57424,0.1294 1.14248,0.2298 1.73193,0.2498 1.24806,-0.026 2.44658,-0.3579 3.60253,-0.8036 -0.38406,0.2614 1.42303,-0.7431 1.06728,-0.5573 -0.3482,0.1818 -0.67483,0.4069 -1.03547,0.5627 -0.13395,0.058 0.23747,-0.1702 0.34785,-0.2657 0.2514,-0.2174 0.23189,-0.2242 0.39172,-0.4801 0.20951,-0.6436 -0.41145,-0.8678 -0.9123,-1.0317 -0.60006,-0.1131 -1.21927,-0.062 -1.79336,0.1494 -0.16303,0.059 -0.62388,0.3038 -0.47588,0.2129 0.32453,-0.1998 0.67171,-0.3599 1.00757,-0.54 -0.94233,0.7197 -1.44243,1.68 -1.71178,2.8127 -0.18579,1.1842 -0.0107,1.7849 0.823,2.6373 1.06422,0.8711 2.1166,1.116 3.46219,1.1721 1.35736,10e-4 2.60792,-0.4603 3.77244,-1.1195 -2.16981,1.268 -0.60138,0.3454 -0.10084,0.016 0.48498,-0.2801 1.58501,-1.272 1.68227,-0.6678 0.0918,0.053 0.17746,0.1204 0.2653,0.1828 0.0997,0.089 0.19954,0.178 0.29806,0.2684 0.018,0.015 0.0339,0.032 0.0497,0.049 0,0 -1.50268,0.9077 -1.50268,0.9077 l 0,0 c -0.003,0 -0.0316,-0.03 -0.0382,-0.038 -0.0903,-0.088 -0.1822,-0.1749 -0.28354,-0.2499 -0.11322,-0.084 -0.24292,-0.1531 -0.31925,-0.2745 -0.27218,-0.6724 2.14505,-1.2955 1.47414,-0.815 -0.91435,0.6171 -1.90714,1.112 -2.84641,1.6857 -1.18586,0.634 -2.45485,1.0617 -3.81734,1.036 -1.37818,-0.085 -2.46772,-0.3631 -3.54831,-1.2672 -0.86239,-0.8989 -1.08028,-1.5416 -0.89947,-2.7873 0.24794,-1.1592 0.73292,-2.1583 1.65787,-2.9316 1.47252,-0.8724 2.53407,-1.7799 4.2649,-1.4016 0.6086,0.2213 1.21845,0.5371 1.06681,1.2882 -0.17274,0.3519 -0.38909,0.6151 -0.72875,0.8297 -0.95199,0.6016 -1.91208,1.2061 -2.94696,1.6568 -1.17555,0.4331 -2.3957,0.7524 -3.65764,0.7593 -0.59617,-0.03 -1.17439,-0.1354 -1.76115,-0.2377 -0.67074,-0.028 -1.31533,0.2799 -1.92062,0.5284 0.3101,-0.1896 0.61527,-0.3876 0.9303,-0.5689 0.17775,-0.103 -0.35147,0.2123 -0.5182,0.3317 -0.60086,0.4304 -1.16605,0.9633 -1.51149,1.6218 -0.64591,1.5297 0.71916,0.4442 -1.64976,1.8285 -0.0185,0.015 0.0387,-0.018 0.058,-0.027 0.27689,-0.7427 0.0529,-1.5836 -0.035,-2.3388 -0.27273,-1.0884 -0.62172,-2.1672 -1.301829,-3.077 0,0 1.501639,-0.8662 1.501639,-0.8662 z"
       inkscape:connector-curvature="0" />
    <path
       style="fill:#000000"
       id="path3255"
       d="m 126.84635,1025.8419 c -1.08366,-0.1569 -2.16847,0.077 -3.1861,0.4381 -0.18482,0.093 -0.73544,0.3844 -0.55453,0.2828 0.31708,-0.1781 0.61302,-0.4144 0.96325,-0.5124 0.16211,-0.046 -0.26134,0.2156 -0.36799,0.3459 -0.33136,0.4047 -0.28769,0.6244 -0.12631,1.0738 0.10084,0.125 0.18737,0.2631 0.30256,0.3749 0.70541,0.685 2.0125,1.2273 2.887,1.7214 0.47943,0.3525 1.25248,0.7535 1.25951,1.4567 0.004,0.3748 -0.17083,0.5002 -0.38317,0.7853 -1.35674,1.1841 -2.9935,1.7621 -4.71101,2.1002 -0.30937,0.027 -0.48459,0.1175 -0.69616,-0.125 0,0 1.49144,-0.9056 1.49144,-0.9056 l 0,0 c 0.1211,0.1073 0.45252,0 0.56428,0 0.55122,-0.11 1.09812,-0.2273 1.62887,-0.4174 0.20333,-0.073 0.74768,-0.4017 0.6004,-0.2437 -0.23848,0.2557 -0.58701,0.381 -0.8905,0.5548 -0.15409,0.088 0.29452,-0.1985 0.44178,-0.2977 0.17478,-0.1844 0.41188,-0.3579 0.44203,-0.6396 0.0688,-0.6422 -0.75897,-1.0396 -1.15928,-1.351 -0.91419,-0.5179 -2.19323,-1.0388 -2.93589,-1.7657 -0.12794,-0.1249 -0.2256,-0.2781 -0.3384,-0.4173 -0.055,-0.1398 -0.13835,-0.2719 -0.16506,-0.4201 -0.0827,-0.458 0.20318,-0.9633 0.57788,-1.2141 1.37881,-0.9233 1.45728,-0.9362 2.50059,-1.4231 1.0551,-0.3418 2.17697,-0.5723 3.28684,-0.3834 0,0 -1.43203,0.9807 -1.43203,0.9807 z"
       inkscape:connector-curvature="0" />
    <path
       style="fill:#000000"
       id="path3257"
       d="m 133.26037,1031.1468 c 1.22644,0.4047 2.52982,0.1852 3.75803,-0.086 0.7431,-0.2283 0.90236,-0.2429 1.5972,-0.5925 0.23637,-0.119 0.95089,-0.4243 0.68775,-0.3965 -0.31083,0.033 -0.52966,0.4257 -0.84196,0.4129 -0.21145,-0.015 0.32292,-0.2748 0.46878,-0.4281 0.12899,-0.1354 0.23561,-0.291 0.35341,-0.4363 0.51283,-0.839 0.64169,-1.4169 0.14863,-2.282 -0.58428,-0.7104 -1.47753,-0.8139 -2.33605,-0.9147 -0.82371,-0.038 -1.66641,0.02 -2.46459,0.2425 -0.39948,0.1102 -0.67886,0.2483 -1.05552,0.413 -0.14994,0.089 -0.60591,0.3461 -0.44982,0.268 0.35783,-0.1788 0.6821,-0.4277 1.0557,-0.5707 0.13614,-0.053 -0.22385,0.1873 -0.3258,0.2912 -0.28887,0.295 -0.47955,0.62 -0.65852,0.9869 -0.27282,0.6727 -0.30448,1.3383 0.0197,1.9906 0.51041,0.7501 1.3051,0.9753 2.16206,1.0688 1.45006,0.055 2.8257,-0.3469 4.15041,-0.8937 0.22701,-0.1146 0.87051,-0.5128 0.68104,-0.3434 -0.22865,0.2045 -0.49993,0.3981 -0.80204,0.4515 -0.24476,0.043 0.41538,-0.2732 0.61695,-0.4188 0.60122,-0.4336 1.13726,-0.9343 1.68205,-1.4349 1.04454,-0.9671 1.95895,-2.0541 2.72684,-3.2508 0.61565,-0.9831 1.07997,-2.0423 1.25858,-3.1907 0.0555,-0.7381 -0.17103,-1.4012 -0.67569,-1.935 -0.51534,-0.5201 -1.20703,-0.6681 -1.91351,-0.695 -0.12646,0.015 -0.25403,0.019 -0.37941,0.04 -0.31144,0.054 -0.47699,0.1116 -0.76502,0.2466 -0.12661,0.059 -0.49332,0.2653 -0.37056,0.1979 1.25313,-0.6875 1.41064,-0.9007 0.81458,-0.3068 -0.71865,0.868 -0.82465,1.9565 -0.81877,3.0402 0.11649,1.6335 0.70806,3.1431 1.44276,4.5865 0.62709,1.0572 1.38606,2.1238 2.55145,2.6328 0.19144,0.084 0.39714,0.1294 0.59571,0.1945 0.81332,0.1353 1.6008,-2e-4 2.34762,-0.3363 0.15534,-0.07 0.60153,-0.3198 0.45351,-0.2355 -0.36125,0.2057 -0.72896,0.4001 -1.09344,0.6001 0.0714,0.028 0.82861,-0.6869 0.4778,-0.7255 -0.55011,0.3387 0.1996,-0.125 1.34188,-0.7225 0.037,-0.019 -0.0719,0.046 -0.0977,0.078 -0.15267,0.1944 -0.11068,0.4074 -0.0785,0.6319 0.25758,0.767 0.85573,1.3619 1.60107,1.6769 0.20615,0.086 0.42698,0.1339 0.64046,0.2013 1.82014,0.2846 3.30674,-0.3274 4.86695,-1.1898 -0.2438,0.122 -0.49514,0.5 -0.73144,0.3644 -0.20996,-0.1204 0.3829,-0.2973 0.55929,-0.4631 0.38392,-0.3607 0.77216,-0.8319 0.8695,-1.3692 0.0242,-0.1339 -9.2e-4,-0.2719 -0.001,-0.4077 -0.0518,-0.122 -0.0808,-0.2551 -0.15519,-0.3641 -0.58987,-0.8635 -2.00555,-1.0525 -2.94,-1.1827 -1.11719,-0.073 -2.27221,-0.015 -3.32723,0.398 -0.22387,0.086 -0.86155,0.4243 -0.65051,0.3096 0.29958,-0.1626 0.61097,-0.3026 0.91645,-0.4541 -0.766,0.7359 -1.04399,1.6303 -0.54081,2.6225 0.097,0.1912 0.24022,0.3555 0.36033,0.5331 0.87555,0.9406 2.1008,1.1918 3.31966,0.8122 0.29154,-0.091 0.56478,-0.2322 0.84716,-0.3483 -0.19019,0.097 -0.69091,0.4652 -0.57059,0.2892 0.20113,-0.2943 0.56966,-0.4304 0.83196,-0.6715 0.2729,-0.2512 0.52831,-0.5216 0.77049,-0.8025 0.80147,-0.9291 1.33739,-1.9077 1.88961,-2.9933 0.93589,-1.9354 1.44215,-4.0317 1.90688,-6.1192 0.13226,-0.6577 0.2664,-1.3175 0.3379,-1.9855 0.0149,-0.5838 -0.004,-0.2919 1.54351,-0.6462 0.0876,-0.019 -0.0277,0.1777 -0.0433,0.2661 -0.0217,0.1235 -0.0472,0.2474 -0.0684,0.3715 -0.0134,0.08 -0.17465,1.0878 -0.17491,1.0894 -0.28674,1.8309 -0.33282,3.6835 -0.22163,5.5298 0.1604,1.4859 0.39708,3.1406 1.44733,4.2974 0.1648,0.1816 0.37197,0.3194 0.55795,0.4792 1.48088,0.8198 2.5148,0.4596 3.92249,-0.2538 -0.30566,0.1731 -0.59959,0.3685 -0.91697,0.5189 -0.30115,0.1428 0.55007,-0.3764 0.82411,-0.5661 0.72039,-0.4985 1.46219,-1.132 2.3584,-1.1442 0.76539,0.1414 1.34137,0.697 1.92675,1.168 0.25643,0.1565 0.49667,0.4408 0.81641,0.4465 0,0 -1.43088,0.9959 -1.43088,0.9959 l 0,0 c -0.3151,-0.116 -0.57212,-0.3319 -0.8382,-0.5313 -0.55204,-0.4511 -1.11741,-0.9949 -1.86329,-1.0533 -0.72326,0.1073 -0.3156,0.082 0.93128,-0.6986 0.10309,-0.064 -0.21192,0.1205 -0.31275,0.1881 -0.12779,0.086 -0.24646,0.1856 -0.37248,0.2744 -0.8781,0.6198 -1.16824,0.7213 -2.43949,1.4538 -1.46888,0.7006 -2.54317,0.9714 -4.02948,0.087 -0.19072,-0.172 -0.40275,-0.3229 -0.57221,-0.5158 -1.05101,-1.1967 -1.30788,-2.8679 -1.47188,-4.3891 -0.11977,-1.8487 -0.0858,-3.7034 0.16631,-5.5416 0.0681,-0.4815 0.14029,-0.9622 0.21141,-1.4433 0.0134,-0.088 -0.0403,-0.2121 0.0312,-0.2644 0.49575,-0.3624 1.05882,-0.6223 1.59396,-0.9236 0.0107,0 -0.008,0.023 -0.0119,0.032 -0.0976,0.6836 -0.25221,1.3578 -0.39516,2.0327 -0.49688,2.0992 -1.00704,4.2138 -1.93111,6.1741 -0.18132,0.3669 -0.34597,0.7423 -0.54396,1.1006 -0.5543,1.0025 -1.24568,1.9563 -2.07449,2.7511 -0.25729,0.2467 -0.5182,0.4954 -0.81647,0.6905 -0.73495,0.4808 -1.51585,0.8874 -2.27379,1.331 -0.29105,0.1101 -0.57322,0.2464 -0.87316,0.3285 -1.28418,0.3517 -2.54871,0.02 -3.44333,-0.9636 -0.12794,-0.1894 -0.27902,-0.3649 -0.38388,-0.568 -0.53384,-1.0337 -0.32289,-1.9979 0.44902,-2.8203 0.65632,-0.4037 1.29951,-0.8297 1.96898,-1.2113 1.20312,-0.6858 2.68878,-0.6957 4.02528,-0.6238 1.03583,0.1562 2.42168,0.3469 3.06782,1.3053 0.0858,0.128 0.12363,0.2814 0.18553,0.4219 0.008,0.1542 0.0418,0.3095 0.0218,0.4624 -0.20931,1.5938 -2.48466,2.5821 -3.53324,3.2359 -1.60005,0.8495 -3.1244,1.4341 -4.96566,1.0939 -0.22179,-0.074 -0.45136,-0.1294 -0.66535,-0.225 -0.7866,-0.349 -1.40782,-0.9849 -1.70601,-1.7891 -0.0222,-0.1041 -0.0562,-0.2054 -0.0665,-0.3106 -0.0831,-0.8579 1.11665,-1.6956 1.8898,-1.4326 0.41884,0.3727 -0.006,0.8043 -0.35183,1.0482 -1.61963,0.9611 -2.76898,1.8857 -4.69851,1.5407 -0.20351,-0.074 -0.41457,-0.1294 -0.61051,-0.2217 -1.17618,-0.5535 -1.94377,-1.6419 -2.58386,-2.7276 -0.74679,-1.4635 -1.35335,-2.9896 -1.4978,-4.6437 -0.0285,-1.1077 0.0549,-2.2264 0.74183,-3.1469 0.73011,-0.8529 0.22998,-0.3399 2.09907,-1.4237 0.47932,-0.278 1.02007,-0.4135 1.57179,-0.4143 0.74466,0.061 1.45772,0.2423 1.99225,0.8002 0.52633,0.5787 0.78256,1.2886 0.73539,2.0772 -0.16825,1.1722 -0.62639,2.2576 -1.24791,3.2634 -0.75746,1.2146 -1.67174,2.313 -2.71601,3.2941 -0.16868,0.1561 -0.91543,0.8511 -1.09244,1.0004 -1.18439,0.9995 -2.55921,1.7537 -3.95375,2.4161 -1.34981,0.5345 -2.75362,0.9224 -4.22139,0.8402 -0.94796,-0.1295 -1.70415,-0.3795 -2.27056,-1.1992 -0.36419,-0.7234 -0.35087,-1.3683 -0.0854,-2.1296 0.63516,-1.4619 1.82883,-2.0242 3.27151,-2.7394 1.15265,-0.4696 2.32151,-0.6893 3.57118,-0.5835 0.91433,0.1161 1.84149,0.262 2.44103,1.0365 0.52211,0.922 0.44451,1.551 -0.0784,2.472 -0.87125,1.151 -1.35442,1.2767 -2.84021,2.1705 -0.71966,0.4328 -1.49311,0.7542 -2.31173,0.9462 -1.27293,0.2638 -2.60929,0.4596 -3.87361,0.039 0,0 1.44355,-0.962 1.44355,-0.962 z"
       inkscape:connector-curvature="0" />
    <path
       style="fill:#000000"
       id="path3259"
       d="m 169.6527,1022.4132 c 0.18985,0.1428 0.39002,0.2843 0.63422,0.3095 0.26218,0.027 0.41275,-0.1235 0.34325,-0.085 -0.45385,0.2542 -0.91092,0.5027 -1.36637,0.7541 0.0263,-0.027 0.0527,-0.054 0.079,-0.082 0,0 1.59317,-0.7046 1.59317,-0.7046 l 0,0 c -0.0191,0.047 -0.0382,0.093 -0.0573,0.1414 -1.35038,0.7911 -1.56474,1.3907 -2.69788,0.5896 0,0 1.47183,-0.9245 1.47183,-0.9245 z"
       inkscape:connector-curvature="0" />
    <path
       style="fill:#000000"
       id="path3261"
       d="m 27.171678,1021.2992 c -0.282927,1.1825 0.557129,0.3752 -1.541837,1.344 0.100067,-0.2022 0.130697,-0.4095 0.130012,-0.6315 0,0 1.546246,-0.7937 1.546246,-0.7937 l 0,0 c 0.01294,0.242 0.0057,0.4705 -0.09381,0.6973 -1.415729,0.8273 -1.845945,1.5217 -1.61402,0.1228 0,0 1.573414,-0.7389 1.573414,-0.7389 z"
       inkscape:connector-curvature="0" />
  </g>
</svg>
