<?xml version="1.0" encoding="UTF-8" standalone="no"?>
<!-- Created with Inkscape (http://www.inkscape.org/) -->

<svg
   xmlns:dc="http://purl.org/dc/elements/1.1/"
   xmlns:cc="http://creativecommons.org/ns#"
   xmlns:rdf="http://www.w3.org/1999/02/22-rdf-syntax-ns#"
   xmlns:svg="http://www.w3.org/2000/svg"
   xmlns="http://www.w3.org/2000/svg"
   xmlns:sodipodi="http://sodipodi.sourceforge.net/DTD/sodipodi-0.dtd"
   xmlns:inkscape="http://www.inkscape.org/namespaces/inkscape"
   width="177.16534"
   height="53.149605"
   id="svg3282"
   version="1.1"
   inkscape:version="0.48.3.1 r9886"
   sodipodi:docname="New document 9">
  <defs
     id="defs3284" />
  <sodipodi:namedview
     id="base"
     pagecolor="#ffffff"
     bordercolor="#666666"
     borderopacity="1.0"
     inkscape:pageopacity="0.0"
     inkscape:pageshadow="2"
     inkscape:zoom="6.7789782"
     inkscape:cx="88.582672"
     inkscape:cy="26.574802"
     inkscape:document-units="px"
     inkscape:current-layer="layer1"
     showgrid="false"
     units="cm"
     inkscape:window-width="1366"
     inkscape:window-height="744"
     inkscape:window-x="0"
     inkscape:window-y="24"
     inkscape:window-maximized="1" />
  <metadata
     id="metadata3287">
    <rdf:RDF>
      <cc:Work
         rdf:about="">
        <dc:format>image/svg+xml</dc:format>
        <dc:type
           rdf:resource="http://purl.org/dc/dcmitype/StillImage" />
        <dc:title></dc:title>
      </cc:Work>
    </rdf:RDF>
  </metadata>
  <g
     inkscape:label="Layer 1"
     inkscape:groupmode="layer"
     id="layer1"
     transform="translate(0,-999.21127)">
    <path
       style="fill:#000000"
       id="path3290"
       d="m 18.266753,1018.756 c 1.014992,-0.035 2.003266,-0.2656 2.967293,-0.57 0.491055,-0.1704 0.678252,-0.2222 1.148784,-0.4369 0.174942,-0.08 0.669123,-0.3744 0.515873,-0.2582 -0.193669,0.1468 -0.402749,0.2935 -0.63878,0.3513 -0.150739,0.037 0.253981,-0.1799 0.368125,-0.285 0.104026,-0.096 0.189162,-0.2103 0.283743,-0.3155 0.536755,-0.8974 0.318025,-1.3689 -0.318011,-2.1176 -1.068269,-0.9899 -2.242539,-1.2586 -3.646901,-1.4299 -1.025369,-0.044 -2.065463,0.071 -3.02443,0.4552 -0.217851,0.087 -0.424479,0.2004 -0.63473,0.3047 -0.169594,0.084 0.341834,-0.1628 0.51275,-0.2442 -0.155624,0.1469 -0.327312,0.2784 -0.466874,0.4407 -0.594406,0.691 -0.821332,1.6111 -0.714791,2.5073 0.03047,0.2563 0.106805,0.505 0.160207,0.7575 0.729896,1.9886 2.302447,3.436 3.845545,4.8108 1.221669,1.0533 2.462972,2.0863 3.61164,3.2207 0.755687,0.7463 0.854952,0.8833 1.547104,1.6633 0.790555,1.0673 1.773276,2.2246 1.872811,3.6171 0.01415,0.198 -0.01742,0.3966 -0.02613,0.5948 -0.06412,0.1903 -0.101778,0.3917 -0.192353,0.5709 -0.357792,0.7078 -1.032078,1.2073 -1.704821,1.586 -1.962331,1.1043 -1.501914,0.8806 -3.123525,1.457 -2.162761,0.6363 -4.418697,1.0312 -6.679856,0.9956 -0.474394,-0.01 -0.947458,-0.052 -1.421186,-0.079 -1.97497,-0.1761 -3.9073387,-0.6796 -5.6826903,-1.5726 -1.1094349,-0.5581 -1.3808751,-0.8054 -2.375551,-1.5113 -1.0195416,-0.9031 -2.1136478,-1.9784 -2.1948079,-3.4341 -0.040182,-0.7207 0.1180341,-0.9235 0.3709675,-1.5704 0.16186,-0.2215 0.2983745,-0.464 0.4855802,-0.6646 0.1914056,-0.2051 0.4031708,-0.3971 0.642273,-0.5438 1.0898813,-0.6687 1.623533,-1.0479 2.7586943,-1.1747 0.8261707,-0.092 1.2274416,0 2.0547077,0.098 1.4402655,0.2741 2.8471925,0.7398 4.1668715,1.3805 0.278953,0.1354 0.545735,0.2946 0.818602,0.4419 0,0 -1.035022,0.6759 -1.035022,0.6759 l 0,0 c -0.267674,-0.1466 -0.52902,-0.3054 -0.803021,-0.4399 -1.308392,-0.642 -2.7089304,-1.0974 -4.1431795,-1.3509 -0.8265776,-0.081 -1.221125,-0.1704 -2.0427212,-0.057 -0.3043022,0.042 -0.5898271,0.2329 -0.8964131,0.2138 -0.1245983,-0.01 0.3788176,-0.3242 0.2766416,-0.2525 -0.7280801,0.5111 -0.6107184,0.4635 -1.1481788,1.15 -0.2658785,0.6167 -0.4289202,0.8113 -0.4085607,1.5087 0.041688,1.4281 1.1124695,2.4931 2.1019778,3.3805 0.9845104,0.7028 1.2482272,0.9474 2.3505975,1.4985 1.769563,0.8846 3.6988324,1.3677 5.6646494,1.5333 0.472618,0.023 0.944692,0.065 1.417853,0.069 2.261687,0.022 4.517472,-0.3793 6.674196,-1.0394 0.372291,-0.1379 0.732642,-0.3137 1.116877,-0.4135 0.0578,-0.015 -0.152783,0.1755 -0.09923,0.1491 0.657965,-0.3245 1.340652,-0.8439 1.706362,-1.4972 0.09386,-0.1677 0.138505,-0.3585 0.207759,-0.5378 0.01451,-0.1905 0.05196,-0.3806 0.04356,-0.5715 -0.06038,-1.3736 -1.027848,-2.5287 -1.796164,-3.5812 -0.688685,-0.7853 -0.775161,-0.9109 -1.531685,-1.6601 -1.146409,-1.1353 -2.390916,-2.1633 -3.611468,-3.2161 -1.565743,-1.3908 -3.158377,-2.8522 -3.920542,-4.8567 -0.05872,-0.2584 -0.140348,-0.5127 -0.17617,-0.7753 -0.124812,-0.9149 0.07775,-1.8708 0.663252,-2.5986 0.136675,-0.1699 0.307598,-0.3092 0.461398,-0.4638 0.745709,-0.4522 1.464847,-0.9791 2.289057,-1.2887 0.973857,-0.3658 2.022318,-0.4668 3.054749,-0.41 1.456223,0.1915 2.610757,0.4723 3.722654,1.4923 0.108103,0.1266 0.228136,0.2439 0.324301,0.3797 0.423625,0.5985 0.458952,1.2711 0.08127,1.8972 -0.09279,0.1131 -0.174557,0.2363 -0.278371,0.3394 -0.476825,0.4735 -1.555886,1.0054 -1.914923,1.2057 -0.526423,0.2937 -1.105032,0.4847 -1.673227,0.6768 -0.984612,0.3006 -1.993283,0.5242 -3.025872,0.5654 0,0 1.06146,-0.7712 1.06146,-0.7712 z"
       inkscape:connector-curvature="0" />
    <path
       style="fill:#000000"
       id="path3292"
       d="m 25.359573,1026.5347 c 0.59742,0.4876 1.347872,0.6822 2.092425,0.8087 1.075335,0.1166 2.122775,-0.076 3.104211,-0.5131 -0.249615,0.1359 -0.477488,0.3232 -0.748845,0.4077 -0.120847,0.038 0.196742,-0.1621 0.276254,-0.2606 0.07569,-0.094 0.140528,-0.1985 0.184849,-0.3105 0.158052,-0.3996 0.05045,-0.7754 -0.05636,-1.1674 -0.274109,-0.6867 -0.815156,-1.2008 -1.540348,-1.3907 -0.143995,-0.038 -0.294466,-0.044 -0.441698,-0.066 -0.451077,0.025 -0.550406,-0.01 -0.982934,0.1798 -0.172573,0.075 -0.665465,0.2056 -0.491483,0.2769 0.195473,0.08 0.502808,-0.4309 0.587631,-0.2375 0.09353,0.2134 -0.323407,0.3372 -0.461735,0.5247 -0.151823,0.2057 -0.270526,0.434 -0.405789,0.6509 -0.109843,0.2516 -0.237996,0.496 -0.329515,0.7548 -0.374103,1.0579 -0.525712,2.2857 -0.314544,3.3948 0.04752,0.2496 0.140445,0.4883 0.210668,0.7325 0.115215,0.2135 0.209117,0.44 0.345645,0.6405 0.566221,0.8317 1.460002,1.3477 2.426676,1.5716 0.251328,0.058 0.509748,0.08 0.764621,0.1197 1.047313,0.065 2.096526,-0.081 3.054174,-0.5255 0.226997,-0.1055 0.486297,-0.1804 0.657162,-0.3633 0.11408,-0.1222 -0.315343,0.1107 -0.473015,0.1661 1.223867,-1.1433 1.614363,-2.5525 1.96595,-4.1289 0.102445,-0.8303 0.30982,-1.7099 0.122939,-2.5449 -0.41417,-0.023 -1.196787,-0.064 1.118372,-0.502 0.09633,-0.018 -0.02735,0.1945 -0.03235,0.2924 -0.0076,0.1472 -0.01142,0.2949 -0.0052,0.4421 0.02195,0.5215 0.06533,0.6655 0.156298,1.1949 0.26397,1.1511 0.780826,2.2252 1.715455,2.9789 0.166938,0.1346 0.353626,0.2427 0.530438,0.364 0.499616,0.2675 1.02677,0.4451 1.600239,0.3452 0.164593,-0.029 0.591757,-0.273 0.478093,-0.1505 -0.16628,0.1791 -0.417014,0.4069 -0.651212,0.337 -0.184585,-0.055 0.271708,-0.2732 0.407561,-0.4097 0.782347,-1.0841 1.03129,-2.3972 1.12313,-3.7034 0.0032,-0.1419 0.0089,-0.2839 0.0095,-0.4258 4.56e-4,-0.1033 0.0088,-0.3324 -0.03641,-0.4545 -0.005,-0.013 -0.02478,0.047 -0.01152,0.041 0.37355,-0.1539 0.708329,-0.4292 1.107284,-0.4929 0.107583,-0.017 -0.03105,0.2156 -0.04658,0.3235 -0.04756,0.9832 0.0323,1.9855 0.321293,2.9309 0.05864,0.1918 0.137572,0.3768 0.206358,0.5652 0.310634,0.6725 0.769142,1.3762 1.552396,1.5253 0.121144,0.023 0.245908,0.019 0.368862,0.028 -0.166969,0.2121 1.020102,-0.3736 0.772113,-0.2623 -0.243873,0.1094 -0.465439,0.384 -0.728321,0.3356 -0.177447,-0.033 0.252848,-0.2589 0.361178,-0.4032 0.276959,-0.3689 0.356411,-0.59 0.551673,-1.0024 0.165337,-0.3946 0.28833,-0.8042 0.392294,-1.2186 0.01084,-0.043 0.07657,-0.3307 0.07962,-0.3319 0.406114,-0.169 0.833429,-0.2815 1.250144,-0.4222 0.284199,0.8497 0.519534,1.7286 0.962391,2.5147 0.100739,0.1788 0.222317,0.3451 0.333476,0.5176 0.42838,0.5387 1.042535,1.3545 1.850381,1.1399 0.130437,-0.035 0.244291,-0.1148 0.366436,-0.1722 0,0 -1.013614,0.7976 -1.013614,0.7976 l 0,0 c -0.132372,0.045 -0.258853,0.1145 -0.397116,0.1359 -0.84551,0.1307 -1.452491,-0.6875 -1.900953,-1.2623 -0.112836,-0.177 -0.235632,-0.3481 -0.33852,-0.5311 -0.441496,-0.7853 -0.686744,-1.6587 -1.005509,-2.4959 0.362666,-0.2616 0.712756,-0.5417 1.087998,-0.7849 0.03213,-0.021 -0.03082,0.07 -0.04213,0.1069 -0.02337,0.076 -0.04089,0.153 -0.06171,0.2295 -0.115135,0.4225 -0.23905,0.8428 -0.405127,1.2488 -0.19018,0.421 -0.501159,1.1701 -0.880979,1.455 -0.465913,0.3494 -0.969116,0.6473 -1.471609,0.9417 -0.307951,0.1804 -0.477615,0.1689 -0.816422,0.2127 -0.128093,-0.017 -0.258897,-0.021 -0.384277,-0.052 -0.800588,-0.2011 -1.274081,-0.9292 -1.592788,-1.6352 -0.06943,-0.1928 -0.148363,-0.3825 -0.208289,-0.5785 -0.292056,-0.9551 -0.38013,-1.9612 -0.372293,-2.9556 0.05428,-0.7797 -0.05945,-0.3988 1.20906,-1.1427 0.02907,-0.017 0.0547,0.045 0.06629,0.076 0.04379,0.1197 0.02669,0.3968 0.02413,0.4904 -0.004,0.1454 -0.01149,0.2906 -0.01724,0.436 -0.10371,1.3242 -0.345482,2.6557 -1.090997,3.784 -0.130256,0.1459 -0.229845,0.3266 -0.390767,0.4377 -0.76314,0.5273 -1.600758,1.1577 -2.58021,1.0227 -0.491919,-0.068 -0.660015,-0.1954 -1.103877,-0.4124 -0.179032,-0.1273 -0.367956,-0.2417 -0.5371,-0.3819 -0.942713,-0.7811 -1.474375,-1.8744 -1.759083,-3.0463 -0.104703,-0.5525 -0.195631,-1.0849 -0.198333,-1.6486 -4.79e-4,-0.1 -0.06523,-0.2334 0.0096,-0.2996 0.35205,-0.3117 0.778399,-0.5298 1.187962,-0.7608 0.02295,-0.013 0.02783,0.045 0.04175,0.067 0.147338,0.8695 -0.03416,1.7597 -0.154674,2.6203 -0.348182,1.5639 -0.741081,3.0527 -1.930832,4.2089 -0.547245,0.3558 -1.584749,1.105 -2.335889,1.434 -0.974825,0.4271 -2.036571,0.5536 -3.09102,0.4722 -0.258858,-0.045 -0.52166,-0.071 -0.776573,-0.1339 -0.990548,-0.2463 -1.902186,-0.7947 -2.479718,-1.6519 -0.140557,-0.2086 -0.237175,-0.4437 -0.355763,-0.6656 -0.07188,-0.2515 -0.166532,-0.4976 -0.215647,-0.7546 -0.270181,-1.4135 0.02678,-2.9229 0.603137,-4.2197 0.190419,-0.3244 0.518904,-0.9631 0.837354,-1.2109 0.541494,-0.4213 1.748744,-1.303 2.614556,-1.4208 0.165064,-0.022 0.333128,-0.01 0.499693,-0.01 0.152446,0.029 0.308565,0.043 0.457335,0.088 0.753169,0.2241 1.311106,0.7718 1.602513,1.491 0.121501,0.416 0.243814,0.82 0.106906,1.2537 -0.253649,0.8034 -1.307604,1.1354 -1.899803,1.488 -1.002755,0.4083 -2.062633,0.5867 -3.145103,0.4512 -0.769144,-0.1425 -1.533204,-0.352 -2.162028,-0.8403 0,0 1.117404,-0.7018 1.117404,-0.7018 z"
       inkscape:connector-curvature="0" />
    <path
       style="fill:#000000"
       id="path3294"
       d="m 53.160076,1026.4564 c 0.287061,0.6258 0.77311,1.1542 1.398007,1.4571 0.166837,0.081 0.346783,0.1313 0.520174,0.197 0.729772,0.1863 1.523944,0.202 2.234532,-0.086 0.163979,-0.066 0.636713,-0.3 0.465784,-0.2544 -0.242895,0.065 -0.457391,0.2087 -0.686088,0.3131 0.102897,-0.1303 0.22343,-0.2484 0.308685,-0.3908 0.334046,-0.5581 0.425171,-1.3456 0.02175,-1.898 -0.09388,-0.1285 -0.23268,-0.2173 -0.34902,-0.3259 -0.554803,-0.286 -1.126327,-0.2979 -1.724285,-0.1264 -0.243204,0.07 -0.465022,0.2014 -0.705574,0.2797 -0.126703,0.041 0.439314,-0.2771 0.362754,-0.168 -0.172974,0.2464 -0.446666,0.4039 -0.67,0.6058 -0.782215,0.9396 -1.40524,2.0703 -1.404014,3.3287 7.18e-4,0.738 0.13825,0.9155 0.395192,1.5859 0.156505,0.2185 0.285349,0.4598 0.469514,0.6557 0.798836,0.8494 2.032833,1.2092 3.168721,1.2117 0.305568,6e-4 0.609224,-0.048 0.913836,-0.072 0.880817,-0.2175 0.917974,-0.1651 1.718442,-0.6085 0.08979,-0.05 -0.354966,0.1749 -0.293734,0.092 0.182765,-0.2459 0.468609,-0.3963 0.682541,-0.6157 0.523915,-0.5371 0.624078,-0.747 1.029222,-1.3567 0.349564,-0.6608 0.929271,-1.7488 0.62381,-2.5273 -0.399909,0.3026 0.421593,-0.325 0.988187,-0.4588 0.100807,-0.024 -0.09352,0.186 -0.123226,0.2852 -0.159438,0.5326 -0.136433,1.073 -0.117779,1.6205 0.140531,1.106 0.593297,2.1631 1.488577,2.8681 0.16708,0.1316 0.35689,0.2314 0.535334,0.3471 0.567001,0.271 1.148478,0.4227 1.777159,0.2892 0.205568,-0.044 0.40636,-0.2925 0.596731,-0.2035 0.168029,0.079 -0.525571,0.4333 -0.497152,0.25 0.03885,-0.2506 0.360861,-0.3564 0.541291,-0.5346 0.790331,-1.0522 1.352485,-2.3079 1.389125,-3.6367 -0.02114,-0.063 -0.01581,-0.1427 -0.06342,-0.189 -0.02277,-0.022 -0.112622,0.059 -0.08365,0.046 0.332023,-0.1497 0.633364,-0.3984 0.993035,-0.4557 0.118893,-0.019 -0.120125,0.21 -0.161202,0.3232 -0.129579,0.357 -0.13294,0.5634 -0.180063,0.9407 0.01118,0.7008 0.189759,1.4563 0.866983,1.7997 0.10153,0.051 0.213105,0.08 0.319659,0.1202 0.111096,0.016 0.221445,0.039 0.333286,0.048 0.423427,0.036 0.263115,-0.018 0.689743,0.021 0.418877,0.039 0.818794,0.1568 1.220471,0.2741 1.176823,0.3888 2.40279,0.6141 3.645126,0.6067 0.320173,-0 0.63965,-0.03 0.959474,-0.045 0.921413,-0.1002 1.89572,-0.2097 2.700732,-0.7203 0.112904,-0.072 -0.416393,0.2329 -0.387843,0.1022 0.05862,-0.2681 0.370907,-0.4105 0.507293,-0.6487 0.136205,-0.238 0.201362,-0.51 0.302044,-0.765 0.01489,-0.2692 0.07509,-0.5398 0.04466,-0.8077 -0.09908,-0.8722 -0.655612,-1.6177 -1.397917,-2.0586 -0.671033,-0.3986 -0.998208,-0.3838 -1.747376,-0.5117 -1.284028,0.1025 -0.474725,-0.04 -1.637611,0.3462 -0.162417,0.054 0.428081,-0.3461 0.479763,-0.183 0.06578,0.2077 -0.290217,0.3372 -0.366259,0.5413 -0.209852,0.5634 -0.02102,0.7782 0.168714,1.306 0.194976,0.2232 0.360348,0.4763 0.584932,0.6697 0.604862,0.5209 1.427666,0.9141 2.152077,1.2096 1.555385,0.6343 3.197627,1.0138 4.822613,1.4163 1.629406,0.3693 3.2703,0.6894 4.917926,0.9663 0.776206,0.1305 1.788843,0.2918 2.585345,0.359 0.333748,0.028 0.669208,0.03 1.003812,0.045 0,0 -0.997535,0.7165 -0.997535,0.7165 l 0,0 c -0.330467,-0.021 -0.661936,-0.031 -0.991402,-0.064 -0.784661,-0.08 -1.793958,-0.2514 -2.558088,-0.3861 -1.641956,-0.2896 -3.278138,-0.6144 -4.903743,-0.9851 -1.639455,-0.4033 -3.298193,-0.782 -4.870743,-1.4112 -0.747376,-0.299 -1.593261,-0.6953 -2.219145,-1.2262 -0.238351,-0.2022 -0.41578,-0.4668 -0.62367,-0.7002 -0.214787,-0.5617 -0.418912,-0.7952 -0.226924,-1.4068 0.271456,-0.8648 1.374772,-1.2888 2.027412,-1.6331 0.239317,-0.1262 0.507172,-0.199 0.773766,-0.2452 0.293254,-0.051 0.594537,-0.029 0.891805,-0.043 0.768592,0.1492 1.096433,0.1419 1.782398,0.5627 0.768485,0.4714 1.344051,1.2477 1.462796,2.1553 0.03649,0.2789 -0.01884,0.5623 -0.02827,0.8435 -0.191152,0.5304 -0.311255,1.0966 -0.782941,1.4784 -0.610111,0.4938 -1.702852,1.2015 -2.565861,1.481 -0.684133,0.2216 -1.185175,0.2433 -1.896055,0.3258 -0.32313,0.013 -0.645988,0.039 -0.969387,0.04 -1.259651,8e-4 -2.501278,-0.2277 -3.700092,-0.6038 -0.402928,-0.107 -0.796674,-0.2087 -1.213822,-0.2416 -0.236343,-0.019 -0.46458,-0 -0.700289,-0.036 -0.117407,-0.016 -0.232127,-0.047 -0.34819,-0.071 -0.111322,-0.048 -0.228618,-0.084 -0.333969,-0.1444 -0.694729,-0.3962 -0.896493,-1.1807 -0.922844,-1.9281 0.02108,-0.207 0.11307,-1.1805 0.28421,-1.3205 0.394043,-0.3223 0.837579,-0.5848 1.291735,-0.8149 0.05149,-0.026 0.118845,0.036 0.151565,0.084 0.04638,0.067 0.04552,0.1572 0.06828,0.2358 -0.0566,1.3554 -0.607766,2.64 -1.385655,3.7381 -0.174351,0.1869 -0.31364,0.4142 -0.523052,0.5607 -0.830495,0.5812 -1.833387,1.278 -2.919245,1.1857 -0.50965,-0.043 -0.733985,-0.1848 -1.197583,-0.3838 -0.182022,-0.1223 -0.375692,-0.2289 -0.546063,-0.367 -0.907943,-0.7361 -1.379941,-1.8157 -1.538735,-2.9508 -0.01151,-0.2125 -0.03366,-0.4247 -0.03453,-0.6375 -0.0025,-0.6064 0.199003,-2.8446 1.563323,-2.0269 0.308641,0.8978 -0.239619,1.8913 -0.632347,2.6645 -0.405044,0.6233 -0.504618,0.8356 -1.02664,1.3889 -0.799297,0.8471 -1.337118,1.107 -2.501555,1.7602 -0.267684,0.1502 -0.551679,0.274 -0.843271,0.3698 -0.292681,0.096 -0.601024,0.1356 -0.901536,0.2035 -0.308849,0.019 -0.617186,0.063 -0.926549,0.057 -1.169216,-0.024 -2.420693,-0.4171 -3.234721,-1.2959 -0.189729,-0.2048 -0.322933,-0.4556 -0.484399,-0.6833 -0.268629,-0.6955 -0.409324,-0.876 -0.417006,-1.6415 -0.01282,-1.2775 0.596033,-2.4364 1.368814,-3.4095 1.016612,-0.9708 0.710277,-0.7728 2.438862,-1.6798 0.591612,-0.3105 1.374093,-0.4616 2.029769,-0.2826 0.178329,0.049 0.336339,0.1535 0.504508,0.2303 0.124242,0.122 0.271627,0.2242 0.372723,0.366 0.41882,0.5873 0.365194,1.4095 0.03933,2.0225 -0.0807,0.1518 -0.198242,0.2809 -0.297364,0.4214 -0.176093,0.1132 -1.403414,0.9884 -1.977962,1.193 -0.736195,0.2623 -1.538911,0.2285 -2.280199,0.02 -0.178474,-0.072 -0.363684,-0.128 -0.535421,-0.2144 -0.644538,-0.3242 -1.144812,-0.8704 -1.473651,-1.5046 0,0 1.148308,-0.6449 1.148308,-0.6449 z"
       inkscape:connector-curvature="0" />
    <path
       style="fill:#000000"
       id="path3312"
       d="m 114.68203,1018.3662 c 0.67822,0.4986 1.50958,0.5112 2.3158,0.4843 0.18921,-0.027 0.38024,-0.044 0.56762,-0.081 0.32105,-0.065 0.78083,-0.2003 1.07793,-0.3442 0.15474,-0.075 0.61147,-0.2909 0.44118,-0.2672 -0.7135,0.099 -0.97788,0.6941 -0.48594,-0.093 0.043,-0.1571 0.11216,-0.3092 0.12917,-0.4712 0.0879,-0.8377 -0.43274,-1.6361 -1.02392,-2.1744 -0.20108,-0.183 -0.43065,-0.3321 -0.64598,-0.4982 -1.5682,-0.9488 -3.39519,-1.2907 -5.21455,-1.175 -0.43323,0.028 -0.86207,0.1031 -1.29311,0.1547 -1.43097,0.2799 -2.80412,0.796 -4.06126,1.538 -0.12167,0.072 -0.20057,0.1994 -0.30835,0.2907 -1.90769,1.6165 -0.63859,0.4073 -2.40388,2.2028 -1.34345,1.5905 -2.4598,3.4106 -2.88333,5.4756 -0.25501,1.2434 -0.16246,1.5236 -0.0975,2.7662 0.10084,0.4255 0.16373,0.8619 0.30252,1.2766 0.41358,1.2358 1.16693,2.3366 2.16321,3.1754 0.86,0.724 1.30206,0.8705 2.30209,1.3712 0.43888,0.1463 0.86894,0.3223 1.31662,0.4389 1.72177,0.4482 3.56276,0.4916 5.31536,0.2173 0.3828,-0.06 0.75866,-0.1579 1.13798,-0.2369 0.68313,-0.2217 1.20887,-0.3418 1.81917,-0.7255 0.11473,-0.072 -0.42721,0.2546 -0.38679,0.1252 0.0747,-0.239 0.36629,-0.3449 0.51774,-0.5444 0.38201,-0.503 0.37848,-0.6739 0.55642,-1.2593 0.0115,-0.223 0.0536,-0.4465 0.0344,-0.6689 -0.0617,-0.7142 -0.43966,-1.3584 -0.97719,-1.8206 -0.56396,-0.485 -0.88018,-0.5619 -1.56419,-0.8661 -0.34246,-0.091 -0.6793,-0.2063 -1.02741,-0.2723 -1.66697,-0.316 -3.45891,-0.1887 -5.05127,0.4062 -0.45607,0.1704 -0.88316,0.4101 -1.32474,0.6151 -0.10165,0.099 -0.19841,0.2024 -0.30496,0.2956 -1.38661,1.2132 -1.32991,1.0252 -2.57967,2.4459 -0.76853,0.8736 -1.63845,2.0318 -2.28592,2.9989 -0.32522,0.4858 -0.6181,0.9924 -0.927147,1.4886 -0.508252,1.0317 -1.310619,2.2778 -1.141377,3.507 0.03465,0.2518 0.191516,0.4708 0.287274,0.7061 0,0 -1.091598,0.6092 -1.091598,0.6092 l 0,0 c -0.09842,-0.2547 -0.260773,-0.4932 -0.29528,-0.764 -0.161024,-1.2639 0.663304,-2.5352 1.190355,-3.5948 0.311898,-0.5 0.608367,-1.01 0.935693,-1.5001 1.03305,-1.5466 2.18813,-3.0499 3.52838,-4.3452 0.41074,-0.397 0.82726,-0.7937 1.29186,-1.126 0.74141,-0.5303 1.54384,-0.9697 2.31576,-1.4546 0.4475,-0.2017 0.88089,-0.4382 1.34248,-0.6052 1.61638,-0.5848 3.43134,-0.7003 5.11581,-0.374 0.35518,0.069 0.69872,0.188 1.04808,0.282 0.70408,0.3161 1.02752,0.3962 1.60877,0.8981 0.56127,0.4845 0.95518,1.1578 1.03246,1.9022 0.0239,0.2311 -0.0145,0.4644 -0.0217,0.6966 -0.16713,0.6033 -0.16309,0.7914 -0.53925,1.3156 -0.58103,0.8097 -1.35726,1.1545 -2.25407,1.6734 -0.26468,0.1532 -0.54683,0.2765 -0.83289,0.3846 -0.32121,0.1213 -0.65654,0.2014 -0.9848,0.3021 -0.37899,0.074 -0.75482,0.1664 -1.13696,0.2217 -2.24767,0.3252 -4.54261,0.1097 -6.66114,-0.7189 -1.01567,-0.514 -1.45489,-0.6602 -2.32764,-1.4008 -1.00925,-0.8564 -1.77479,-1.9761 -2.1951,-3.2325 -0.141068,-0.4217 -0.205132,-0.8654 -0.307699,-1.298 -0.06934,-1.2643 -0.163518,-1.5414 0.09135,-2.807 0.419266,-2.0821 1.530226,-3.9231 2.873986,-5.5347 0.8225,-0.8489 1.4129,-1.5397 2.38785,-2.2228 1.95799,-1.3719 4.04962,-2.5237 6.41663,-2.9682 0.43545,-0.049 0.86885,-0.1224 1.30634,-0.1475 1.84982,-0.1064 3.70282,0.2536 5.29617,1.217 0.2218,0.1705 0.45816,0.3237 0.66541,0.5116 0.62383,0.5658 1.15948,1.3943 1.10496,2.2724 -0.0102,0.1717 -0.0747,0.3358 -0.11205,0.5037 -0.0791,0.1447 -0.11125,0.3278 -0.23727,0.4342 -1.11386,0.9409 -2.14383,1.4875 -3.56553,1.6252 -0.83971,0.015 -1.68201,-0.029 -2.39526,-0.5264 0,0 1.10985,-0.7106 1.10985,-0.7106 z"
       inkscape:connector-curvature="0" />
    <path
       style="fill:#000000"
       id="path3314"
       d="m 122.08884,1024.2286 c -0.0408,1.5248 -0.0476,3.0492 0.0343,4.5725 0.0547,0.7361 0.1303,1.4793 0.36917,2.1827 0.0588,0.1731 0.14145,0.3371 0.21218,0.5057 0,0 -1.11218,0.6225 -1.11218,0.6225 l 0,0 c -0.0705,-0.1749 -0.15313,-0.3454 -0.21157,-0.5247 -0.23343,-0.7163 -0.30592,-1.4708 -0.35869,-2.2178 -0.0795,-1.5148 -0.0726,-3.03 -0.10041,-4.5462 0,0 1.16717,-0.5947 1.16717,-0.5947 z"
       inkscape:connector-curvature="0" />
    <path
       style="fill:#000000"
       id="path3316"
       d="m 125.7224,1033.8433 c -0.10007,0.1074 0.97809,-0.5049 0.73813,-0.3701 -0.19843,0.1114 -0.42329,0.4765 -0.59762,0.3302 -0.1667,-0.1399 0.35356,-0.2547 0.51874,-0.3964 0.545,-0.4676 0.56951,-0.5539 1.03352,-1.1279 0.84983,-1.2645 1.46564,-2.7046 1.64273,-4.2279 0.0288,-0.2481 0.0256,-0.4988 0.0384,-0.7483 -0.007,-0.2914 -0.0732,-1.9083 -0.69775,-1.7502 -0.093,0.024 -0.16175,0.1029 -0.24264,0.1543 0.27683,-0.1181 0.53642,-0.4184 0.83047,-0.3543 0.17722,0.039 -0.19057,0.3108 -0.25784,0.4792 -0.0828,0.2073 -0.14291,0.424 -0.18999,0.6422 -0.11332,0.5251 -0.1573,1.0613 -0.11664,1.5979 0.022,0.2906 0.0876,0.5763 0.13139,0.8644 0.3132,1.1601 0.91629,2.2177 1.88293,2.9577 0.56702,0.4341 0.79299,0.4724 1.44101,0.7278 0.73456,0.174 1.43074,0.1722 2.10161,-0.214 0.14962,-0.086 -0.49,0.3482 -0.48721,0.1756 0.005,-0.2572 0.34794,-0.3811 0.49396,-0.5929 0.15365,-0.2229 0.26769,-0.4706 0.40153,-0.7058 0.30344,-0.6786 0.48992,-1.3937 0.58188,-2.1296 0.0468,-0.3747 0.0805,-0.7405 -0.0189,-1.1061 -0.021,0.01 -0.0421,0.011 -0.0631,0.017 0.35349,-0.1701 0.68544,-0.3952 1.06047,-0.5103 0.0765,-0.023 -0.0793,0.1402 -0.10312,0.2165 -0.0322,0.1032 -0.0542,0.2104 -0.0639,0.3181 -0.0313,0.3476 0.0102,0.4353 0.0744,0.7767 0.31443,0.9654 1.19624,1.4183 2.01347,1.9049 0.97558,0.5419 1.9685,1.1147 3.07134,1.3529 0.23166,0.05 0.46832,0.073 0.70249,0.1097 0.70509,0.04 1.44451,0.01 2.10604,-0.2748 0.21453,-0.091 0.54513,-0.1255 0.60503,-0.3508 0.0486,-0.1829 -0.36637,0.095 -0.54955,0.1421 0.12769,-0.2111 0.25537,-0.4222 0.38306,-0.6333 0.0683,-0.2519 0.17261,-0.4966 0.20504,-0.7555 0.14209,-1.1339 -0.3599,-2.3002 -1.34187,-2.9099 -0.24865,-0.1543 -0.53734,-0.2321 -0.80602,-0.3482 -1.12002,-0.2436 -1.73749,-0.087 -2.76835,0.3564 -0.0766,0.033 0.28765,-0.1346 0.24142,-0.065 -0.85326,0.8891 -0.49177,0.4055 -1.09365,1.444 -0.0645,0.2727 -0.16957,0.539 -0.1935,0.8182 -0.0718,0.8378 0.27016,1.6151 0.85367,2.2029 0.53477,0.5387 0.80941,0.6029 1.48159,0.9328 0.88327,0.2939 1.79793,0.3922 2.71459,0.1861 0.29178,-0.066 0.55988,-0.2154 0.85068,-0.2852 0.10967,-0.026 -0.37443,0.2395 -0.30167,0.1533 0.18627,-0.2208 0.4353,-0.3797 0.65295,-0.5696 0.84769,-0.9124 1.3653,-2.0602 1.53195,-3.2898 -0.0147,-0.1934 -0.0817,-0.381 1.05462,-0.5273 0.12028,-0.015 -0.0546,0.2368 -0.0689,0.3572 -0.0543,0.4564 -0.0263,0.5707 -0.001,1.0456 0.12683,0.8002 0.39289,1.6188 1.03615,2.16 0.4222,0.3551 0.59146,0.3563 1.10336,0.5241 0.71011,0.108 1.36337,-0.04 2.00359,-0.3528 0.21961,-0.1072 0.49984,-0.1649 0.63301,-0.3698 0.10482,-0.1614 -0.44829,0.3901 -0.53441,0.2181 -0.089,-0.1779 0.29613,-0.2656 0.4442,-0.3984 0.62282,-0.6334 0.97952,-0.9911 1.97943,-1.2198 0.0842,-0.019 0.089,0.148 0.13126,0.2232 0.0556,0.099 0.10809,0.1993 0.1622,0.2989 0.66371,1.0208 1.82044,1.5121 2.98222,1.7348 0.35229,0.068 0.71167,0.091 1.06752,0.1357 1.1631,0.049 2.33307,-0.031 3.41948,-0.4901 0.34781,-0.1472 0.70274,-0.3038 0.99328,-0.5451 0.0613,-0.051 -0.24504,-0.024 -0.21783,-0.099 0.11388,-0.3139 0.37069,-0.5555 0.55604,-0.8332 0.0857,-0.2936 0.2256,-0.5766 0.25715,-0.8808 0.0965,-0.9304 -0.4266,-1.679 -1.26435,-2.0435 -0.84251,-0.3666 -1.28025,-0.2603 -2.19067,-0.2535 -1.24,0.222 -2.55978,0.5736 -3.58304,1.355 -0.0465,0.035 0.17017,0.053 0.14146,0.1039 -1.63655,2.9048 0.20204,-1.1374 -0.91471,1.4264 2.5e-4,0.2097 -0.0534,0.4266 7.4e-4,0.6292 0.27822,1.0405 1.79568,1.2412 2.66216,1.2117 0.35239,-0.012 0.69886,-0.094 1.0483,-0.1413 0.36041,-0.1236 0.72505,-0.2355 1.08125,-0.3708 0.0154,-0.01 0.005,-0.035 0.0173,-0.046 0.3217,-0.2875 0.67835,-0.5369 0.98034,-0.845 0.597,-0.6091 1.10018,-1.338 1.50646,-2.0851 0.18132,-0.3335 0.31917,-0.6889 0.47875,-1.0333 0.2678,-0.7344 0.51771,-1.5099 0.47793,-2.3046 -0.009,-0.1867 -0.0323,-0.5243 -0.21913,-0.5164 -0.0809,0 -0.12843,0.099 -0.19264,0.148 0.27831,-0.098 0.57936,-0.4419 0.83497,-0.2944 0.19468,0.1123 -0.21066,0.3984 -0.2907,0.6085 -0.10267,0.2694 -0.18752,0.5461 -0.25599,0.8262 -0.26671,1.0911 -0.28048,2.065 -0.27293,3.1781 0.0386,0.3632 0.0555,0.7294 0.11595,1.0896 0.1816,1.0805 0.61208,2.3952 1.39992,3.1992 0.13683,0.1397 0.31149,0.2364 0.46724,0.3545 -0.27409,0.4705 1.25753,-0.1474 0.95746,-0.038 -0.1944,0.071 -0.54752,0.3998 -0.58874,0.197 -0.0573,-0.2816 0.34449,-0.4623 0.48371,-0.7137 0.42431,-0.7662 0.53602,-1.2355 0.81596,-2.0728 0.27909,-0.9496 0.46598,-1.9215 0.6335,-2.8956 0.0311,-0.1804 0.0577,-0.3616 0.089,-0.542 0.0147,-0.085 -0.0232,-0.2063 0.0489,-0.253 0.36988,-0.2396 0.79975,-0.3704 1.19962,-0.5556 0.0914,1.3426 0.3303,2.6615 0.89345,3.8934 0.15754,0.3446 0.35192,0.6712 0.52789,1.0068 0.72504,1.0722 1.54996,2.2206 2.75066,2.8061 0.1865,0.091 0.3938,0.1309 0.5907,0.1964 0,0 -1.05025,0.7088 -1.05025,0.7088 l 0,0 c -0.19708,-0.077 -0.40491,-0.1301 -0.59125,-0.2302 -1.18959,-0.6387 -2.0178,-1.7883 -2.75278,-2.8787 -0.17919,-0.3387 -0.37579,-0.6688 -0.53755,-1.0161 -0.56123,-1.2053 -0.84452,-2.5014 -0.97564,-3.8185 0.37414,-0.2254 0.71694,-0.5137 1.12243,-0.6761 0.0839,-0.034 -0.0593,0.171 -0.0802,0.2589 -0.0436,0.1834 -0.0762,0.3693 -0.11324,0.5541 -0.196,0.9806 -0.38221,1.9642 -0.6601,2.9261 -0.27215,0.8554 -0.37222,1.2967 -0.77374,2.0881 -0.13056,0.2573 -0.23284,0.5494 -0.44986,0.7396 -0.47994,0.4205 -1.03766,0.7488 -1.59772,1.0547 -0.15485,0.085 -0.34337,0.1127 -0.51947,0.1017 -0.17455,-0.011 -0.33196,-0.1102 -0.49793,-0.1653 -0.15744,-0.1297 -0.33362,-0.2396 -0.47231,-0.3892 -1.04312,-1.1252 -1.39083,-2.9092 -1.5188,-4.377 -0.0151,-1.115 -0.006,-2.1015 0.23358,-3.1992 0.0254,-0.1162 0.32888,-1.297 0.48875,-1.4578 0.40213,-0.4047 0.91691,-0.6791 1.37537,-1.0187 0.094,-0.01 0.19475,-0.058 0.28197,-0.023 0.20326,0.084 0.22974,0.4942 0.23382,0.6246 0.0255,0.8179 -0.23087,1.6158 -0.50861,2.3718 -0.43148,0.9364 -0.53838,1.2752 -1.14944,2.1415 -1.20335,1.7059 -2.97224,2.9347 -4.9965,3.4722 -0.35681,0.042 -0.7112,0.1193 -1.0704,0.1261 -0.95513,0.018 -2.48016,-0.2387 -2.78724,-1.3515 -0.0604,-0.219 -0.008,-0.4543 -0.0117,-0.6814 0.10222,-0.2455 0.16697,-0.5101 0.30669,-0.7363 0.62537,-1.0124 1.48845,-1.4057 2.53716,-2.071 1.1099,-0.7041 2.31987,-1.1471 3.62571,-1.3102 0.93879,0.01 1.39106,-0.097 2.25522,0.2976 0.87685,0.4001 1.42395,1.199 1.33879,2.1785 -0.0275,0.3159 -0.16622,0.612 -0.24932,0.9181 -0.18312,0.2892 -0.29591,0.6376 -0.54936,0.8678 -0.5622,0.5105 -1.2194,0.9074 -1.85806,1.3183 -1.34019,0.8623 -2.90108,1.0633 -4.46216,0.9781 -0.36183,-0.048 -0.72731,-0.073 -1.0855,-0.1429 -1.20207,-0.2347 -2.38345,-0.7476 -3.09308,-1.7837 -0.44078,-0.748 -0.42648,-0.3393 0.78011,-1.1055 0.0527,-0.034 -0.11447,0.054 -0.1624,0.094 -0.21195,0.1773 -0.36144,0.4224 -0.59087,0.5814 -0.86876,0.7993 -0.43349,0.446 -2.06188,1.4502 -0.83256,0.5134 -1.72422,0.8248 -2.7091,0.6432 -0.53042,-0.192 -0.70183,-0.199 -1.13804,-0.5773 -0.65512,-0.5683 -0.93903,-1.405 -1.08307,-2.2316 -0.0403,-0.5249 -0.063,-0.5596 -0.0299,-1.061 0.008,-0.1246 -0.0451,-0.2836 0.0429,-0.3723 0.34704,-0.3501 0.77168,-0.6179 1.19272,-0.8743 0.0837,-0.051 0.17099,0.304 0.10662,0.2739 -0.19753,1.2541 -0.69509,2.4415 -1.54825,3.3938 -0.21514,0.1978 -0.40182,0.4319 -0.6454,0.5934 -1.51591,1.0048 -2.73444,1.6542 -4.55374,1.3233 -0.30689,-0.056 -0.60083,-0.168 -0.90125,-0.252 -0.68922,-0.349 -0.9669,-0.4182 -1.51608,-0.977 -0.6067,-0.6174 -0.9641,-1.4237 -0.90487,-2.2995 0.0197,-0.2901 0.12152,-0.5686 0.18227,-0.8529 0.14601,-0.2658 0.26111,-0.5511 0.43805,-0.7974 0.65975,-0.9183 1.45886,-1.2906 2.51368,-1.8441 0.54956,-0.2884 1.28371,-0.4493 1.90309,-0.4336 0.31353,0.01 0.61932,0.099 0.92897,0.149 0.27596,0.126 0.57285,0.2136 0.82787,0.3778 1.0051,0.6472 1.53038,1.8499 1.41512,3.0267 -0.0262,0.2676 -0.12427,0.5231 -0.1864,0.7847 -0.12184,0.2219 -0.1787,0.4949 -0.36553,0.6658 -0.48013,0.4391 -1.04999,0.7697 -1.59414,1.1264 -0.82201,0.5389 -1.80329,0.6362 -2.76019,0.5577 -0.23726,-0.04 -0.47721,-0.067 -0.71178,-0.121 -1.10982,-0.2545 -2.11163,-0.8311 -3.10026,-1.3726 -0.8569,-0.5017 -1.74824,-0.9875 -2.08362,-1.9886 -0.0744,-0.3577 -0.11654,-0.4492 -0.10278,-0.8147 0.0235,-0.6257 0.63052,-1.9324 1.48844,-1.2335 0.0872,0.3946 0.0539,0.7718 9.9e-4,1.1729 -0.0986,0.7487 -0.28264,1.479 -0.57808,2.1758 -0.19007,0.3534 -0.52981,1.0791 -0.86758,1.3442 -0.86463,0.6784 -1.90386,1.4234 -3.06746,1.3398 -0.25434,-0.018 -0.50106,-0.095 -0.7516,-0.1426 -0.6601,-0.2758 -0.88193,-0.3175 -1.45877,-0.7706 -0.97671,-0.7672 -1.5934,-1.8474 -1.92319,-3.0293 -0.0481,-0.293 -0.11764,-0.5833 -0.14421,-0.8791 -0.0677,-0.753 0.009,-1.5614 0.25402,-2.2796 0.0599,-0.1754 0.0922,-0.3821 0.22948,-0.5065 0.41418,-0.3755 0.92016,-0.6351 1.38024,-0.9526 0.10019,-0.028 0.19658,-0.088 0.30053,-0.084 0.70535,0.024 0.71784,1.4926 0.73896,1.9247 -0.0137,0.2554 -0.0114,0.5122 -0.041,0.7662 -0.17869,1.5344 -0.78261,2.9904 -1.61245,4.282 -0.16449,0.2135 -0.31588,0.4377 -0.49345,0.6403 -0.89994,1.027 -2.15424,1.6717 -3.38465,2.2163 0,0 1.03781,-0.8012 1.03781,-0.8012 z"
       inkscape:connector-curvature="0" />
    <path
       style="fill:#000000"
       id="path3318"
       d="m 171.5851,1026.1242 c 0.0538,-0.2612 0.0665,-0.5828 0.24993,-0.7952 0.0137,0.048 0.0546,0.096 0.0409,0.1438 -0.0176,0.062 -0.0812,-0.1055 -0.0936,-0.1685 -0.0333,-0.1688 0.0497,-0.2699 0.14904,-0.3939 1.00006,-0.6046 1.60052,-1.2107 2.61723,-0.4978 0.1283,0.1531 0.20158,0.4089 -0.0158,0.543 -0.94749,0.5845 -1.12958,0.8385 -1.99982,0.7515 -0.32327,-0.1025 -0.99831,-0.1761 -1.02377,-0.6192 1.28912,-0.7049 0.808,-0.8712 1.40698,-0.5937 0,0 -1.08922,0.7367 -1.08922,0.7367 l 0,0 c -0.55062,-0.1197 -0.1925,-0.01 0.88965,-0.6935 -0.0436,-0 -0.10821,-0.02 -0.0245,0.065 0.22824,0.2309 0.60057,0.2768 0.89713,0.3478 0.10335,0 0.20693,0.017 0.30986,0.01 0.10075,-0.01 0.37406,-0.1271 0.29697,-0.062 -0.26417,0.2242 -0.58818,0.3665 -0.87864,0.5554 -0.0504,0.033 0.1158,-0.044 0.15824,-0.087 0.10391,-0.1044 0.0265,-0.155 -0.0299,-0.2478 -0.22279,-0.1458 -0.4362,-0.238 -0.70968,-0.2454 -0.093,-0 -0.18653,0.01 -0.27788,0.024 -0.0817,0.015 -0.30603,0.1216 -0.23823,0.073 0.29492,-0.209 0.61832,-0.3747 0.92748,-0.562 -0.21917,0.165 -0.26022,0.2523 -0.0769,0.4344 -0.25407,0.096 -0.2607,0.4703 -0.30245,0.7004 0,0 -1.18286,0.5817 -1.18286,0.5817 z"
       inkscape:connector-curvature="0" />
  </g>
</svg>
